<?xml version="1.0" encoding="UTF-8" standalone="no"?>
<!DOCTYPE svg PUBLIC "-//W3C//DTD SVG 1.1//EN" "http://www.w3.org/Graphics/SVG/1.1/DTD/svg11.dtd">
<svg width="100%" height="100%" viewBox="0 0 1028 168" version="1.1" xmlns="http://www.w3.org/2000/svg" xmlns:xlink="http://www.w3.org/1999/xlink" xml:space="preserve" xmlns:serif="http://www.serif.com/" style="fill-rule:evenodd;clip-rule:evenodd;stroke-linecap:round;stroke-linejoin:round;stroke-miterlimit:1.5;">
    <g transform="matrix(1,0,0,1,-4556,-457)">
        <g transform="matrix(2.00001,0,0,2.00001,-6320.44,-4924.36)">
            <g id="banner2" transform="matrix(0.928762,0,0,0.640843,4848.3,2566.61)">
                <path d="M1146.52,195.873C1146.52,218.195 1164.64,236.316 1186.96,236.316L1186.96,281.814C1164.64,281.814 1146.52,299.935 1146.52,322.257L677.373,322.257C677.373,299.936 659.252,281.814 636.931,281.814L636.931,236.316C659.252,236.316 677.373,218.194 677.373,195.873L1146.52,195.873Z" style="fill:rgb(171,180,192);"/>
                <clipPath id="_clip1">
                    <path d="M1146.52,195.873C1146.52,218.195 1164.64,236.316 1186.96,236.316L1186.96,281.814C1164.64,281.814 1146.52,299.935 1146.52,322.257L677.373,322.257C677.373,299.936 659.252,281.814 636.931,281.814L636.931,236.316C659.252,236.316 677.373,218.194 677.373,195.873L1146.52,195.873Z"/>
                </clipPath>
                <g clip-path="url(#_clip1)">
                    <g transform="matrix(1.031,0.718051,-0.745946,1.12799,-122.748,-871.468)">
                        <rect x="839.284" y="114.059" width="624.203" height="62.282" style="fill:rgb(207,211,216);fill-opacity:0.4;"/>
                    </g>
                    <g transform="matrix(1.15853,0.47067,-0.488954,1.26751,-311.177,-551.969)">
                        <rect x="839.284" y="114.059" width="624.203" height="62.282" style="fill:rgb(207,211,216);fill-opacity:0.4;"/>
                    </g>
                    <g transform="matrix(1.19475,0.362973,0.3168,-1.09821,-546.156,46.1546)">
                        <rect x="839.284" y="114.059" width="624.203" height="62.282" style="fill:rgb(207,211,216);fill-opacity:0.4;"/>
                    </g>
                    <g transform="matrix(1.23581,0.163278,0.161046,-1.28371,-582.42,307.618)">
                        <rect x="839.284" y="114.059" width="624.203" height="62.282" style="fill:rgb(136,142,149);fill-opacity:0.25;"/>
                    </g>
                    <g transform="matrix(1.031,0.718051,-1.00178,1.51485,-166.155,-805.829)">
                        <path d="M1463.49,114.059L1404.91,95.178L839.284,114.059L839.284,176.341L1463.49,176.341L1463.49,114.059Z" style="fill:rgb(207,211,216);fill-opacity:0.4;"/>
                    </g>
                    <g transform="matrix(1.45031,0.0790111,-1.04932,0.124119,-554.497,108.246)">
                        <rect x="839.284" y="114.059" width="624.203" height="62.282" style="fill:rgb(207,211,216);fill-opacity:0.2;"/>
                    </g>
                    <g transform="matrix(1.45031,0.0790111,-1.04932,0.124119,-554.497,108.246)">
                        <rect x="839.284" y="114.059" width="624.203" height="62.282" style="fill:rgb(207,211,216);fill-opacity:0.2;"/>
                    </g>
                    <g transform="matrix(1.45031,0.0790111,-0.589474,0.0697256,-833.579,141.257)">
                        <rect x="839.284" y="114.059" width="624.203" height="62.282" style="fill:rgb(207,211,216);fill-opacity:0.2;"/>
                    </g>
                    <g transform="matrix(1.45031,0.0790111,-1.40921,0.166687,-615.558,115.468)">
                        <rect x="839.284" y="114.059" width="624.203" height="62.282" style="fill:rgb(207,211,216);fill-opacity:0.2;"/>
                    </g>
                    <g transform="matrix(-1.33893,0.577449,0.891757,-0.580961,2203.47,-231.246)">
                        <rect x="839.284" y="114.059" width="624.203" height="62.282" style="fill:rgb(136,142,149);fill-opacity:0.1;"/>
                    </g>
                    <g transform="matrix(-1.33893,0.577449,0.891757,-0.580961,2203.47,-231.246)">
                        <rect x="839.284" y="114.059" width="624.203" height="62.282" style="fill:rgb(136,142,149);fill-opacity:0.1;"/>
                    </g>
                    <g transform="matrix(-1.33893,0.577449,0.500958,-0.326364,2440.65,-385.76)">
                        <rect x="839.284" y="114.059" width="624.203" height="62.282" style="fill:rgb(136,142,149);fill-opacity:0.1;"/>
                    </g>
                    <g transform="matrix(-1.33893,0.577449,1.1976,-0.780211,2255.37,-265.053)">
                        <rect x="839.284" y="114.059" width="624.203" height="62.282" style="fill:rgb(136,142,149);fill-opacity:0.1;"/>
                    </g>
                    <g transform="matrix(-1.35975,-0.523709,1.03701,0.206049,2192.65,848.089)">
                        <rect x="839.284" y="114.059" width="624.203" height="62.282" style="fill:rgb(136,142,149);fill-opacity:0.1;"/>
                    </g>
                    <g transform="matrix(-1.35975,-0.523709,1.03701,0.206049,2192.65,848.089)">
                        <rect x="839.284" y="114.059" width="624.203" height="62.282" style="fill:rgb(136,142,149);fill-opacity:0.1;"/>
                    </g>
                    <g transform="matrix(-1.35975,-0.523709,0.582558,0.115751,2468.46,902.891)">
                        <rect x="839.284" y="114.059" width="624.203" height="62.282" style="fill:rgb(136,142,149);fill-opacity:0.1;"/>
                    </g>
                    <g transform="matrix(-1.35975,-0.523709,1.39267,0.276716,2253,860.079)">
                        <rect x="839.284" y="114.059" width="624.203" height="62.282" style="fill:rgb(136,142,149);fill-opacity:0.1;"/>
                    </g>
                    <g transform="matrix(-1.35975,-0.523709,1.03701,0.206049,2393.4,809.211)">
                        <rect x="839.284" y="114.059" width="624.203" height="62.282" style="fill:rgb(136,142,149);fill-opacity:0.1;"/>
                    </g>
                    <g transform="matrix(-1.35975,-0.523709,1.03701,0.206049,2393.4,809.211)">
                        <rect x="839.284" y="114.059" width="624.203" height="62.282" style="fill:rgb(136,142,149);fill-opacity:0.1;"/>
                    </g>
                    <g transform="matrix(-1.35975,-0.523709,0.582558,0.115751,2669.2,864.012)">
                        <rect x="839.284" y="114.059" width="624.203" height="62.282" style="fill:rgb(136,142,149);fill-opacity:0.1;"/>
                    </g>
                    <g transform="matrix(-1.35975,-0.523709,1.39267,0.276716,2453.74,821.201)">
                        <rect x="839.284" y="114.059" width="624.203" height="62.282" style="fill:rgb(136,142,149);fill-opacity:0.1;"/>
                    </g>
                    <g transform="matrix(-1.35975,-0.523709,1.03701,0.206049,2224.86,822.044)">
                        <rect x="839.284" y="114.059" width="624.203" height="62.282" style="fill:rgb(207,211,216);fill-opacity:0.4;"/>
                    </g>
                    <g transform="matrix(-1.35975,-0.523709,1.03701,0.206049,2224.86,822.044)">
                        <rect x="839.284" y="114.059" width="624.203" height="62.282" style="fill:rgb(207,211,216);fill-opacity:0.4;"/>
                    </g>
                    <g transform="matrix(-1.35975,-0.523709,0.582558,0.115751,2500.67,876.845)">
                        <rect x="839.284" y="114.059" width="624.203" height="62.282" style="fill:rgb(207,211,216);fill-opacity:0.4;"/>
                    </g>
                    <g transform="matrix(-1.35975,-0.523709,1.39267,0.276716,2285.2,834.034)">
                        <rect x="839.284" y="114.059" width="624.203" height="62.282" style="fill:rgb(207,211,216);fill-opacity:0.4;"/>
                    </g>
                    <g transform="matrix(1.24268,0.0933641,-0.0729666,1.02282,-464.191,-70.0082)">
                        <rect x="839.284" y="114.059" width="624.203" height="62.282" style="fill:rgb(207,211,216);fill-opacity:0.5;"/>
                    </g>
                    <g transform="matrix(0.173158,1.78628e-18,-1.23253e-18,0.250955,918.938,226.843)">
                        <path d="M1241.9,45.868C1270.6,45.868 1295.79,61.051 1309.86,83.817C1317.39,95.997 1321.74,110.348 1321.74,125.706C1321.74,147.974 1312.6,168.126 1297.87,182.612C1283.46,196.791 1263.69,205.544 1241.9,205.544C1197.83,205.544 1162.06,169.77 1162.06,125.706C1162.06,95.29 1179.11,68.823 1204.16,55.347C1215.4,49.3 1228.25,45.868 1241.9,45.868Z" style="fill:rgb(171,180,192);"/>
                        <clipPath id="_clip2">
                            <path d="M1241.9,45.868C1270.6,45.868 1295.79,61.051 1309.86,83.817C1317.39,95.997 1321.74,110.348 1321.74,125.706C1321.74,147.974 1312.6,168.126 1297.87,182.612C1283.46,196.791 1263.69,205.544 1241.9,205.544C1197.83,205.544 1162.06,169.77 1162.06,125.706C1162.06,95.29 1179.11,68.823 1204.16,55.347C1215.4,49.3 1228.25,45.868 1241.9,45.868Z"/>
                        </clipPath>
                        <g clip-path="url(#_clip2)">
                            <g transform="matrix(1.37656,1.03298,-0.586357,0.781387,-386.035,-1247.91)">
                                <path d="M1241.9,45.868C1270.6,45.868 1295.79,61.051 1309.86,83.817C1317.39,95.997 1321.74,110.348 1321.74,125.706C1321.74,147.974 1312.6,168.126 1297.87,182.612C1283.46,196.791 1263.69,205.544 1241.9,205.544C1197.83,205.544 1162.06,169.77 1162.06,125.706C1162.06,95.29 1179.11,68.823 1204.16,55.347C1215.4,49.3 1228.25,45.868 1241.9,45.868Z" style="fill:rgb(136,142,149);"/>
                            </g>
                            <g transform="matrix(0.776397,0.582612,-0.586357,0.781387,377.513,-728.422)">
                                <path d="M1241.9,45.868C1270.6,45.868 1295.79,61.051 1309.86,83.817C1317.39,95.997 1321.74,110.348 1321.74,125.706C1321.74,147.974 1312.6,168.126 1297.87,182.612C1283.46,196.791 1263.69,205.544 1241.9,205.544C1197.83,205.544 1162.06,169.77 1162.06,125.706C1162.06,95.29 1179.11,68.823 1204.16,55.347C1215.4,49.3 1228.25,45.868 1241.9,45.868Z" style="fill:rgb(171,180,192);"/>
                            </g>
                            <g transform="matrix(0.751417,0.563867,-0.586357,0.781387,453.011,-752.621)">
                                <path d="M1241.9,45.868C1270.6,45.868 1295.79,61.051 1309.86,83.817C1317.39,95.997 1321.74,110.348 1321.74,125.706C1321.74,147.974 1312.6,168.126 1297.87,182.612C1283.46,196.791 1263.69,205.544 1241.9,205.544C1197.83,205.544 1162.06,169.77 1162.06,125.706C1162.06,95.29 1179.11,68.823 1204.16,55.347C1215.4,49.3 1228.25,45.868 1241.9,45.868Z" style="fill:rgb(207,211,216);"/>
                            </g>
                        </g>
                        <path d="M1241.9,45.868C1270.6,45.868 1295.79,61.051 1309.86,83.817C1317.39,95.997 1321.74,110.348 1321.74,125.706C1321.74,147.974 1312.6,168.126 1297.87,182.612C1283.46,196.791 1263.69,205.544 1241.9,205.544C1197.83,205.544 1162.06,169.77 1162.06,125.706C1162.06,95.29 1179.11,68.823 1204.16,55.347C1215.4,49.3 1228.25,45.868 1241.9,45.868Z" style="fill:none;stroke:black;stroke-width:15.55px;"/>
                    </g>
                    <g transform="matrix(0.173158,1.78628e-18,-1.23253e-18,0.250955,465.154,226.843)">
                        <path d="M1241.9,45.868C1270.6,45.868 1295.79,61.051 1309.86,83.817C1317.39,95.997 1321.74,110.348 1321.74,125.706C1321.74,147.974 1312.6,168.126 1297.87,182.612C1283.46,196.791 1263.69,205.544 1241.9,205.544C1197.83,205.544 1162.06,169.77 1162.06,125.706C1162.06,95.29 1179.11,68.823 1204.16,55.347C1215.4,49.3 1228.25,45.868 1241.9,45.868Z" style="fill:rgb(171,180,192);"/>
                        <clipPath id="_clip3">
                            <path d="M1241.9,45.868C1270.6,45.868 1295.79,61.051 1309.86,83.817C1317.39,95.997 1321.74,110.348 1321.74,125.706C1321.74,147.974 1312.6,168.126 1297.87,182.612C1283.46,196.791 1263.69,205.544 1241.9,205.544C1197.83,205.544 1162.06,169.77 1162.06,125.706C1162.06,95.29 1179.11,68.823 1204.16,55.347C1215.4,49.3 1228.25,45.868 1241.9,45.868Z"/>
                        </clipPath>
                        <g clip-path="url(#_clip3)">
                            <g transform="matrix(1.37656,1.03298,-0.586357,0.781387,-386.035,-1247.91)">
                                <path d="M1241.9,45.868C1270.6,45.868 1295.79,61.051 1309.86,83.817C1317.39,95.997 1321.74,110.348 1321.74,125.706C1321.74,147.974 1312.6,168.126 1297.87,182.612C1283.46,196.791 1263.69,205.544 1241.9,205.544C1197.83,205.544 1162.06,169.77 1162.06,125.706C1162.06,95.29 1179.11,68.823 1204.16,55.347C1215.4,49.3 1228.25,45.868 1241.9,45.868Z" style="fill:rgb(136,142,149);"/>
                            </g>
                            <g transform="matrix(0.776397,0.582612,-0.586357,0.781387,377.513,-728.422)">
                                <path d="M1241.9,45.868C1270.6,45.868 1295.79,61.051 1309.86,83.817C1317.39,95.997 1321.74,110.348 1321.74,125.706C1321.74,147.974 1312.6,168.126 1297.87,182.612C1283.46,196.791 1263.69,205.544 1241.9,205.544C1197.83,205.544 1162.06,169.77 1162.06,125.706C1162.06,95.29 1179.11,68.823 1204.16,55.347C1215.4,49.3 1228.25,45.868 1241.9,45.868Z" style="fill:rgb(171,180,192);"/>
                            </g>
                            <g transform="matrix(0.751417,0.563867,-0.586357,0.781387,453.011,-752.621)">
                                <path d="M1241.9,45.868C1270.6,45.868 1295.79,61.051 1309.86,83.817C1317.39,95.997 1321.74,110.348 1321.74,125.706C1321.74,147.974 1312.6,168.126 1297.87,182.612C1283.46,196.791 1263.69,205.544 1241.9,205.544C1197.83,205.544 1162.06,169.77 1162.06,125.706C1162.06,95.29 1179.11,68.823 1204.16,55.347C1215.4,49.3 1228.25,45.868 1241.9,45.868Z" style="fill:rgb(207,211,216);"/>
                            </g>
                        </g>
                        <path d="M1241.9,45.868C1270.6,45.868 1295.79,61.051 1309.86,83.817C1317.39,95.997 1321.74,110.348 1321.74,125.706C1321.74,147.974 1312.6,168.126 1297.87,182.612C1283.46,196.791 1263.69,205.544 1241.9,205.544C1197.83,205.544 1162.06,169.77 1162.06,125.706C1162.06,95.29 1179.11,68.823 1204.16,55.347C1215.4,49.3 1228.25,45.868 1241.9,45.868Z" style="fill:none;stroke:black;stroke-width:15.55px;"/>
                    </g>
                </g>
                <path d="M1146.52,195.873C1146.52,218.195 1164.64,236.316 1186.96,236.316L1186.96,281.814C1164.64,281.814 1146.52,299.935 1146.52,322.257L677.373,322.257C677.373,299.936 659.252,281.814 636.931,281.814L636.931,236.316C659.252,236.316 677.373,218.194 677.373,195.873L1146.52,195.873Z" style="fill:none;stroke:black;stroke-width:3.13px;"/>
            </g>
        </g>
    </g>
</svg>
