<?xml version="1.0" encoding="UTF-8" standalone="no"?>
<!DOCTYPE svg PUBLIC "-//W3C//DTD SVG 1.1//EN" "http://www.w3.org/Graphics/SVG/1.1/DTD/svg11.dtd">
<svg width="100%" height="100%" viewBox="0 0 510 246" version="1.1" xmlns="http://www.w3.org/2000/svg" xmlns:xlink="http://www.w3.org/1999/xlink" xml:space="preserve" xmlns:serif="http://www.serif.com/" style="fill-rule:evenodd;clip-rule:evenodd;stroke-linecap:round;stroke-linejoin:round;stroke-miterlimit:1.5;">
    <g transform="matrix(1,0,0,1,-4714,-1247)">
        <g transform="matrix(1,0,0,1,4660.99,1186.87)">
            <g transform="matrix(1,0,0,1,-1539.4,-438.023)">
                <g id="btn_n_h_long">
                    <g id="btn_normal">
                        <g transform="matrix(1.09697,-5.40848e-32,5.40848e-32,1.09697,533.929,-330.381)">
                            <path d="M1067.34,766.82C1067.98,766.82 1313.85,766.827 1314.49,766.841C1369.54,768.04 1420.74,820.485 1422.56,875.587C1424.6,937.347 1370.47,984.614 1313.24,978.386C1312.4,978.294 1066.34,978.191 1065.49,978.076C1010.23,970.547 964.98,929.528 964.98,873.755C964.98,817.981 1011.57,766.82 1067.34,766.82Z" style="fill-opacity:0.35;"/>
                        </g>
                        <g transform="matrix(1,-4.93038e-32,4.93038e-32,1,647.228,-261.882)">
                            <path d="M1067.34,778.581C1068.64,778.581 1344.93,779.605 1346.21,779.653C1362.05,780.251 1376.95,784.498 1390.11,791.578C1421.82,808.636 1443.4,842.136 1443.4,880.635C1443.4,935.475 1399.62,980.171 1345.13,981.652C1344.21,981.677 1068.28,980.69 1067.34,980.69C1011.57,980.69 966.287,935.409 966.287,879.635C966.287,823.862 1011.57,778.581 1067.34,778.581Z" style="fill:rgb(171,180,192);"/>
                            <clipPath id="_clip1">
                                <path d="M1067.34,778.581C1068.64,778.581 1344.93,779.605 1346.21,779.653C1362.05,780.251 1376.95,784.498 1390.11,791.578C1421.82,808.636 1443.4,842.136 1443.4,880.635C1443.4,935.475 1399.62,980.171 1345.13,981.652C1344.21,981.677 1068.28,980.69 1067.34,980.69C1011.57,980.69 966.287,935.409 966.287,879.635C966.287,823.862 1011.57,778.581 1067.34,778.581Z"/>
                            </clipPath>
                            <g clip-path="url(#_clip1)">
                                <g transform="matrix(0.641505,3.16287e-32,-4.41302e-32,0.895066,653.207,367.022)">
                                    <path d="M1416.61,143.544L1176.83,119.484L941.759,159.429L820.18,143.544L554.426,121.671L392.658,143.544L413.438,232.505L364.613,290.697L360.942,339.584L391.495,371.503L391.782,506.948L366.76,599.934L385.744,766.032L368.411,826.411L365.279,887.325L451.716,920.051L657.282,934.268L960,898.177L1230.28,929.894L1416.61,920.051L1429.94,876.878L1404.65,808.667L1429.54,733.404L1436.63,661.226L1400.94,552.9L1435.08,446.863L1429.92,380.136L1403.51,291.51L1431.92,232.511L1416.61,143.544Z" style="fill:url(#_Linear2);"/>
                                    <clipPath id="_clip3">
                                        <path d="M1416.61,143.544L1176.83,119.484L941.759,159.429L820.18,143.544L554.426,121.671L392.658,143.544L413.438,232.505L364.613,290.697L360.942,339.584L391.495,371.503L391.782,506.948L366.76,599.934L385.744,766.032L368.411,826.411L365.279,887.325L451.716,920.051L657.282,934.268L960,898.177L1230.28,929.894L1416.61,920.051L1429.94,876.878L1404.65,808.667L1429.54,733.404L1436.63,661.226L1400.94,552.9L1435.08,446.863L1429.92,380.136L1403.51,291.51L1431.92,232.511L1416.61,143.544Z"/>
                                    </clipPath>
                                    <g clip-path="url(#_clip3)">
                                        <g transform="matrix(-0.994819,-0.101667,0.101667,-0.994819,1724.2,662.575)">
                                            <path d="M335.689,156.856C485.168,139.252 635.541,121.417 933.959,65.261C1098.81,53.579 1267.29,47.052 1468.49,87.134C1591.31,169.975 1681.44,251.783 1499.93,325.007C1393.27,300.373 1310.22,273.676 960,270.324C825.308,272.442 680.48,264.648 504.693,226.577C417.686,211.609 329.535,194.869 283.225,242.982C175.181,212.46 184.586,183.635 335.689,156.856Z" style="fill:rgb(139,82,45);fill-opacity:0.35;"/>
                                        </g>
                                        <g transform="matrix(0.998453,-0.0556107,0.0279945,0.502623,-170.078,551.486)">
                                            <path d="M335.689,156.856C485.168,139.252 635.541,121.417 933.959,65.261C1098.81,53.579 1267.29,47.052 1468.49,87.134C1591.31,169.975 1681.44,251.783 1499.93,325.007C1393.27,300.373 1310.22,273.676 960,270.324C825.308,272.442 680.48,264.648 504.693,226.577C417.686,211.609 329.535,194.869 283.225,242.982C175.181,212.46 184.586,183.635 335.689,156.856Z" style="fill:rgb(139,82,45);fill-opacity:0.35;"/>
                                        </g>
                                        <g transform="matrix(-0.999983,-0.00575595,0.00372369,-0.646918,1865.96,860.774)">
                                            <path d="M335.689,156.856C485.168,139.252 635.541,121.417 933.959,65.261C1098.81,53.579 1267.29,47.052 1468.49,87.134C1591.31,169.975 1681.44,251.783 1499.93,325.007C1393.27,300.373 1310.22,273.676 960,270.324C825.308,272.442 680.48,264.648 504.693,226.577C417.686,211.609 329.535,194.869 283.225,242.982C175.181,212.46 184.586,183.635 335.689,156.856Z" style="fill:rgb(139,82,45);fill-opacity:0.35;"/>
                                        </g>
                                        <g transform="matrix(1.03645,0,0,1,-32.7655,0)">
                                            <path d="M442.802,418.203C501.8,428.553 562.494,437.274 641.866,428.046C696.078,412.321 766.593,407.441 850.756,411.641C943.775,425.556 998.629,424.154 1042.15,418.203C1131.85,405.703 1206.73,417.512 1278.38,434.608C1327.65,444.709 1369.51,451.393 1407.43,449.92" style="fill:rgb(94,70,54);stroke:rgb(71,50,38);stroke-width:5px;"/>
                                        </g>
                                        <g transform="matrix(1.03645,0,0,1,-32.7655,0)">
                                            <path d="M427.506,491.479C577.412,513.507 663.85,512.27 711.86,496.947C779.883,484.663 835.02,504.343 920.607,507.884C998.089,524.76 1050.53,535.175 1095.74,526.876C1182.14,518.346 1216.8,527.027 1263.07,506.79C1307.26,497.711 1338.7,511.406 1369.16,526.876" style="fill:rgb(94,70,54);stroke:rgb(71,50,38);stroke-width:5px;"/>
                                        </g>
                                        <g transform="matrix(1.03645,0,0,1,-32.7655,0)">
                                            <path d="M411.101,540C422.999,547.586 466.328,551.807 659.364,540C785.455,542.229 867.916,549.029 938.25,557.099C1028.24,571.074 1106.28,577.426 1161.36,569.13C1222.44,559.093 1282.76,555.78 1340.72,573.504" style="fill:rgb(94,70,54);stroke:rgb(71,50,38);stroke-width:5px;"/>
                                        </g>
                                        <g transform="matrix(1.03645,0,0,1,-32.7655,0)">
                                            <path d="M390.322,594.284C456.619,595.772 516.831,603.991 557.653,633.656C604.435,651.164 567.595,618.109 656.083,613.97C794.559,591.47 914.478,606.094 1026.84,635.843C1139.49,661.186 1208.26,654.456 1265.26,639.124C1281.45,622.835 1339.21,632.624 1407.43,648.967" style="fill:rgb(94,70,54);stroke:rgb(71,50,38);stroke-width:5px;"/>
                                        </g>
                                        <g transform="matrix(1.03645,0,0,1,-32.7655,0)">
                                            <path d="M411.101,720.056C461.783,732.884 524.626,733.476 601.4,720.056C644.479,706.832 708.192,700.651 821.227,711.307C916.093,730.271 1016.48,755.262 1048.71,705.838C1077.75,683.982 1140.35,686.863 1224.79,705.838C1292.53,730.635 1295.99,695.053 1369.16,720.056" style="fill:rgb(94,70,54);stroke:rgb(71,50,38);stroke-width:5px;"/>
                                        </g>
                                    </g>
                                    <path d="M1416.61,143.544L1176.83,119.484L941.759,159.429L820.18,143.544L554.426,121.671L392.658,143.544L413.438,232.505L364.613,290.697L360.942,339.584L391.495,371.503L391.782,506.948L366.76,599.934L385.744,766.032L368.411,826.411L365.279,887.325L451.716,920.051L657.282,934.268L960,898.177L1230.28,929.894L1416.61,920.051L1429.94,876.878L1404.65,808.667L1429.54,733.404L1436.63,661.226L1400.94,552.9L1435.08,446.863L1429.92,380.136L1403.51,291.51L1431.92,232.511L1416.61,143.544Z" style="fill:none;stroke:black;stroke-width:5px;"/>
                                </g>
                                <g transform="matrix(1,4.93038e-32,-4.93038e-32,1,-3725.14,-784.474)">
                                    <path d="M4738.23,1578.86C4728.22,1594.54 4722.42,1613.15 4722.42,1633.11C4722.42,1688.88 4767.7,1734.16 4823.48,1734.16C4824.41,1734.16 5100.34,1735.15 5101.27,1735.13C5120.17,1734.61 5137.79,1728.9 5152.73,1719.36C5135.25,1746.76 5104.93,1765.18 5070.27,1766.13C5069.34,1766.15 4793.41,1765.16 4792.48,1765.16C4736.7,1765.16 4691.42,1719.88 4691.42,1664.11C4691.42,1628.3 4710.1,1596.81 4738.23,1578.86Z" style="fill-opacity:0.15;"/>
                                </g>
                                <g transform="matrix(1,4.93038e-32,-4.93038e-32,1,-3725.14,-784.474)">
                                    <path d="M4705.33,1612.96C4722.9,1583.11 4755.36,1563.06 4792.48,1563.06C4793.77,1563.06 5070.06,1564.08 5071.35,1564.13C5087.18,1564.73 5102.09,1568.97 5115.25,1576.05C5146.96,1593.11 5168.53,1626.61 5168.53,1665.11C5168.53,1702.22 5148.48,1734.69 5118.63,1752.26C5127.47,1737.25 5132.53,1719.77 5132.53,1701.11C5132.53,1662.61 5110.96,1629.11 5079.25,1612.05C5066.09,1604.97 5051.18,1600.73 5035.35,1600.13C5034.06,1600.08 4757.77,1599.06 4756.48,1599.06C4737.82,1599.06 4720.33,1604.12 4705.33,1612.96Z" style="fill:rgb(255,217,96);fill-opacity:0.18;"/>
                                </g>
                            </g>
                            <path d="M1067.34,778.581C1068.64,778.581 1344.93,779.605 1346.21,779.653C1362.05,780.251 1376.95,784.498 1390.11,791.578C1421.82,808.636 1443.4,842.136 1443.4,880.635C1443.4,935.475 1399.62,980.171 1345.13,981.652C1344.21,981.677 1068.28,980.69 1067.34,980.69C1011.57,980.69 966.287,935.409 966.287,879.635C966.287,823.862 1011.57,778.581 1067.34,778.581Z" style="fill:none;stroke:black;stroke-width:5px;"/>
                        </g>
                        <path d="M1714.57,505.906C1714.79,505.906 1715.23,505.908 1715.23,505.908C1715.23,505.908 1983.58,505.91 1983.75,505.912C2001.46,506.096 2018.19,510.404 2033.02,517.921C2069.43,536.375 2094.42,574.17 2094.42,617.754C2094.42,679.209 2044.75,729.154 1983.39,729.598C1983.23,729.599 1714.9,729.601 1714.9,729.601C1714.9,729.601 1714.68,729.601 1714.57,729.601C1652.84,729.601 1602.72,679.484 1602.72,617.754C1602.72,556.023 1652.84,505.906 1714.57,505.906ZM1714.57,522.627C1714.8,522.627 1715.27,522.629 1715.27,522.629C1715.27,522.629 1983.65,522.632 1983.85,522.635C2035.76,523.321 2077.7,565.679 2077.7,617.754C2077.7,670.009 2035.47,712.48 1983.31,712.878C1983.19,712.879 1714.94,712.88 1714.94,712.88C1714.94,712.88 1714.69,712.881 1714.57,712.881C1662.07,712.881 1619.44,670.256 1619.44,617.754C1619.44,565.252 1662.07,522.627 1714.57,522.627Z" style="fill:rgb(171,180,192);"/>
                        <clipPath id="_clip4">
                            <path d="M1714.57,505.906C1714.79,505.906 1715.23,505.908 1715.23,505.908C1715.23,505.908 1983.58,505.91 1983.75,505.912C2001.46,506.096 2018.19,510.404 2033.02,517.921C2069.43,536.375 2094.42,574.17 2094.42,617.754C2094.42,679.209 2044.75,729.154 1983.39,729.598C1983.23,729.599 1714.9,729.601 1714.9,729.601C1714.9,729.601 1714.68,729.601 1714.57,729.601C1652.84,729.601 1602.72,679.484 1602.72,617.754C1602.72,556.023 1652.84,505.906 1714.57,505.906ZM1714.57,522.627C1714.8,522.627 1715.27,522.629 1715.27,522.629C1715.27,522.629 1983.65,522.632 1983.85,522.635C2035.76,523.321 2077.7,565.679 2077.7,617.754C2077.7,670.009 2035.47,712.48 1983.31,712.878C1983.19,712.879 1714.94,712.88 1714.94,712.88C1714.94,712.88 1714.69,712.881 1714.57,712.881C1662.07,712.881 1619.44,670.256 1619.44,617.754C1619.44,565.252 1662.07,522.627 1714.57,522.627Z"/>
                        </clipPath>
                        <g clip-path="url(#_clip4)">
                            <g transform="matrix(1,0,0,1,-3075.91,-1048.36)">
                                <path d="M4715.43,1583.06C4696.35,1603.13 4684.63,1630.26 4684.63,1660.11C4684.63,1721.84 4734.75,1771.96 4796.48,1771.96C4796.59,1771.96 4796.81,1771.96 4796.81,1771.96C4796.81,1771.96 5065.14,1771.95 5065.3,1771.95C5094.83,1771.74 5121.64,1760.06 5141.52,1741.16C5121.32,1762.4 5092.86,1775.73 5061.3,1775.95C5061.14,1775.95 4792.81,1775.96 4792.81,1775.96C4792.81,1775.96 4792.59,1775.96 4792.48,1775.96C4730.75,1775.96 4680.63,1725.84 4680.63,1664.11C4680.63,1632.23 4694,1603.44 4715.43,1583.06ZM4727.26,1594.89C4744.61,1576.48 4769.21,1564.98 4796.48,1564.98C4796.71,1564.98 4797.17,1564.99 4797.17,1564.99C4797.17,1564.99 5065.56,1564.99 5065.76,1564.99C5117.67,1565.68 5159.61,1608.04 5159.61,1660.11C5159.61,1687.38 5148.11,1711.98 5129.7,1729.33C5145.76,1712.3 5155.61,1689.34 5155.61,1664.11C5155.61,1612.04 5113.67,1569.68 5061.76,1568.99C5061.56,1568.99 4793.17,1568.99 4793.17,1568.99C4793.17,1568.99 4792.71,1568.98 4792.48,1568.98C4767.24,1568.98 4744.29,1578.83 4727.26,1594.89Z" style="fill:rgb(136,142,149);"/>
                            </g>
                            <g transform="matrix(1,0,0,1,-3079.91,-1044.36)">
                                <path d="M4722.77,1599.4C4707,1616.38 4697.35,1639.13 4697.35,1664.11C4697.35,1716.61 4739.98,1759.24 4792.48,1759.24C4792.6,1759.24 4792.85,1759.24 4792.85,1759.24C4792.85,1759.24 5061.1,1759.24 5061.22,1759.23C5085.91,1759.05 5108.37,1749.43 5125.18,1733.82C5107.96,1752.36 5083.44,1764.03 5056.22,1764.23C5056.1,1764.24 4787.85,1764.24 4787.85,1764.24C4787.85,1764.24 4787.6,1764.24 4787.48,1764.24C4734.98,1764.24 4692.35,1721.61 4692.35,1669.11C4692.35,1641.59 4704.07,1616.78 4722.77,1599.4ZM4710.94,1587.58C4731.35,1565.84 4760.34,1552.26 4792.48,1552.26C4792.7,1552.26 4793.14,1552.26 4793.14,1552.26C4793.14,1552.26 5061.49,1552.27 5061.66,1552.27C5079.37,1552.45 5096.1,1556.76 5110.93,1564.28C5147.34,1582.73 5172.33,1620.53 5172.33,1664.11C5172.33,1696.25 5158.74,1725.24 5137.01,1745.64C5155.81,1725.63 5167.33,1698.7 5167.33,1669.11C5167.33,1625.53 5142.34,1587.73 5105.93,1569.28C5091.1,1561.76 5074.37,1557.45 5056.66,1557.27C5056.49,1557.27 4788.14,1557.26 4788.14,1557.26C4788.14,1557.26 4787.7,1557.26 4787.48,1557.26C4757.88,1557.26 4730.96,1568.78 4710.94,1587.58Z" style="fill:rgb(207,211,216);"/>
                            </g>
                        </g>
                        <path d="M1714.57,505.906C1714.79,505.906 1715.23,505.908 1715.23,505.908C1715.23,505.908 1983.58,505.91 1983.75,505.912C2001.46,506.096 2018.19,510.404 2033.02,517.921C2069.43,536.375 2094.42,574.17 2094.42,617.754C2094.42,679.209 2044.75,729.154 1983.39,729.598C1983.23,729.599 1714.9,729.601 1714.9,729.601C1714.9,729.601 1714.68,729.601 1714.57,729.601C1652.84,729.601 1602.72,679.484 1602.72,617.754C1602.72,556.023 1652.84,505.906 1714.57,505.906ZM1714.57,522.627C1714.8,522.627 1715.27,522.629 1715.27,522.629C1715.27,522.629 1983.65,522.632 1983.85,522.635C2035.76,523.321 2077.7,565.679 2077.7,617.754C2077.7,670.009 2035.47,712.48 1983.31,712.878C1983.19,712.879 1714.94,712.88 1714.94,712.88C1714.94,712.88 1714.69,712.881 1714.57,712.881C1662.07,712.881 1619.44,670.256 1619.44,617.754C1619.44,565.252 1662.07,522.627 1714.57,522.627Z" style="fill:none;stroke:black;stroke-width:5px;"/>
                        <g transform="matrix(0.165196,1.17585e-18,-1.17585e-18,0.165196,1509.41,494.2)">
                            <path d="M1241.9,45.868C1270.6,45.868 1295.79,61.051 1309.86,83.817C1317.39,95.997 1321.74,110.348 1321.74,125.706C1321.74,147.974 1312.6,168.126 1297.87,182.612C1283.46,196.791 1263.69,205.544 1241.9,205.544C1197.83,205.544 1162.06,169.77 1162.06,125.706C1162.06,95.29 1179.11,68.823 1204.16,55.347C1215.4,49.3 1228.25,45.868 1241.9,45.868Z" style="fill:rgb(171,180,192);"/>
                            <clipPath id="_clip5">
                                <path d="M1241.9,45.868C1270.6,45.868 1295.79,61.051 1309.86,83.817C1317.39,95.997 1321.74,110.348 1321.74,125.706C1321.74,147.974 1312.6,168.126 1297.87,182.612C1283.46,196.791 1263.69,205.544 1241.9,205.544C1197.83,205.544 1162.06,169.77 1162.06,125.706C1162.06,95.29 1179.11,68.823 1204.16,55.347C1215.4,49.3 1228.25,45.868 1241.9,45.868Z"/>
                            </clipPath>
                            <g clip-path="url(#_clip5)">
                                <g transform="matrix(1.37656,1.03298,-0.586357,0.781387,-386.035,-1247.91)">
                                    <path d="M1241.9,45.868C1270.6,45.868 1295.79,61.051 1309.86,83.817C1317.39,95.997 1321.74,110.348 1321.74,125.706C1321.74,147.974 1312.6,168.126 1297.87,182.612C1283.46,196.791 1263.69,205.544 1241.9,205.544C1197.83,205.544 1162.06,169.77 1162.06,125.706C1162.06,95.29 1179.11,68.823 1204.16,55.347C1215.4,49.3 1228.25,45.868 1241.9,45.868Z" style="fill:rgb(136,142,149);"/>
                                </g>
                                <g transform="matrix(0.776397,0.582612,-0.586357,0.781387,377.513,-728.422)">
                                    <path d="M1241.9,45.868C1270.6,45.868 1295.79,61.051 1309.86,83.817C1317.39,95.997 1321.74,110.348 1321.74,125.706C1321.74,147.974 1312.6,168.126 1297.87,182.612C1283.46,196.791 1263.69,205.544 1241.9,205.544C1197.83,205.544 1162.06,169.77 1162.06,125.706C1162.06,95.29 1179.11,68.823 1204.16,55.347C1215.4,49.3 1228.25,45.868 1241.9,45.868Z" style="fill:rgb(171,180,192);"/>
                                </g>
                                <g transform="matrix(0.751417,0.563867,-0.586357,0.781387,453.011,-752.621)">
                                    <path d="M1241.9,45.868C1270.6,45.868 1295.79,61.051 1309.86,83.817C1317.39,95.997 1321.74,110.348 1321.74,125.706C1321.74,147.974 1312.6,168.126 1297.87,182.612C1283.46,196.791 1263.69,205.544 1241.9,205.544C1197.83,205.544 1162.06,169.77 1162.06,125.706C1162.06,95.29 1179.11,68.823 1204.16,55.347C1215.4,49.3 1228.25,45.868 1241.9,45.868Z" style="fill:rgb(207,211,216);"/>
                                </g>
                            </g>
                            <path d="M1241.9,45.868C1270.6,45.868 1295.79,61.051 1309.86,83.817C1317.39,95.997 1321.74,110.348 1321.74,125.706C1321.74,147.974 1312.6,168.126 1297.87,182.612C1283.46,196.791 1263.69,205.544 1241.9,205.544C1197.83,205.544 1162.06,169.77 1162.06,125.706C1162.06,95.29 1179.11,68.823 1204.16,55.347C1215.4,49.3 1228.25,45.868 1241.9,45.868Z" style="fill:none;stroke:black;stroke-width:30.27px;"/>
                        </g>
                        <g transform="matrix(0.165196,1.17585e-18,-1.17585e-18,0.165196,1509.41,702.056)">
                            <path d="M1241.9,45.868C1270.6,45.868 1295.79,61.051 1309.86,83.817C1317.39,95.997 1321.74,110.348 1321.74,125.706C1321.74,147.974 1312.6,168.126 1297.87,182.612C1283.46,196.791 1263.69,205.544 1241.9,205.544C1197.83,205.544 1162.06,169.77 1162.06,125.706C1162.06,95.29 1179.11,68.823 1204.16,55.347C1215.4,49.3 1228.25,45.868 1241.9,45.868Z" style="fill:rgb(171,180,192);"/>
                            <clipPath id="_clip6">
                                <path d="M1241.9,45.868C1270.6,45.868 1295.79,61.051 1309.86,83.817C1317.39,95.997 1321.74,110.348 1321.74,125.706C1321.74,147.974 1312.6,168.126 1297.87,182.612C1283.46,196.791 1263.69,205.544 1241.9,205.544C1197.83,205.544 1162.06,169.77 1162.06,125.706C1162.06,95.29 1179.11,68.823 1204.16,55.347C1215.4,49.3 1228.25,45.868 1241.9,45.868Z"/>
                            </clipPath>
                            <g clip-path="url(#_clip6)">
                                <g transform="matrix(1.37656,1.03298,-0.586357,0.781387,-386.035,-1247.91)">
                                    <path d="M1241.9,45.868C1270.6,45.868 1295.79,61.051 1309.86,83.817C1317.39,95.997 1321.74,110.348 1321.74,125.706C1321.74,147.974 1312.6,168.126 1297.87,182.612C1283.46,196.791 1263.69,205.544 1241.9,205.544C1197.83,205.544 1162.06,169.77 1162.06,125.706C1162.06,95.29 1179.11,68.823 1204.16,55.347C1215.4,49.3 1228.25,45.868 1241.9,45.868Z" style="fill:rgb(136,142,149);"/>
                                </g>
                                <g transform="matrix(0.776397,0.582612,-0.586357,0.781387,377.513,-728.422)">
                                    <path d="M1241.9,45.868C1270.6,45.868 1295.79,61.051 1309.86,83.817C1317.39,95.997 1321.74,110.348 1321.74,125.706C1321.74,147.974 1312.6,168.126 1297.87,182.612C1283.46,196.791 1263.69,205.544 1241.9,205.544C1197.83,205.544 1162.06,169.77 1162.06,125.706C1162.06,95.29 1179.11,68.823 1204.16,55.347C1215.4,49.3 1228.25,45.868 1241.9,45.868Z" style="fill:rgb(171,180,192);"/>
                                </g>
                                <g transform="matrix(0.751417,0.563867,-0.586357,0.781387,453.011,-752.621)">
                                    <path d="M1241.9,45.868C1270.6,45.868 1295.79,61.051 1309.86,83.817C1317.39,95.997 1321.74,110.348 1321.74,125.706C1321.74,147.974 1312.6,168.126 1297.87,182.612C1283.46,196.791 1263.69,205.544 1241.9,205.544C1197.83,205.544 1162.06,169.77 1162.06,125.706C1162.06,95.29 1179.11,68.823 1204.16,55.347C1215.4,49.3 1228.25,45.868 1241.9,45.868Z" style="fill:rgb(207,211,216);"/>
                                </g>
                            </g>
                            <path d="M1241.9,45.868C1270.6,45.868 1295.79,61.051 1309.86,83.817C1317.39,95.997 1321.74,110.348 1321.74,125.706C1321.74,147.974 1312.6,168.126 1297.87,182.612C1283.46,196.791 1263.69,205.544 1241.9,205.544C1197.83,205.544 1162.06,169.77 1162.06,125.706C1162.06,95.29 1179.11,68.823 1204.16,55.347C1215.4,49.3 1228.25,45.868 1241.9,45.868Z" style="fill:none;stroke:black;stroke-width:30.27px;"/>
                        </g>
                        <g transform="matrix(0.165196,1.17585e-18,-1.17585e-18,0.165196,1405.49,598.128)">
                            <path d="M1241.9,45.868C1270.6,45.868 1295.79,61.051 1309.86,83.817C1317.39,95.997 1321.74,110.348 1321.74,125.706C1321.74,147.974 1312.6,168.126 1297.87,182.612C1283.46,196.791 1263.69,205.544 1241.9,205.544C1197.83,205.544 1162.06,169.77 1162.06,125.706C1162.06,95.29 1179.11,68.823 1204.16,55.347C1215.4,49.3 1228.25,45.868 1241.9,45.868Z" style="fill:rgb(171,180,192);"/>
                            <clipPath id="_clip7">
                                <path d="M1241.9,45.868C1270.6,45.868 1295.79,61.051 1309.86,83.817C1317.39,95.997 1321.74,110.348 1321.74,125.706C1321.74,147.974 1312.6,168.126 1297.87,182.612C1283.46,196.791 1263.69,205.544 1241.9,205.544C1197.83,205.544 1162.06,169.77 1162.06,125.706C1162.06,95.29 1179.11,68.823 1204.16,55.347C1215.4,49.3 1228.25,45.868 1241.9,45.868Z"/>
                            </clipPath>
                            <g clip-path="url(#_clip7)">
                                <g transform="matrix(1.37656,1.03298,-0.586357,0.781387,-386.035,-1247.91)">
                                    <path d="M1241.9,45.868C1270.6,45.868 1295.79,61.051 1309.86,83.817C1317.39,95.997 1321.74,110.348 1321.74,125.706C1321.74,147.974 1312.6,168.126 1297.87,182.612C1283.46,196.791 1263.69,205.544 1241.9,205.544C1197.83,205.544 1162.06,169.77 1162.06,125.706C1162.06,95.29 1179.11,68.823 1204.16,55.347C1215.4,49.3 1228.25,45.868 1241.9,45.868Z" style="fill:rgb(136,142,149);"/>
                                </g>
                                <g transform="matrix(0.776397,0.582612,-0.586357,0.781387,377.513,-728.422)">
                                    <path d="M1241.9,45.868C1270.6,45.868 1295.79,61.051 1309.86,83.817C1317.39,95.997 1321.74,110.348 1321.74,125.706C1321.74,147.974 1312.6,168.126 1297.87,182.612C1283.46,196.791 1263.69,205.544 1241.9,205.544C1197.83,205.544 1162.06,169.77 1162.06,125.706C1162.06,95.29 1179.11,68.823 1204.16,55.347C1215.4,49.3 1228.25,45.868 1241.9,45.868Z" style="fill:rgb(171,180,192);"/>
                                </g>
                                <g transform="matrix(0.751417,0.563867,-0.586357,0.781387,453.011,-752.621)">
                                    <path d="M1241.9,45.868C1270.6,45.868 1295.79,61.051 1309.86,83.817C1317.39,95.997 1321.74,110.348 1321.74,125.706C1321.74,147.974 1312.6,168.126 1297.87,182.612C1283.46,196.791 1263.69,205.544 1241.9,205.544C1197.83,205.544 1162.06,169.77 1162.06,125.706C1162.06,95.29 1179.11,68.823 1204.16,55.347C1215.4,49.3 1228.25,45.868 1241.9,45.868Z" style="fill:rgb(207,211,216);"/>
                                </g>
                            </g>
                            <path d="M1241.9,45.868C1270.6,45.868 1295.79,61.051 1309.86,83.817C1317.39,95.997 1321.74,110.348 1321.74,125.706C1321.74,147.974 1312.6,168.126 1297.87,182.612C1283.46,196.791 1263.69,205.544 1241.9,205.544C1197.83,205.544 1162.06,169.77 1162.06,125.706C1162.06,95.29 1179.11,68.823 1204.16,55.347C1215.4,49.3 1228.25,45.868 1241.9,45.868Z" style="fill:none;stroke:black;stroke-width:30.27px;"/>
                        </g>
                        <g transform="matrix(0.165196,0,0,0.165196,1597.9,493.64)">
                            <path d="M1241.9,45.868C1270.6,45.868 1295.79,61.051 1309.86,83.817C1317.39,95.997 1321.74,110.348 1321.74,125.706C1321.74,147.974 1312.6,168.126 1297.87,182.612C1283.46,196.791 1263.69,205.544 1241.9,205.544C1197.83,205.544 1162.06,169.77 1162.06,125.706C1162.06,95.29 1179.11,68.823 1204.16,55.347C1215.4,49.3 1228.25,45.868 1241.9,45.868Z" style="fill:rgb(171,180,192);"/>
                            <clipPath id="_clip8">
                                <path d="M1241.9,45.868C1270.6,45.868 1295.79,61.051 1309.86,83.817C1317.39,95.997 1321.74,110.348 1321.74,125.706C1321.74,147.974 1312.6,168.126 1297.87,182.612C1283.46,196.791 1263.69,205.544 1241.9,205.544C1197.83,205.544 1162.06,169.77 1162.06,125.706C1162.06,95.29 1179.11,68.823 1204.16,55.347C1215.4,49.3 1228.25,45.868 1241.9,45.868Z"/>
                            </clipPath>
                            <g clip-path="url(#_clip8)">
                                <g transform="matrix(1.37656,1.03298,-0.586357,0.781387,-386.035,-1247.91)">
                                    <path d="M1241.9,45.868C1270.6,45.868 1295.79,61.051 1309.86,83.817C1317.39,95.997 1321.74,110.348 1321.74,125.706C1321.74,147.974 1312.6,168.126 1297.87,182.612C1283.46,196.791 1263.69,205.544 1241.9,205.544C1197.83,205.544 1162.06,169.77 1162.06,125.706C1162.06,95.29 1179.11,68.823 1204.16,55.347C1215.4,49.3 1228.25,45.868 1241.9,45.868Z" style="fill:rgb(136,142,149);"/>
                                </g>
                                <g transform="matrix(0.776397,0.582612,-0.586357,0.781387,377.513,-728.422)">
                                    <path d="M1241.9,45.868C1270.6,45.868 1295.79,61.051 1309.86,83.817C1317.39,95.997 1321.74,110.348 1321.74,125.706C1321.74,147.974 1312.6,168.126 1297.87,182.612C1283.46,196.791 1263.69,205.544 1241.9,205.544C1197.83,205.544 1162.06,169.77 1162.06,125.706C1162.06,95.29 1179.11,68.823 1204.16,55.347C1215.4,49.3 1228.25,45.868 1241.9,45.868Z" style="fill:rgb(171,180,192);"/>
                                </g>
                                <g transform="matrix(0.751417,0.563867,-0.586357,0.781387,453.011,-752.621)">
                                    <path d="M1241.9,45.868C1270.6,45.868 1295.79,61.051 1309.86,83.817C1317.39,95.997 1321.74,110.348 1321.74,125.706C1321.74,147.974 1312.6,168.126 1297.87,182.612C1283.46,196.791 1263.69,205.544 1241.9,205.544C1197.83,205.544 1162.06,169.77 1162.06,125.706C1162.06,95.29 1179.11,68.823 1204.16,55.347C1215.4,49.3 1228.25,45.868 1241.9,45.868Z" style="fill:rgb(207,211,216);"/>
                                </g>
                            </g>
                            <path d="M1241.9,45.868C1270.6,45.868 1295.79,61.051 1309.86,83.817C1317.39,95.997 1321.74,110.348 1321.74,125.706C1321.74,147.974 1312.6,168.126 1297.87,182.612C1283.46,196.791 1263.69,205.544 1241.9,205.544C1197.83,205.544 1162.06,169.77 1162.06,125.706C1162.06,95.29 1179.11,68.823 1204.16,55.347C1215.4,49.3 1228.25,45.868 1241.9,45.868Z" style="fill:none;stroke:black;stroke-width:30.27px;"/>
                        </g>
                        <g transform="matrix(0.165196,1.17585e-18,-1.17585e-18,0.165196,1688,494.2)">
                            <path d="M1241.9,45.868C1270.6,45.868 1295.79,61.051 1309.86,83.817C1317.39,95.997 1321.74,110.348 1321.74,125.706C1321.74,147.974 1312.6,168.126 1297.87,182.612C1283.46,196.791 1263.69,205.544 1241.9,205.544C1197.83,205.544 1162.06,169.77 1162.06,125.706C1162.06,95.29 1179.11,68.823 1204.16,55.347C1215.4,49.3 1228.25,45.868 1241.9,45.868Z" style="fill:rgb(171,180,192);"/>
                            <clipPath id="_clip9">
                                <path d="M1241.9,45.868C1270.6,45.868 1295.79,61.051 1309.86,83.817C1317.39,95.997 1321.74,110.348 1321.74,125.706C1321.74,147.974 1312.6,168.126 1297.87,182.612C1283.46,196.791 1263.69,205.544 1241.9,205.544C1197.83,205.544 1162.06,169.77 1162.06,125.706C1162.06,95.29 1179.11,68.823 1204.16,55.347C1215.4,49.3 1228.25,45.868 1241.9,45.868Z"/>
                            </clipPath>
                            <g clip-path="url(#_clip9)">
                                <g transform="matrix(1.37656,1.03298,-0.586357,0.781387,-386.035,-1247.91)">
                                    <path d="M1241.9,45.868C1270.6,45.868 1295.79,61.051 1309.86,83.817C1317.39,95.997 1321.74,110.348 1321.74,125.706C1321.74,147.974 1312.6,168.126 1297.87,182.612C1283.46,196.791 1263.69,205.544 1241.9,205.544C1197.83,205.544 1162.06,169.77 1162.06,125.706C1162.06,95.29 1179.11,68.823 1204.16,55.347C1215.4,49.3 1228.25,45.868 1241.9,45.868Z" style="fill:rgb(136,142,149);"/>
                                </g>
                                <g transform="matrix(0.776397,0.582612,-0.586357,0.781387,377.513,-728.422)">
                                    <path d="M1241.9,45.868C1270.6,45.868 1295.79,61.051 1309.86,83.817C1317.39,95.997 1321.74,110.348 1321.74,125.706C1321.74,147.974 1312.6,168.126 1297.87,182.612C1283.46,196.791 1263.69,205.544 1241.9,205.544C1197.83,205.544 1162.06,169.77 1162.06,125.706C1162.06,95.29 1179.11,68.823 1204.16,55.347C1215.4,49.3 1228.25,45.868 1241.9,45.868Z" style="fill:rgb(171,180,192);"/>
                                </g>
                                <g transform="matrix(0.751417,0.563867,-0.586357,0.781387,453.011,-752.621)">
                                    <path d="M1241.9,45.868C1270.6,45.868 1295.79,61.051 1309.86,83.817C1317.39,95.997 1321.74,110.348 1321.74,125.706C1321.74,147.974 1312.6,168.126 1297.87,182.612C1283.46,196.791 1263.69,205.544 1241.9,205.544C1197.83,205.544 1162.06,169.77 1162.06,125.706C1162.06,95.29 1179.11,68.823 1204.16,55.347C1215.4,49.3 1228.25,45.868 1241.9,45.868Z" style="fill:rgb(207,211,216);"/>
                                </g>
                            </g>
                            <path d="M1241.9,45.868C1270.6,45.868 1295.79,61.051 1309.86,83.817C1317.39,95.997 1321.74,110.348 1321.74,125.706C1321.74,147.974 1312.6,168.126 1297.87,182.612C1283.46,196.791 1263.69,205.544 1241.9,205.544C1197.83,205.544 1162.06,169.77 1162.06,125.706C1162.06,95.29 1179.11,68.823 1204.16,55.347C1215.4,49.3 1228.25,45.868 1241.9,45.868Z" style="fill:none;stroke:black;stroke-width:30.27px;"/>
                        </g>
                        <g transform="matrix(0.165196,1.17585e-18,-1.17585e-18,0.165196,1688,702.056)">
                            <path d="M1241.9,45.868C1270.6,45.868 1295.79,61.051 1309.86,83.817C1317.39,95.997 1321.74,110.348 1321.74,125.706C1321.74,147.974 1312.6,168.126 1297.87,182.612C1283.46,196.791 1263.69,205.544 1241.9,205.544C1197.83,205.544 1162.06,169.77 1162.06,125.706C1162.06,95.29 1179.11,68.823 1204.16,55.347C1215.4,49.3 1228.25,45.868 1241.9,45.868Z" style="fill:rgb(171,180,192);"/>
                            <clipPath id="_clip10">
                                <path d="M1241.9,45.868C1270.6,45.868 1295.79,61.051 1309.86,83.817C1317.39,95.997 1321.74,110.348 1321.74,125.706C1321.74,147.974 1312.6,168.126 1297.87,182.612C1283.46,196.791 1263.69,205.544 1241.9,205.544C1197.83,205.544 1162.06,169.77 1162.06,125.706C1162.06,95.29 1179.11,68.823 1204.16,55.347C1215.4,49.3 1228.25,45.868 1241.9,45.868Z"/>
                            </clipPath>
                            <g clip-path="url(#_clip10)">
                                <g transform="matrix(1.37656,1.03298,-0.586357,0.781387,-386.035,-1247.91)">
                                    <path d="M1241.9,45.868C1270.6,45.868 1295.79,61.051 1309.86,83.817C1317.39,95.997 1321.74,110.348 1321.74,125.706C1321.74,147.974 1312.6,168.126 1297.87,182.612C1283.46,196.791 1263.69,205.544 1241.9,205.544C1197.83,205.544 1162.06,169.77 1162.06,125.706C1162.06,95.29 1179.11,68.823 1204.16,55.347C1215.4,49.3 1228.25,45.868 1241.9,45.868Z" style="fill:rgb(136,142,149);"/>
                                </g>
                                <g transform="matrix(0.776397,0.582612,-0.586357,0.781387,377.513,-728.422)">
                                    <path d="M1241.9,45.868C1270.6,45.868 1295.79,61.051 1309.86,83.817C1317.39,95.997 1321.74,110.348 1321.74,125.706C1321.74,147.974 1312.6,168.126 1297.87,182.612C1283.46,196.791 1263.69,205.544 1241.9,205.544C1197.83,205.544 1162.06,169.77 1162.06,125.706C1162.06,95.29 1179.11,68.823 1204.16,55.347C1215.4,49.3 1228.25,45.868 1241.9,45.868Z" style="fill:rgb(171,180,192);"/>
                                </g>
                                <g transform="matrix(0.751417,0.563867,-0.586357,0.781387,453.011,-752.621)">
                                    <path d="M1241.9,45.868C1270.6,45.868 1295.79,61.051 1309.86,83.817C1317.39,95.997 1321.74,110.348 1321.74,125.706C1321.74,147.974 1312.6,168.126 1297.87,182.612C1283.46,196.791 1263.69,205.544 1241.9,205.544C1197.83,205.544 1162.06,169.77 1162.06,125.706C1162.06,95.29 1179.11,68.823 1204.16,55.347C1215.4,49.3 1228.25,45.868 1241.9,45.868Z" style="fill:rgb(207,211,216);"/>
                                </g>
                            </g>
                            <path d="M1241.9,45.868C1270.6,45.868 1295.79,61.051 1309.86,83.817C1317.39,95.997 1321.74,110.348 1321.74,125.706C1321.74,147.974 1312.6,168.126 1297.87,182.612C1283.46,196.791 1263.69,205.544 1241.9,205.544C1197.83,205.544 1162.06,169.77 1162.06,125.706C1162.06,95.29 1179.11,68.823 1204.16,55.347C1215.4,49.3 1228.25,45.868 1241.9,45.868Z" style="fill:none;stroke:black;stroke-width:30.27px;"/>
                        </g>
                        <g transform="matrix(0.165196,0,0,0.165196,1435.92,671.616)">
                            <path d="M1241.9,45.868C1270.6,45.868 1295.79,61.051 1309.86,83.817C1317.39,95.997 1321.74,110.348 1321.74,125.706C1321.74,147.974 1312.6,168.126 1297.87,182.612C1283.46,196.791 1263.69,205.544 1241.9,205.544C1197.83,205.544 1162.06,169.77 1162.06,125.706C1162.06,95.29 1179.11,68.823 1204.16,55.347C1215.4,49.3 1228.25,45.868 1241.9,45.868Z" style="fill:rgb(171,180,192);"/>
                            <clipPath id="_clip11">
                                <path d="M1241.9,45.868C1270.6,45.868 1295.79,61.051 1309.86,83.817C1317.39,95.997 1321.74,110.348 1321.74,125.706C1321.74,147.974 1312.6,168.126 1297.87,182.612C1283.46,196.791 1263.69,205.544 1241.9,205.544C1197.83,205.544 1162.06,169.77 1162.06,125.706C1162.06,95.29 1179.11,68.823 1204.16,55.347C1215.4,49.3 1228.25,45.868 1241.9,45.868Z"/>
                            </clipPath>
                            <g clip-path="url(#_clip11)">
                                <g transform="matrix(1.37656,1.03298,-0.586357,0.781387,-386.035,-1247.91)">
                                    <path d="M1241.9,45.868C1270.6,45.868 1295.79,61.051 1309.86,83.817C1317.39,95.997 1321.74,110.348 1321.74,125.706C1321.74,147.974 1312.6,168.126 1297.87,182.612C1283.46,196.791 1263.69,205.544 1241.9,205.544C1197.83,205.544 1162.06,169.77 1162.06,125.706C1162.06,95.29 1179.11,68.823 1204.16,55.347C1215.4,49.3 1228.25,45.868 1241.9,45.868Z" style="fill:rgb(136,142,149);"/>
                                </g>
                                <g transform="matrix(0.776397,0.582612,-0.586357,0.781387,377.513,-728.422)">
                                    <path d="M1241.9,45.868C1270.6,45.868 1295.79,61.051 1309.86,83.817C1317.39,95.997 1321.74,110.348 1321.74,125.706C1321.74,147.974 1312.6,168.126 1297.87,182.612C1283.46,196.791 1263.69,205.544 1241.9,205.544C1197.83,205.544 1162.06,169.77 1162.06,125.706C1162.06,95.29 1179.11,68.823 1204.16,55.347C1215.4,49.3 1228.25,45.868 1241.9,45.868Z" style="fill:rgb(171,180,192);"/>
                                </g>
                                <g transform="matrix(0.751417,0.563867,-0.586357,0.781387,453.011,-752.621)">
                                    <path d="M1241.9,45.868C1270.6,45.868 1295.79,61.051 1309.86,83.817C1317.39,95.997 1321.74,110.348 1321.74,125.706C1321.74,147.974 1312.6,168.126 1297.87,182.612C1283.46,196.791 1263.69,205.544 1241.9,205.544C1197.83,205.544 1162.06,169.77 1162.06,125.706C1162.06,95.29 1179.11,68.823 1204.16,55.347C1215.4,49.3 1228.25,45.868 1241.9,45.868Z" style="fill:rgb(207,211,216);"/>
                                </g>
                            </g>
                            <path d="M1241.9,45.868C1270.6,45.868 1295.79,61.051 1309.86,83.817C1317.39,95.997 1321.74,110.348 1321.74,125.706C1321.74,147.974 1312.6,168.126 1297.87,182.612C1283.46,196.791 1263.69,205.544 1241.9,205.544C1197.83,205.544 1162.06,169.77 1162.06,125.706C1162.06,95.29 1179.11,68.823 1204.16,55.347C1215.4,49.3 1228.25,45.868 1241.9,45.868Z" style="fill:none;stroke:black;stroke-width:30.27px;"/>
                        </g>
                        <g transform="matrix(0.165196,1.38778e-17,-1.38778e-17,0.165196,1597.9,701.616)">
                            <path d="M1241.9,45.868C1270.6,45.868 1295.79,61.051 1309.86,83.817C1317.39,95.997 1321.74,110.348 1321.74,125.706C1321.74,147.974 1312.6,168.126 1297.87,182.612C1283.46,196.791 1263.69,205.544 1241.9,205.544C1197.83,205.544 1162.06,169.77 1162.06,125.706C1162.06,95.29 1179.11,68.823 1204.16,55.347C1215.4,49.3 1228.25,45.868 1241.9,45.868Z" style="fill:rgb(171,180,192);"/>
                            <clipPath id="_clip12">
                                <path d="M1241.9,45.868C1270.6,45.868 1295.79,61.051 1309.86,83.817C1317.39,95.997 1321.74,110.348 1321.74,125.706C1321.74,147.974 1312.6,168.126 1297.87,182.612C1283.46,196.791 1263.69,205.544 1241.9,205.544C1197.83,205.544 1162.06,169.77 1162.06,125.706C1162.06,95.29 1179.11,68.823 1204.16,55.347C1215.4,49.3 1228.25,45.868 1241.9,45.868Z"/>
                            </clipPath>
                            <g clip-path="url(#_clip12)">
                                <g transform="matrix(1.37656,1.03298,-0.586357,0.781387,-386.035,-1247.91)">
                                    <path d="M1241.9,45.868C1270.6,45.868 1295.79,61.051 1309.86,83.817C1317.39,95.997 1321.74,110.348 1321.74,125.706C1321.74,147.974 1312.6,168.126 1297.87,182.612C1283.46,196.791 1263.69,205.544 1241.9,205.544C1197.83,205.544 1162.06,169.77 1162.06,125.706C1162.06,95.29 1179.11,68.823 1204.16,55.347C1215.4,49.3 1228.25,45.868 1241.9,45.868Z" style="fill:rgb(136,142,149);"/>
                                </g>
                                <g transform="matrix(1.37656,1.03298,-0.586357,0.781387,-386.035,-1247.91)">
                                    <path d="M1241.9,45.868C1270.6,45.868 1295.79,61.051 1309.86,83.817C1317.39,95.997 1321.74,110.348 1321.74,125.706C1321.74,147.974 1312.6,168.126 1297.87,182.612C1283.46,196.791 1263.69,205.544 1241.9,205.544C1197.83,205.544 1162.06,169.77 1162.06,125.706C1162.06,95.29 1179.11,68.823 1204.16,55.347C1215.4,49.3 1228.25,45.868 1241.9,45.868Z" style="fill:rgb(136,142,149);"/>
                                </g>
                                <g transform="matrix(0.776397,0.582612,-0.586357,0.781387,377.513,-728.422)">
                                    <path d="M1241.9,45.868C1270.6,45.868 1295.79,61.051 1309.86,83.817C1317.39,95.997 1321.74,110.348 1321.74,125.706C1321.74,147.974 1312.6,168.126 1297.87,182.612C1283.46,196.791 1263.69,205.544 1241.9,205.544C1197.83,205.544 1162.06,169.77 1162.06,125.706C1162.06,95.29 1179.11,68.823 1204.16,55.347C1215.4,49.3 1228.25,45.868 1241.9,45.868Z" style="fill:rgb(171,180,192);"/>
                                </g>
                                <g transform="matrix(0.751417,0.563867,-0.586357,0.781387,453.011,-752.621)">
                                    <path d="M1241.9,45.868C1270.6,45.868 1295.79,61.051 1309.86,83.817C1317.39,95.997 1321.74,110.348 1321.74,125.706C1321.74,147.974 1312.6,168.126 1297.87,182.612C1283.46,196.791 1263.69,205.544 1241.9,205.544C1197.83,205.544 1162.06,169.77 1162.06,125.706C1162.06,95.29 1179.11,68.823 1204.16,55.347C1215.4,49.3 1228.25,45.868 1241.9,45.868Z" style="fill:rgb(207,211,216);"/>
                                </g>
                            </g>
                            <path d="M1241.9,45.868C1270.6,45.868 1295.79,61.051 1309.86,83.817C1317.39,95.997 1321.74,110.348 1321.74,125.706C1321.74,147.974 1312.6,168.126 1297.87,182.612C1283.46,196.791 1263.69,205.544 1241.9,205.544C1197.83,205.544 1162.06,169.77 1162.06,125.706C1162.06,95.29 1179.11,68.823 1204.16,55.347C1215.4,49.3 1228.25,45.868 1241.9,45.868Z" style="fill:none;stroke:black;stroke-width:30.27px;"/>
                        </g>
                        <g transform="matrix(0.165196,1.38778e-17,-1.38778e-17,0.165196,1435.92,524.64)">
                            <path d="M1241.9,45.868C1270.6,45.868 1295.79,61.051 1309.86,83.817C1317.39,95.997 1321.74,110.348 1321.74,125.706C1321.74,147.974 1312.6,168.126 1297.87,182.612C1283.46,196.791 1263.69,205.544 1241.9,205.544C1197.83,205.544 1162.06,169.77 1162.06,125.706C1162.06,95.29 1179.11,68.823 1204.16,55.347C1215.4,49.3 1228.25,45.868 1241.9,45.868Z" style="fill:rgb(171,180,192);"/>
                            <clipPath id="_clip13">
                                <path d="M1241.9,45.868C1270.6,45.868 1295.79,61.051 1309.86,83.817C1317.39,95.997 1321.74,110.348 1321.74,125.706C1321.74,147.974 1312.6,168.126 1297.87,182.612C1283.46,196.791 1263.69,205.544 1241.9,205.544C1197.83,205.544 1162.06,169.77 1162.06,125.706C1162.06,95.29 1179.11,68.823 1204.16,55.347C1215.4,49.3 1228.25,45.868 1241.9,45.868Z"/>
                            </clipPath>
                            <g clip-path="url(#_clip13)">
                                <g transform="matrix(1.37656,1.03298,-0.586357,0.781387,-386.035,-1247.91)">
                                    <path d="M1241.9,45.868C1270.6,45.868 1295.79,61.051 1309.86,83.817C1317.39,95.997 1321.74,110.348 1321.74,125.706C1321.74,147.974 1312.6,168.126 1297.87,182.612C1283.46,196.791 1263.69,205.544 1241.9,205.544C1197.83,205.544 1162.06,169.77 1162.06,125.706C1162.06,95.29 1179.11,68.823 1204.16,55.347C1215.4,49.3 1228.25,45.868 1241.9,45.868Z" style="fill:rgb(136,142,149);"/>
                                </g>
                                <g transform="matrix(0.776397,0.582612,-0.586357,0.781387,377.513,-728.422)">
                                    <path d="M1241.9,45.868C1270.6,45.868 1295.79,61.051 1309.86,83.817C1317.39,95.997 1321.74,110.348 1321.74,125.706C1321.74,147.974 1312.6,168.126 1297.87,182.612C1283.46,196.791 1263.69,205.544 1241.9,205.544C1197.83,205.544 1162.06,169.77 1162.06,125.706C1162.06,95.29 1179.11,68.823 1204.16,55.347C1215.4,49.3 1228.25,45.868 1241.9,45.868Z" style="fill:rgb(171,180,192);"/>
                                </g>
                                <g transform="matrix(0.751417,0.563867,-0.586357,0.781387,453.011,-752.621)">
                                    <path d="M1241.9,45.868C1270.6,45.868 1295.79,61.051 1309.86,83.817C1317.39,95.997 1321.74,110.348 1321.74,125.706C1321.74,147.974 1312.6,168.126 1297.87,182.612C1283.46,196.791 1263.69,205.544 1241.9,205.544C1197.83,205.544 1162.06,169.77 1162.06,125.706C1162.06,95.29 1179.11,68.823 1204.16,55.347C1215.4,49.3 1228.25,45.868 1241.9,45.868Z" style="fill:rgb(207,211,216);"/>
                                </g>
                            </g>
                            <path d="M1241.9,45.868C1270.6,45.868 1295.79,61.051 1309.86,83.817C1317.39,95.997 1321.74,110.348 1321.74,125.706C1321.74,147.974 1312.6,168.126 1297.87,182.612C1283.46,196.791 1263.69,205.544 1241.9,205.544C1197.83,205.544 1162.06,169.77 1162.06,125.706C1162.06,95.29 1179.11,68.823 1204.16,55.347C1215.4,49.3 1228.25,45.868 1241.9,45.868Z" style="fill:none;stroke:black;stroke-width:30.27px;"/>
                        </g>
                        <g transform="matrix(0.165196,1.17585e-18,-1.17585e-18,0.165196,1777.49,494.2)">
                            <path d="M1241.9,45.868C1270.6,45.868 1295.79,61.051 1309.86,83.817C1317.39,95.997 1321.74,110.348 1321.74,125.706C1321.74,147.974 1312.6,168.126 1297.87,182.612C1283.46,196.791 1263.69,205.544 1241.9,205.544C1197.83,205.544 1162.06,169.77 1162.06,125.706C1162.06,95.29 1179.11,68.823 1204.16,55.347C1215.4,49.3 1228.25,45.868 1241.9,45.868Z" style="fill:rgb(171,180,192);"/>
                            <clipPath id="_clip14">
                                <path d="M1241.9,45.868C1270.6,45.868 1295.79,61.051 1309.86,83.817C1317.39,95.997 1321.74,110.348 1321.74,125.706C1321.74,147.974 1312.6,168.126 1297.87,182.612C1283.46,196.791 1263.69,205.544 1241.9,205.544C1197.83,205.544 1162.06,169.77 1162.06,125.706C1162.06,95.29 1179.11,68.823 1204.16,55.347C1215.4,49.3 1228.25,45.868 1241.9,45.868Z"/>
                            </clipPath>
                            <g clip-path="url(#_clip14)">
                                <g transform="matrix(1.37656,1.03298,-0.586357,0.781387,-386.035,-1247.91)">
                                    <path d="M1241.9,45.868C1270.6,45.868 1295.79,61.051 1309.86,83.817C1317.39,95.997 1321.74,110.348 1321.74,125.706C1321.74,147.974 1312.6,168.126 1297.87,182.612C1283.46,196.791 1263.69,205.544 1241.9,205.544C1197.83,205.544 1162.06,169.77 1162.06,125.706C1162.06,95.29 1179.11,68.823 1204.16,55.347C1215.4,49.3 1228.25,45.868 1241.9,45.868Z" style="fill:rgb(136,142,149);"/>
                                </g>
                                <g transform="matrix(0.776397,0.582612,-0.586357,0.781387,377.513,-728.422)">
                                    <path d="M1241.9,45.868C1270.6,45.868 1295.79,61.051 1309.86,83.817C1317.39,95.997 1321.74,110.348 1321.74,125.706C1321.74,147.974 1312.6,168.126 1297.87,182.612C1283.46,196.791 1263.69,205.544 1241.9,205.544C1197.83,205.544 1162.06,169.77 1162.06,125.706C1162.06,95.29 1179.11,68.823 1204.16,55.347C1215.4,49.3 1228.25,45.868 1241.9,45.868Z" style="fill:rgb(171,180,192);"/>
                                </g>
                                <g transform="matrix(0.751417,0.563867,-0.586357,0.781387,453.011,-752.621)">
                                    <path d="M1241.9,45.868C1270.6,45.868 1295.79,61.051 1309.86,83.817C1317.39,95.997 1321.74,110.348 1321.74,125.706C1321.74,147.974 1312.6,168.126 1297.87,182.612C1283.46,196.791 1263.69,205.544 1241.9,205.544C1197.83,205.544 1162.06,169.77 1162.06,125.706C1162.06,95.29 1179.11,68.823 1204.16,55.347C1215.4,49.3 1228.25,45.868 1241.9,45.868Z" style="fill:rgb(207,211,216);"/>
                                </g>
                            </g>
                            <path d="M1241.9,45.868C1270.6,45.868 1295.79,61.051 1309.86,83.817C1317.39,95.997 1321.74,110.348 1321.74,125.706C1321.74,147.974 1312.6,168.126 1297.87,182.612C1283.46,196.791 1263.69,205.544 1241.9,205.544C1197.83,205.544 1162.06,169.77 1162.06,125.706C1162.06,95.29 1179.11,68.823 1204.16,55.347C1215.4,49.3 1228.25,45.868 1241.9,45.868Z" style="fill:none;stroke:black;stroke-width:30.27px;"/>
                        </g>
                        <g transform="matrix(0.165196,1.17585e-18,-1.17585e-18,0.165196,1777.49,702.056)">
                            <path d="M1241.9,45.868C1270.6,45.868 1295.79,61.051 1309.86,83.817C1317.39,95.997 1321.74,110.348 1321.74,125.706C1321.74,147.974 1312.6,168.126 1297.87,182.612C1283.46,196.791 1263.69,205.544 1241.9,205.544C1197.83,205.544 1162.06,169.77 1162.06,125.706C1162.06,95.29 1179.11,68.823 1204.16,55.347C1215.4,49.3 1228.25,45.868 1241.9,45.868Z" style="fill:rgb(171,180,192);"/>
                            <clipPath id="_clip15">
                                <path d="M1241.9,45.868C1270.6,45.868 1295.79,61.051 1309.86,83.817C1317.39,95.997 1321.74,110.348 1321.74,125.706C1321.74,147.974 1312.6,168.126 1297.87,182.612C1283.46,196.791 1263.69,205.544 1241.9,205.544C1197.83,205.544 1162.06,169.77 1162.06,125.706C1162.06,95.29 1179.11,68.823 1204.16,55.347C1215.4,49.3 1228.25,45.868 1241.9,45.868Z"/>
                            </clipPath>
                            <g clip-path="url(#_clip15)">
                                <g transform="matrix(1.37656,1.03298,-0.586357,0.781387,-386.035,-1247.91)">
                                    <path d="M1241.9,45.868C1270.6,45.868 1295.79,61.051 1309.86,83.817C1317.39,95.997 1321.74,110.348 1321.74,125.706C1321.74,147.974 1312.6,168.126 1297.87,182.612C1283.46,196.791 1263.69,205.544 1241.9,205.544C1197.83,205.544 1162.06,169.77 1162.06,125.706C1162.06,95.29 1179.11,68.823 1204.16,55.347C1215.4,49.3 1228.25,45.868 1241.9,45.868Z" style="fill:rgb(136,142,149);"/>
                                </g>
                                <g transform="matrix(0.776397,0.582612,-0.586357,0.781387,377.513,-728.422)">
                                    <path d="M1241.9,45.868C1270.6,45.868 1295.79,61.051 1309.86,83.817C1317.39,95.997 1321.74,110.348 1321.74,125.706C1321.74,147.974 1312.6,168.126 1297.87,182.612C1283.46,196.791 1263.69,205.544 1241.9,205.544C1197.83,205.544 1162.06,169.77 1162.06,125.706C1162.06,95.29 1179.11,68.823 1204.16,55.347C1215.4,49.3 1228.25,45.868 1241.9,45.868Z" style="fill:rgb(171,180,192);"/>
                                </g>
                                <g transform="matrix(0.751417,0.563867,-0.586357,0.781387,453.011,-752.621)">
                                    <path d="M1241.9,45.868C1270.6,45.868 1295.79,61.051 1309.86,83.817C1317.39,95.997 1321.74,110.348 1321.74,125.706C1321.74,147.974 1312.6,168.126 1297.87,182.612C1283.46,196.791 1263.69,205.544 1241.9,205.544C1197.83,205.544 1162.06,169.77 1162.06,125.706C1162.06,95.29 1179.11,68.823 1204.16,55.347C1215.4,49.3 1228.25,45.868 1241.9,45.868Z" style="fill:rgb(207,211,216);"/>
                                </g>
                            </g>
                            <path d="M1241.9,45.868C1270.6,45.868 1295.79,61.051 1309.86,83.817C1317.39,95.997 1321.74,110.348 1321.74,125.706C1321.74,147.974 1312.6,168.126 1297.87,182.612C1283.46,196.791 1263.69,205.544 1241.9,205.544C1197.83,205.544 1162.06,169.77 1162.06,125.706C1162.06,95.29 1179.11,68.823 1204.16,55.347C1215.4,49.3 1228.25,45.868 1241.9,45.868Z" style="fill:none;stroke:black;stroke-width:30.27px;"/>
                        </g>
                        <g transform="matrix(0.165196,1.17585e-18,-1.17585e-18,0.165196,1881.41,598.128)">
                            <path d="M1241.9,45.868C1270.6,45.868 1295.79,61.051 1309.86,83.817C1317.39,95.997 1321.74,110.348 1321.74,125.706C1321.74,147.974 1312.6,168.126 1297.87,182.612C1283.46,196.791 1263.69,205.544 1241.9,205.544C1197.83,205.544 1162.06,169.77 1162.06,125.706C1162.06,95.29 1179.11,68.823 1204.16,55.347C1215.4,49.3 1228.25,45.868 1241.9,45.868Z" style="fill:rgb(171,180,192);"/>
                            <clipPath id="_clip16">
                                <path d="M1241.9,45.868C1270.6,45.868 1295.79,61.051 1309.86,83.817C1317.39,95.997 1321.74,110.348 1321.74,125.706C1321.74,147.974 1312.6,168.126 1297.87,182.612C1283.46,196.791 1263.69,205.544 1241.9,205.544C1197.83,205.544 1162.06,169.77 1162.06,125.706C1162.06,95.29 1179.11,68.823 1204.16,55.347C1215.4,49.3 1228.25,45.868 1241.9,45.868Z"/>
                            </clipPath>
                            <g clip-path="url(#_clip16)">
                                <g transform="matrix(1.37656,1.03298,-0.586357,0.781387,-386.035,-1247.91)">
                                    <path d="M1241.9,45.868C1270.6,45.868 1295.79,61.051 1309.86,83.817C1317.39,95.997 1321.74,110.348 1321.74,125.706C1321.74,147.974 1312.6,168.126 1297.87,182.612C1283.46,196.791 1263.69,205.544 1241.9,205.544C1197.83,205.544 1162.06,169.77 1162.06,125.706C1162.06,95.29 1179.11,68.823 1204.16,55.347C1215.4,49.3 1228.25,45.868 1241.9,45.868Z" style="fill:rgb(136,142,149);"/>
                                </g>
                                <g transform="matrix(0.776397,0.582612,-0.586357,0.781387,377.513,-728.422)">
                                    <path d="M1241.9,45.868C1270.6,45.868 1295.79,61.051 1309.86,83.817C1317.39,95.997 1321.74,110.348 1321.74,125.706C1321.74,147.974 1312.6,168.126 1297.87,182.612C1283.46,196.791 1263.69,205.544 1241.9,205.544C1197.83,205.544 1162.06,169.77 1162.06,125.706C1162.06,95.29 1179.11,68.823 1204.16,55.347C1215.4,49.3 1228.25,45.868 1241.9,45.868Z" style="fill:rgb(171,180,192);"/>
                                </g>
                                <g transform="matrix(0.751417,0.563867,-0.586357,0.781387,453.011,-752.621)">
                                    <path d="M1241.9,45.868C1270.6,45.868 1295.79,61.051 1309.86,83.817C1317.39,95.997 1321.74,110.348 1321.74,125.706C1321.74,147.974 1312.6,168.126 1297.87,182.612C1283.46,196.791 1263.69,205.544 1241.9,205.544C1197.83,205.544 1162.06,169.77 1162.06,125.706C1162.06,95.29 1179.11,68.823 1204.16,55.347C1215.4,49.3 1228.25,45.868 1241.9,45.868Z" style="fill:rgb(207,211,216);"/>
                                </g>
                            </g>
                            <path d="M1241.9,45.868C1270.6,45.868 1295.79,61.051 1309.86,83.817C1317.39,95.997 1321.74,110.348 1321.74,125.706C1321.74,147.974 1312.6,168.126 1297.87,182.612C1283.46,196.791 1263.69,205.544 1241.9,205.544C1197.83,205.544 1162.06,169.77 1162.06,125.706C1162.06,95.29 1179.11,68.823 1204.16,55.347C1215.4,49.3 1228.25,45.868 1241.9,45.868Z" style="fill:none;stroke:black;stroke-width:30.27px;"/>
                        </g>
                        <g transform="matrix(0.165196,0,-0,0.165196,1850.97,671.616)">
                            <path d="M1241.9,45.868C1270.6,45.868 1295.79,61.051 1309.86,83.817C1317.39,95.997 1321.74,110.348 1321.74,125.706C1321.74,147.974 1312.6,168.126 1297.87,182.612C1283.46,196.791 1263.69,205.544 1241.9,205.544C1197.83,205.544 1162.06,169.77 1162.06,125.706C1162.06,95.29 1179.11,68.823 1204.16,55.347C1215.4,49.3 1228.25,45.868 1241.9,45.868Z" style="fill:rgb(171,180,192);"/>
                            <clipPath id="_clip17">
                                <path d="M1241.9,45.868C1270.6,45.868 1295.79,61.051 1309.86,83.817C1317.39,95.997 1321.74,110.348 1321.74,125.706C1321.74,147.974 1312.6,168.126 1297.87,182.612C1283.46,196.791 1263.69,205.544 1241.9,205.544C1197.83,205.544 1162.06,169.77 1162.06,125.706C1162.06,95.29 1179.11,68.823 1204.16,55.347C1215.4,49.3 1228.25,45.868 1241.9,45.868Z"/>
                            </clipPath>
                            <g clip-path="url(#_clip17)">
                                <g transform="matrix(1.37656,1.03298,-0.586357,0.781387,-386.035,-1247.91)">
                                    <path d="M1241.9,45.868C1270.6,45.868 1295.79,61.051 1309.86,83.817C1317.39,95.997 1321.74,110.348 1321.74,125.706C1321.74,147.974 1312.6,168.126 1297.87,182.612C1283.46,196.791 1263.69,205.544 1241.9,205.544C1197.83,205.544 1162.06,169.77 1162.06,125.706C1162.06,95.29 1179.11,68.823 1204.16,55.347C1215.4,49.3 1228.25,45.868 1241.9,45.868Z" style="fill:rgb(136,142,149);"/>
                                </g>
                                <g transform="matrix(0.776397,0.582612,-0.586357,0.781387,377.513,-728.422)">
                                    <path d="M1241.9,45.868C1270.6,45.868 1295.79,61.051 1309.86,83.817C1317.39,95.997 1321.74,110.348 1321.74,125.706C1321.74,147.974 1312.6,168.126 1297.87,182.612C1283.46,196.791 1263.69,205.544 1241.9,205.544C1197.83,205.544 1162.06,169.77 1162.06,125.706C1162.06,95.29 1179.11,68.823 1204.16,55.347C1215.4,49.3 1228.25,45.868 1241.9,45.868Z" style="fill:rgb(171,180,192);"/>
                                </g>
                                <g transform="matrix(0.751417,0.563867,-0.586357,0.781387,453.011,-752.621)">
                                    <path d="M1241.9,45.868C1270.6,45.868 1295.79,61.051 1309.86,83.817C1317.39,95.997 1321.74,110.348 1321.74,125.706C1321.74,147.974 1312.6,168.126 1297.87,182.612C1283.46,196.791 1263.69,205.544 1241.9,205.544C1197.83,205.544 1162.06,169.77 1162.06,125.706C1162.06,95.29 1179.11,68.823 1204.16,55.347C1215.4,49.3 1228.25,45.868 1241.9,45.868Z" style="fill:rgb(207,211,216);"/>
                                </g>
                            </g>
                            <path d="M1241.9,45.868C1270.6,45.868 1295.79,61.051 1309.86,83.817C1317.39,95.997 1321.74,110.348 1321.74,125.706C1321.74,147.974 1312.6,168.126 1297.87,182.612C1283.46,196.791 1263.69,205.544 1241.9,205.544C1197.83,205.544 1162.06,169.77 1162.06,125.706C1162.06,95.29 1179.11,68.823 1204.16,55.347C1215.4,49.3 1228.25,45.868 1241.9,45.868Z" style="fill:none;stroke:black;stroke-width:30.27px;"/>
                        </g>
                        <g transform="matrix(0.165196,1.38778e-17,-1.38778e-17,0.165196,1850.97,524.64)">
                            <path d="M1241.9,45.868C1270.6,45.868 1295.79,61.051 1309.86,83.817C1317.39,95.997 1321.74,110.348 1321.74,125.706C1321.74,147.974 1312.6,168.126 1297.87,182.612C1283.46,196.791 1263.69,205.544 1241.9,205.544C1197.83,205.544 1162.06,169.77 1162.06,125.706C1162.06,95.29 1179.11,68.823 1204.16,55.347C1215.4,49.3 1228.25,45.868 1241.9,45.868Z" style="fill:rgb(171,180,192);"/>
                            <clipPath id="_clip18">
                                <path d="M1241.9,45.868C1270.6,45.868 1295.79,61.051 1309.86,83.817C1317.39,95.997 1321.74,110.348 1321.74,125.706C1321.74,147.974 1312.6,168.126 1297.87,182.612C1283.46,196.791 1263.69,205.544 1241.9,205.544C1197.83,205.544 1162.06,169.77 1162.06,125.706C1162.06,95.29 1179.11,68.823 1204.16,55.347C1215.4,49.3 1228.25,45.868 1241.9,45.868Z"/>
                            </clipPath>
                            <g clip-path="url(#_clip18)">
                                <g transform="matrix(1.37656,1.03298,-0.586357,0.781387,-386.035,-1247.91)">
                                    <path d="M1241.9,45.868C1270.6,45.868 1295.79,61.051 1309.86,83.817C1317.39,95.997 1321.74,110.348 1321.74,125.706C1321.74,147.974 1312.6,168.126 1297.87,182.612C1283.46,196.791 1263.69,205.544 1241.9,205.544C1197.83,205.544 1162.06,169.77 1162.06,125.706C1162.06,95.29 1179.11,68.823 1204.16,55.347C1215.4,49.3 1228.25,45.868 1241.9,45.868Z" style="fill:rgb(136,142,149);"/>
                                </g>
                                <g transform="matrix(0.776397,0.582612,-0.586357,0.781387,377.513,-728.422)">
                                    <path d="M1241.9,45.868C1270.6,45.868 1295.79,61.051 1309.86,83.817C1317.39,95.997 1321.74,110.348 1321.74,125.706C1321.74,147.974 1312.6,168.126 1297.87,182.612C1283.46,196.791 1263.69,205.544 1241.9,205.544C1197.83,205.544 1162.06,169.77 1162.06,125.706C1162.06,95.29 1179.11,68.823 1204.16,55.347C1215.4,49.3 1228.25,45.868 1241.9,45.868Z" style="fill:rgb(171,180,192);"/>
                                </g>
                                <g transform="matrix(0.751417,0.563867,-0.586357,0.781387,453.011,-752.621)">
                                    <path d="M1241.9,45.868C1270.6,45.868 1295.79,61.051 1309.86,83.817C1317.39,95.997 1321.74,110.348 1321.74,125.706C1321.74,147.974 1312.6,168.126 1297.87,182.612C1283.46,196.791 1263.69,205.544 1241.9,205.544C1197.83,205.544 1162.06,169.77 1162.06,125.706C1162.06,95.29 1179.11,68.823 1204.16,55.347C1215.4,49.3 1228.25,45.868 1241.9,45.868Z" style="fill:rgb(207,211,216);"/>
                                </g>
                            </g>
                            <path d="M1241.9,45.868C1270.6,45.868 1295.79,61.051 1309.86,83.817C1317.39,95.997 1321.74,110.348 1321.74,125.706C1321.74,147.974 1312.6,168.126 1297.87,182.612C1283.46,196.791 1263.69,205.544 1241.9,205.544C1197.83,205.544 1162.06,169.77 1162.06,125.706C1162.06,95.29 1179.11,68.823 1204.16,55.347C1215.4,49.3 1228.25,45.868 1241.9,45.868Z" style="fill:none;stroke:black;stroke-width:30.27px;"/>
                        </g>
                    </g>
                </g>
            </g>
        </g>
    </g>
    <defs>
        <linearGradient id="_Linear2" x1="0" y1="0" x2="1" y2="0" gradientUnits="userSpaceOnUse" gradientTransform="matrix(4.50023e-14,734.944,-734.944,4.50023e-14,926.075,160.203)"><stop offset="0" style="stop-color:rgb(233,197,140);stop-opacity:1"/><stop offset="0.53" style="stop-color:rgb(179,144,96);stop-opacity:1"/><stop offset="1" style="stop-color:rgb(148,118,79);stop-opacity:1"/></linearGradient>
    </defs>
</svg>
