<?xml version="1.0" encoding="UTF-8" standalone="no"?>
<!DOCTYPE svg PUBLIC "-//W3C//DTD SVG 1.1//EN" "http://www.w3.org/Graphics/SVG/1.1/DTD/svg11.dtd">
<svg width="100%" height="100%" viewBox="0 0 1107 1045" version="1.1" xmlns="http://www.w3.org/2000/svg" xmlns:xlink="http://www.w3.org/1999/xlink" xml:space="preserve" xmlns:serif="http://www.serif.com/" style="fill-rule:evenodd;clip-rule:evenodd;stroke-linecap:round;stroke-linejoin:round;stroke-miterlimit:1.5;">
    <g transform="matrix(1,0,0,1,-6192,-1495)">
        <g transform="matrix(2.00001,0,0,2.00001,-6320.44,-4924.36)">
            <g id="main_frame" transform="matrix(0.499998,0,0,0.499998,5874.86,3443.47)">
                <g transform="matrix(1,0,0,1,430.149,-359.44)">
                    <path d="M392.658,143.544L374.011,182.151L382.761,240.115L413.438,232.505L392.658,143.544Z" style="fill:rgb(94,70,54);stroke:black;stroke-width:5px;"/>
                    <path d="M382.761,240.115L344.088,280.581L364.613,290.697L413.438,232.505L382.761,240.115" style="fill:rgb(94,70,54);stroke:black;stroke-width:5px;"/>
                    <path d="M344.088,280.581L344.088,351.976L360.942,339.584L364.613,290.697L344.088,280.581" style="fill:rgb(94,70,54);stroke:black;stroke-width:5px;"/>
                    <path d="M344.088,351.976L360.942,339.584L391.495,371.503L360.942,391.873L344.088,351.976Z" style="fill:rgb(94,70,54);stroke:black;stroke-width:5px;"/>
                    <path d="M391.495,371.503L391.495,508.016L364.613,512.964L360.942,391.873L391.495,371.503Z" style="fill:rgb(94,70,54);stroke:black;stroke-width:5px;"/>
                    <path d="M364.916,512.964L335.689,592.759L366.76,599.934L391.495,508.016L364.916,512.964Z" style="fill:rgb(94,70,54);stroke:black;stroke-width:5px;"/>
                    <path d="M335.689,592.759L354.351,772.646L385.744,766.032L367.791,599.934L335.689,592.759Z" style="fill:rgb(94,70,54);stroke:black;stroke-width:5px;"/>
                    <path d="M354.351,772.646L344.088,818.842L368.411,826.411L385.744,766.032L354.351,772.646Z" style="fill:rgb(94,70,54);stroke:black;stroke-width:5px;"/>
                    <path d="M344.088,818.842L335.689,892.337L365.279,887.325L368.411,826.411L344.088,818.842" style="fill:rgb(94,70,54);stroke:black;stroke-width:5px;"/>
                    <path d="M335.689,892.337L451.716,920.051L365.279,887.325L335.689,892.337Z" style="fill:rgb(94,70,54);stroke:black;stroke-width:5px;"/>
                    <path d="M1416.61,143.544L1176.83,119.484L941.759,159.429L820.18,143.544L554.426,121.671L392.658,143.544L413.438,232.505L364.613,290.697L360.942,339.584L391.495,371.503L391.782,506.948L366.76,599.934L385.744,766.032L368.411,826.411L365.279,887.325L451.716,920.051L657.282,934.268L960,898.177L1230.28,929.894L1416.61,920.051L1429.94,876.878L1404.65,808.667L1429.54,733.404L1436.63,661.226L1400.94,552.9L1435.08,446.863L1429.92,380.136L1403.51,291.51L1431.92,232.511L1416.61,143.544Z" style="fill:url(#_Linear1);"/>
                    <clipPath id="_clip2">
                        <path d="M1416.61,143.544L1176.83,119.484L941.759,159.429L820.18,143.544L554.426,121.671L392.658,143.544L413.438,232.505L364.613,290.697L360.942,339.584L391.495,371.503L391.782,506.948L366.76,599.934L385.744,766.032L368.411,826.411L365.279,887.325L451.716,920.051L657.282,934.268L960,898.177L1230.28,929.894L1416.61,920.051L1429.94,876.878L1404.65,808.667L1429.54,733.404L1436.63,661.226L1400.94,552.9L1435.08,446.863L1429.92,380.136L1403.51,291.51L1431.92,232.511L1416.61,143.544Z"/>
                    </clipPath>
                    <g clip-path="url(#_clip2)">
                        <path d="M335.689,156.856C485.168,139.252 635.541,121.417 933.959,65.261C1098.81,53.579 1267.29,47.052 1468.49,87.134C1591.31,169.975 1681.44,251.783 1499.93,325.007C1393.27,300.373 1310.22,273.676 960,270.324C825.308,272.442 680.48,264.648 504.693,226.577C417.686,211.609 329.535,194.869 283.225,242.982C175.181,212.46 184.586,183.635 335.689,156.856Z" style="fill:rgb(139,82,45);fill-opacity:0.35;"/>
                        <g transform="matrix(-1,-1.22465e-16,1.22465e-16,-1,1851.21,1124.94)">
                            <path d="M335.689,156.856C485.168,139.252 635.541,121.417 933.959,65.261C1098.81,53.579 1267.29,47.052 1468.49,87.134C1591.31,169.975 1681.44,251.783 1499.93,325.007C1393.27,300.373 1310.22,273.676 960,270.324C825.308,272.442 680.48,264.648 504.693,226.577C417.686,211.609 329.535,194.869 283.225,242.982C175.181,212.46 184.586,183.635 335.689,156.856Z" style="fill:rgb(139,82,45);fill-opacity:0.35;"/>
                        </g>
                        <g transform="matrix(-0.994819,-0.101667,0.101667,-0.994819,1724.2,662.575)">
                            <path d="M335.689,156.856C485.168,139.252 635.541,121.417 933.959,65.261C1098.81,53.579 1267.29,47.052 1468.49,87.134C1591.31,169.975 1681.44,251.783 1499.93,325.007C1393.27,300.373 1310.22,273.676 960,270.324C825.308,272.442 680.48,264.648 504.693,226.577C417.686,211.609 329.535,194.869 283.225,242.982C175.181,212.46 184.586,183.635 335.689,156.856Z" style="fill:rgb(139,82,45);fill-opacity:0.35;"/>
                        </g>
                        <g transform="matrix(0.998453,-0.0556107,0.0279945,0.502623,-170.078,551.486)">
                            <path d="M335.689,156.856C485.168,139.252 635.541,121.417 933.959,65.261C1098.81,53.579 1267.29,47.052 1468.49,87.134C1591.31,169.975 1681.44,251.783 1499.93,325.007C1393.27,300.373 1310.22,273.676 960,270.324C825.308,272.442 680.48,264.648 504.693,226.577C417.686,211.609 329.535,194.869 283.225,242.982C175.181,212.46 184.586,183.635 335.689,156.856Z" style="fill:rgb(139,82,45);fill-opacity:0.35;"/>
                        </g>
                        <g transform="matrix(-0.999983,-0.00575595,0.00372369,-0.646918,1865.96,860.774)">
                            <path d="M335.689,156.856C485.168,139.252 635.541,121.417 933.959,65.261C1098.81,53.579 1267.29,47.052 1468.49,87.134C1591.31,169.975 1681.44,251.783 1499.93,325.007C1393.27,300.373 1310.22,273.676 960,270.324C825.308,272.442 680.48,264.648 504.693,226.577C417.686,211.609 329.535,194.869 283.225,242.982C175.181,212.46 184.586,183.635 335.689,156.856Z" style="fill:rgb(139,82,45);fill-opacity:0.35;"/>
                        </g>
                        <g transform="matrix(1.03645,0,0,1,-32.7655,0)">
                            <path d="M411.101,348.208C513.974,359.665 604.36,364.116 677.957,359.145C766.627,347.111 844.232,341.987 886.159,359.145C968.53,378.886 1046.57,374.385 1123.08,361.332C1260.81,350.505 1354.12,352.259 1398.41,367.894" style="fill:rgb(94,70,54);stroke:rgb(71,50,38);stroke-width:5px;"/>
                        </g>
                        <g transform="matrix(1.03645,0,0,1,-32.7655,0)">
                            <path d="M442.802,418.203C501.8,428.553 562.494,437.274 641.866,428.046C696.078,412.321 766.593,407.441 850.756,411.641C943.775,425.556 998.629,424.154 1042.15,418.203C1131.85,405.703 1206.73,417.512 1278.38,434.608C1327.65,444.709 1369.51,451.393 1407.43,449.92" style="fill:rgb(94,70,54);stroke:rgb(71,50,38);stroke-width:5px;"/>
                        </g>
                        <g transform="matrix(1.03645,0,0,1,-32.7655,0)">
                            <path d="M427.506,491.479C577.412,513.507 663.85,512.27 711.86,496.947C779.883,484.663 835.02,504.343 920.607,507.884C998.089,524.76 1050.53,535.175 1095.74,526.876C1182.14,518.346 1216.8,527.027 1263.07,506.79C1307.26,497.711 1338.7,511.406 1369.16,526.876" style="fill:rgb(94,70,54);stroke:rgb(71,50,38);stroke-width:5px;"/>
                        </g>
                        <g transform="matrix(1.03645,0,0,1,-32.7655,0)">
                            <path d="M411.101,540C422.999,547.586 466.328,551.807 659.364,540C785.455,542.229 867.916,549.029 938.25,557.099C1028.24,571.074 1106.28,577.426 1161.36,569.13C1222.44,559.093 1282.76,555.78 1340.72,573.504" style="fill:rgb(94,70,54);stroke:rgb(71,50,38);stroke-width:5px;"/>
                        </g>
                        <g transform="matrix(1.03645,0,0,1,-32.7655,0)">
                            <path d="M390.322,594.284C456.619,595.772 516.831,603.991 557.653,633.656C604.435,651.164 567.595,618.109 656.083,613.97C794.559,591.47 914.478,606.094 1026.84,635.843C1139.49,661.186 1208.26,654.456 1265.26,639.124C1281.45,622.835 1339.21,632.624 1407.43,648.967" style="fill:rgb(94,70,54);stroke:rgb(71,50,38);stroke-width:5px;"/>
                        </g>
                        <g transform="matrix(1.03645,0,0,1,-32.7655,0)">
                            <path d="M411.101,720.056C461.783,732.884 524.626,733.476 601.4,720.056C644.479,706.832 708.192,700.651 821.227,711.307C916.093,730.271 1016.48,755.262 1048.71,705.838C1077.75,683.982 1140.35,686.863 1224.79,705.838C1292.53,730.635 1295.99,695.053 1369.16,720.056" style="fill:rgb(94,70,54);stroke:rgb(71,50,38);stroke-width:5px;"/>
                        </g>
                        <g transform="matrix(1.03645,0,0,1,-32.7655,0)">
                            <path d="M442.802,796.613C457.09,785.669 472.433,775.112 575.152,796.613C660.694,819.915 706.993,811.323 745.764,796.613C801.978,778.149 896.472,788.28 988.559,796.613C1182.53,829.985 1215.01,822.359 1210.57,805.362C1198.5,794.445 1253.61,800.727 1340.72,815.205" style="fill:rgb(94,70,54);stroke:rgb(71,50,38);stroke-width:5px;"/>
                        </g>
                        <g transform="matrix(1.03645,0,0,1,-32.7655,0)">
                            <path d="M442.802,232.279C620.165,218.546 648.844,224.566 681.238,230.092C773.382,255.355 848.598,254.408 908.721,230.092C966.689,210.877 1041.2,201.853 1142.77,226.811C1180.73,236.141 1303.54,215.12 1321.03,231.186C1328.24,243.001 1381.74,252.495 1398.41,236.654" style="fill:rgb(94,70,54);stroke:rgb(71,50,38);stroke-width:5px;"/>
                        </g>
                        <g transform="matrix(1.03645,0,0,1,-32.7655,0)">
                            <path d="M411.101,290.244C454.393,282.703 502.135,281.271 559.84,293.525C559.119,298.934 613.202,305.11 804.822,313.211C977.097,299.193 1042.14,289.476 1036.68,282.588C1092.83,270.363 1105.82,301.181 1189.79,295.712C1266.73,290.112 1330.23,292.043 1369.16,307.743" style="fill:rgb(94,70,54);stroke:rgb(71,50,38);stroke-width:5px;"/>
                        </g>
                        <g transform="matrix(1.03645,0,0,1,-32.7655,0)">
                            <path d="M442.818,166.933C442.818,166.933 438.716,176.502 563.121,180.603C687.526,184.705 576.792,127.287 941.804,172.401C1054.71,186.356 1059.37,190.173 1190.61,187.439C1328.66,184.563 1331.42,153.262 1398.41,172.401" style="fill:rgb(94,70,54);stroke:rgb(71,50,38);stroke-width:5px;"/>
                        </g>
                        <g transform="matrix(1.03645,0,0,1,-32.7655,0)">
                            <path d="M390.322,855.671C431.203,869.789 470.513,867.116 505.157,870.982C576.186,847.316 649.939,855.262 723.891,865.514C816.859,885.606 885.46,876.423 931.688,840.36C905.363,873.296 970.135,849.833 1100.11,888.481C1165.4,908.939 1233.03,903.089 1301.35,889.575C1329.56,873.808 1364.62,874.537 1407.43,893.949" style="fill:rgb(94,70,54);stroke:rgb(71,50,38);stroke-width:5px;"/>
                        </g>
                    </g>
                    <path d="M1416.61,143.544L1176.83,119.484L941.759,159.429L820.18,143.544L554.426,121.671L392.658,143.544L413.438,232.505L364.613,290.697L360.942,339.584L391.495,371.503L391.782,506.948L366.76,599.934L385.744,766.032L368.411,826.411L365.279,887.325L451.716,920.051L657.282,934.268L960,898.177L1230.28,929.894L1416.61,920.051L1429.94,876.878L1404.65,808.667L1429.54,733.404L1436.63,661.226L1400.94,552.9L1435.08,446.863L1429.92,380.136L1403.51,291.51L1431.92,232.511L1416.61,143.544Z" style="fill:none;stroke:black;stroke-width:5px;"/>
                </g>
                <g transform="matrix(1.09559,0,0,0.978386,319.854,-339.105)">
                    <path d="M1319.73,174.103L1282.45,175.449L1254.38,197.096L1262.73,265.09L1231.27,225.194L1233.79,174.243L1128.78,171.64L874.267,186.758L647.233,180.977L611.128,234.862L651.628,288.585L610.243,265.09L545.44,299.347L521.032,282.218L503.817,295.457L512.205,436.392L491.159,652.763L493.435,741.245C525.788,745.199 576.384,755.79 574.164,761.852C572.361,766.776 519.807,749.024 489.666,755.676L496.775,871.094L621.113,862.192L667.51,835.574L682.619,759.489L691.514,828.018L691.873,857.125L1128.72,871.094L1294.85,871.094L1349.45,837.719L1344.63,728.653L1295.92,576.372L1341.33,653.765L1341.33,369.383L1348.64,222.753L1319.73,174.103Z" style="fill:url(#_Radial3);"/>
                    <clipPath id="_clip4">
                        <path d="M1319.73,174.103L1282.45,175.449L1254.38,197.096L1262.73,265.09L1231.27,225.194L1233.79,174.243L1128.78,171.64L874.267,186.758L647.233,180.977L611.128,234.862L651.628,288.585L610.243,265.09L545.44,299.347L521.032,282.218L503.817,295.457L512.205,436.392L491.159,652.763L493.435,741.245C525.788,745.199 576.384,755.79 574.164,761.852C572.361,766.776 519.807,749.024 489.666,755.676L496.775,871.094L621.113,862.192L667.51,835.574L682.619,759.489L691.514,828.018L691.873,857.125L1128.72,871.094L1294.85,871.094L1349.45,837.719L1344.63,728.653L1295.92,576.372L1341.33,653.765L1341.33,369.383L1348.64,222.753L1319.73,174.103Z"/>
                    </clipPath>
                    <g clip-path="url(#_clip4)">
                        <g transform="matrix(0.912751,0,0,1.02209,100.672,-20.7837)">
                            <path d="M694.101,78.172L559.945,374.191L497.242,526.876L478.735,869.738L523.49,980.812L653.271,584.175L707.225,461.685L567.236,600.216L622.649,439.811L787.428,279.407L898.785,119.484L1025.12,254.617L858.881,435.437L717.433,718.332L918.668,824.782L928.875,948.731L1099.49,934.268L1032.41,735.83L898.785,639.588L960,486.475L1124.28,415.022L1273.14,279.695L1252.24,127.051L1547.16,356.693L1334.26,433.979L1188.44,540L1189.9,697.917L1294.89,839.364L1287.6,948.731L1485.92,827.698L1290.51,526.876L1589.45,496.682L1703.19,229.828L1436.63,31.509L788.886,56.341L694.101,78.172Z" style="fill:url(#_Linear5);"/>
                        </g>
                        <g transform="matrix(-0.645412,0.722728,-0.645412,-0.722728,1972.75,115.638)">
                            <path d="M694.101,78.172L559.945,374.191L497.242,526.876L478.735,869.738L523.49,980.812L653.271,584.175L707.225,461.685L567.236,600.216L622.649,439.811L787.428,279.407L898.785,119.484L1025.12,254.617L858.881,435.437L717.433,718.332L918.668,824.782L928.875,948.731L1099.49,934.268L1032.41,735.83L898.785,639.588L960,486.475L1124.28,415.022L1273.14,279.695L1252.24,127.051L1547.16,356.693L1334.26,433.979L1188.44,540L1189.9,697.917L1294.89,839.364L1287.6,948.731L1485.92,827.698L1290.51,526.876L1589.45,496.682L1703.19,229.828L1436.63,31.509L788.886,56.341L694.101,78.172Z" style="fill:url(#_Linear6);"/>
                        </g>
                        <g transform="matrix(0.315675,-0.576622,0.75426,0.51778,129,447.839)">
                            <path d="M694.101,78.172L559.945,374.191L497.242,526.876L478.735,869.738L523.49,980.812L653.271,584.175L707.225,461.685L567.236,600.216L622.649,439.811L787.428,279.407L898.785,119.484L1025.12,254.617L858.881,435.437L717.433,718.332L918.668,824.782L928.875,948.731L1099.49,934.268L1032.41,735.83L898.785,639.588L960,486.475L1124.28,415.022L1273.14,279.695L1252.24,127.051L1547.16,356.693L1334.26,433.979L1188.44,540L1189.9,697.917L1294.89,839.364L1287.6,948.731L1485.92,827.698L1290.51,526.876L1589.45,496.682L1703.19,229.828L1436.63,31.509L788.886,56.341L694.101,78.172Z" style="fill:url(#_Linear7);"/>
                        </g>
                        <g transform="matrix(-0.0808438,-0.826911,0.73845,-0.0905283,699.683,1370.3)">
                            <path d="M694.101,78.172L559.945,374.191L497.242,526.876L478.735,869.738L523.49,980.812L653.271,584.175L707.225,461.685L567.236,600.216L622.649,439.811L787.428,279.407L898.785,119.484L1025.12,254.617L858.881,435.437L717.433,718.332L918.668,824.782L928.875,948.731L1099.49,934.268L1032.41,735.83L898.785,639.588L960,486.475L1124.28,415.022L1273.14,279.695L1252.24,127.051L1547.16,356.693L1334.26,433.979L1188.44,540L1189.9,697.917L1294.89,839.364L1287.6,948.731L1485.92,827.698L1290.51,526.876L1589.45,496.682L1703.19,229.828L1436.63,31.509L788.886,56.341L694.101,78.172Z" style="fill:url(#_Linear8);"/>
                        </g>
                        <g transform="matrix(0.579328,0.520701,-0.464998,0.648728,632.433,-337.797)">
                            <path d="M694.101,78.172L559.945,374.191L497.242,526.876L478.735,869.738L523.49,980.812L653.271,584.175L707.225,461.685L567.236,600.216L622.649,439.811L787.428,279.407L898.785,119.484L1025.12,254.617L858.881,435.437L717.433,718.332L918.668,824.782L928.875,948.731L1099.49,934.268L1032.41,735.83L898.785,639.588L960,486.475L1124.28,415.022L1273.14,279.695L1252.24,127.051L1547.16,356.693L1334.26,433.979L1188.44,540L1189.9,697.917L1294.89,839.364L1287.6,948.731L1485.92,827.698L1290.51,526.876L1589.45,496.682L1703.19,229.828L1436.63,31.509L788.886,56.341L694.101,78.172Z" style="fill:url(#_Linear9);"/>
                        </g>
                        <g transform="matrix(-0.444563,-0.234915,0.307285,-0.729186,1035.75,1303.13)">
                            <path d="M694.101,78.172L559.945,374.191L497.242,526.876L478.735,869.738L523.49,980.812L653.271,584.175L707.225,461.685L567.236,600.216L622.649,439.811L787.428,279.407L898.785,119.484L1025.12,254.617L858.881,435.437L717.433,718.332L918.668,824.782L928.875,948.731L1099.49,934.268L1032.41,735.83L898.785,639.588L960,486.475L1124.28,415.022L1273.14,279.695L1252.24,127.051L1547.16,356.693L1334.26,433.979L1188.44,540L1189.9,697.917L1294.89,839.364L1287.6,948.731L1485.92,827.698L1290.51,526.876L1589.45,496.682L1703.19,229.828L1436.63,31.509L788.886,56.341L694.101,78.172Z" style="fill:url(#_Linear10);"/>
                        </g>
                    </g>
                    <path d="M1319.73,174.103L1282.45,175.449L1254.38,197.096L1262.73,265.09L1231.27,225.194L1233.79,174.243L1128.78,171.64L874.267,186.758L647.233,180.977L611.128,234.862L651.628,288.585L610.243,265.09L545.44,299.347L521.032,282.218L503.817,295.457L512.205,436.392L491.159,652.763L493.435,741.245C525.788,745.199 576.384,755.79 574.164,761.852C572.361,766.776 519.807,749.024 489.666,755.676L496.775,871.094L621.113,862.192L667.51,835.574L682.619,759.489L691.514,828.018L691.873,857.125L1128.72,871.094L1294.85,871.094L1349.45,837.719L1344.63,728.653L1295.92,576.372L1341.33,653.765L1341.33,369.383L1348.64,222.753L1319.73,174.103Z" style="fill:none;stroke:black;stroke-width:4.81px;"/>
                </g>
                <g transform="matrix(1,0,0,1,555.922,-300.351)">
                    <g transform="matrix(0.233425,1.6615e-18,-1.6615e-18,0.233425,906.715,141.493)">
                        <path d="M1241.9,45.868C1270.6,45.868 1295.79,61.051 1309.86,83.817C1317.39,95.997 1321.74,110.348 1321.74,125.706C1321.74,147.974 1312.6,168.126 1297.87,182.612C1283.46,196.791 1263.69,205.544 1241.9,205.544C1197.83,205.544 1162.06,169.77 1162.06,125.706C1162.06,95.29 1179.11,68.823 1204.16,55.347C1215.4,49.3 1228.25,45.868 1241.9,45.868Z" style="fill:rgb(171,180,192);"/>
                        <clipPath id="_clip11">
                            <path d="M1241.9,45.868C1270.6,45.868 1295.79,61.051 1309.86,83.817C1317.39,95.997 1321.74,110.348 1321.74,125.706C1321.74,147.974 1312.6,168.126 1297.87,182.612C1283.46,196.791 1263.69,205.544 1241.9,205.544C1197.83,205.544 1162.06,169.77 1162.06,125.706C1162.06,95.29 1179.11,68.823 1204.16,55.347C1215.4,49.3 1228.25,45.868 1241.9,45.868Z"/>
                        </clipPath>
                        <g clip-path="url(#_clip11)">
                            <g transform="matrix(1.37656,1.03298,-0.586357,0.781387,-386.035,-1247.91)">
                                <path d="M1241.9,45.868C1270.6,45.868 1295.79,61.051 1309.86,83.817C1317.39,95.997 1321.74,110.348 1321.74,125.706C1321.74,147.974 1312.6,168.126 1297.87,182.612C1283.46,196.791 1263.69,205.544 1241.9,205.544C1197.83,205.544 1162.06,169.77 1162.06,125.706C1162.06,95.29 1179.11,68.823 1204.16,55.347C1215.4,49.3 1228.25,45.868 1241.9,45.868Z" style="fill:rgb(136,142,149);"/>
                            </g>
                            <g transform="matrix(0.776397,0.582612,-0.586357,0.781387,377.513,-728.422)">
                                <path d="M1241.9,45.868C1270.6,45.868 1295.79,61.051 1309.86,83.817C1317.39,95.997 1321.74,110.348 1321.74,125.706C1321.74,147.974 1312.6,168.126 1297.87,182.612C1283.46,196.791 1263.69,205.544 1241.9,205.544C1197.83,205.544 1162.06,169.77 1162.06,125.706C1162.06,95.29 1179.11,68.823 1204.16,55.347C1215.4,49.3 1228.25,45.868 1241.9,45.868Z" style="fill:rgb(171,180,192);"/>
                            </g>
                            <g transform="matrix(0.751417,0.563867,-0.586357,0.781387,453.011,-752.621)">
                                <path d="M1241.9,45.868C1270.6,45.868 1295.79,61.051 1309.86,83.817C1317.39,95.997 1321.74,110.348 1321.74,125.706C1321.74,147.974 1312.6,168.126 1297.87,182.612C1283.46,196.791 1263.69,205.544 1241.9,205.544C1197.83,205.544 1162.06,169.77 1162.06,125.706C1162.06,95.29 1179.11,68.823 1204.16,55.347C1215.4,49.3 1228.25,45.868 1241.9,45.868Z" style="fill:rgb(207,211,216);"/>
                            </g>
                        </g>
                        <path d="M1241.9,45.868C1270.6,45.868 1295.79,61.051 1309.86,83.817C1317.39,95.997 1321.74,110.348 1321.74,125.706C1321.74,147.974 1312.6,168.126 1297.87,182.612C1283.46,196.791 1263.69,205.544 1241.9,205.544C1197.83,205.544 1162.06,169.77 1162.06,125.706C1162.06,95.29 1179.11,68.823 1204.16,55.347C1215.4,49.3 1228.25,45.868 1241.9,45.868Z" style="fill:none;stroke:black;stroke-width:14.69px;"/>
                    </g>
                    <g transform="matrix(0.233425,-5.55112e-17,5.55112e-17,0.233425,906.715,735.038)">
                        <path d="M1241.9,45.868C1270.6,45.868 1295.79,61.051 1309.86,83.817C1317.39,95.997 1321.74,110.348 1321.74,125.706C1321.74,147.974 1312.6,168.126 1297.87,182.612C1283.46,196.791 1263.69,205.544 1241.9,205.544C1197.83,205.544 1162.06,169.77 1162.06,125.706C1162.06,95.29 1179.11,68.823 1204.16,55.347C1215.4,49.3 1228.25,45.868 1241.9,45.868Z" style="fill:rgb(171,180,192);"/>
                        <clipPath id="_clip12">
                            <path d="M1241.9,45.868C1270.6,45.868 1295.79,61.051 1309.86,83.817C1317.39,95.997 1321.74,110.348 1321.74,125.706C1321.74,147.974 1312.6,168.126 1297.87,182.612C1283.46,196.791 1263.69,205.544 1241.9,205.544C1197.83,205.544 1162.06,169.77 1162.06,125.706C1162.06,95.29 1179.11,68.823 1204.16,55.347C1215.4,49.3 1228.25,45.868 1241.9,45.868Z"/>
                        </clipPath>
                        <g clip-path="url(#_clip12)">
                            <g transform="matrix(1.37656,1.03298,-0.586357,0.781387,-386.035,-1247.91)">
                                <path d="M1241.9,45.868C1270.6,45.868 1295.79,61.051 1309.86,83.817C1317.39,95.997 1321.74,110.348 1321.74,125.706C1321.74,147.974 1312.6,168.126 1297.87,182.612C1283.46,196.791 1263.69,205.544 1241.9,205.544C1197.83,205.544 1162.06,169.77 1162.06,125.706C1162.06,95.29 1179.11,68.823 1204.16,55.347C1215.4,49.3 1228.25,45.868 1241.9,45.868Z" style="fill:rgb(136,142,149);"/>
                            </g>
                            <g transform="matrix(0.776397,0.582612,-0.586357,0.781387,377.513,-728.422)">
                                <path d="M1241.9,45.868C1270.6,45.868 1295.79,61.051 1309.86,83.817C1317.39,95.997 1321.74,110.348 1321.74,125.706C1321.74,147.974 1312.6,168.126 1297.87,182.612C1283.46,196.791 1263.69,205.544 1241.9,205.544C1197.83,205.544 1162.06,169.77 1162.06,125.706C1162.06,95.29 1179.11,68.823 1204.16,55.347C1215.4,49.3 1228.25,45.868 1241.9,45.868Z" style="fill:rgb(171,180,192);"/>
                            </g>
                            <g transform="matrix(0.751417,0.563867,-0.586357,0.781387,453.011,-752.621)">
                                <path d="M1241.9,45.868C1270.6,45.868 1295.79,61.051 1309.86,83.817C1317.39,95.997 1321.74,110.348 1321.74,125.706C1321.74,147.974 1312.6,168.126 1297.87,182.612C1283.46,196.791 1263.69,205.544 1241.9,205.544C1197.83,205.544 1162.06,169.77 1162.06,125.706C1162.06,95.29 1179.11,68.823 1204.16,55.347C1215.4,49.3 1228.25,45.868 1241.9,45.868Z" style="fill:rgb(207,211,216);"/>
                            </g>
                        </g>
                        <path d="M1241.9,45.868C1270.6,45.868 1295.79,61.051 1309.86,83.817C1317.39,95.997 1321.74,110.348 1321.74,125.706C1321.74,147.974 1312.6,168.126 1297.87,182.612C1283.46,196.791 1263.69,205.544 1241.9,205.544C1197.83,205.544 1162.06,169.77 1162.06,125.706C1162.06,95.29 1179.11,68.823 1204.16,55.347C1215.4,49.3 1228.25,45.868 1241.9,45.868Z" style="fill:none;stroke:black;stroke-width:14.69px;"/>
                    </g>
                    <g transform="matrix(0.233425,-5.55112e-17,5.55112e-17,0.233425,212.852,149.892)">
                        <path d="M1241.9,45.868C1270.6,45.868 1295.79,61.051 1309.86,83.817C1317.39,95.997 1321.74,110.348 1321.74,125.706C1321.74,147.974 1312.6,168.126 1297.87,182.612C1283.46,196.791 1263.69,205.544 1241.9,205.544C1197.83,205.544 1162.06,169.77 1162.06,125.706C1162.06,95.29 1179.11,68.823 1204.16,55.347C1215.4,49.3 1228.25,45.868 1241.9,45.868Z" style="fill:rgb(171,180,192);"/>
                        <clipPath id="_clip13">
                            <path d="M1241.9,45.868C1270.6,45.868 1295.79,61.051 1309.86,83.817C1317.39,95.997 1321.74,110.348 1321.74,125.706C1321.74,147.974 1312.6,168.126 1297.87,182.612C1283.46,196.791 1263.69,205.544 1241.9,205.544C1197.83,205.544 1162.06,169.77 1162.06,125.706C1162.06,95.29 1179.11,68.823 1204.16,55.347C1215.4,49.3 1228.25,45.868 1241.9,45.868Z"/>
                        </clipPath>
                        <g clip-path="url(#_clip13)">
                            <g transform="matrix(1.37656,1.03298,-0.586357,0.781387,-386.035,-1247.91)">
                                <path d="M1241.9,45.868C1270.6,45.868 1295.79,61.051 1309.86,83.817C1317.39,95.997 1321.74,110.348 1321.74,125.706C1321.74,147.974 1312.6,168.126 1297.87,182.612C1283.46,196.791 1263.69,205.544 1241.9,205.544C1197.83,205.544 1162.06,169.77 1162.06,125.706C1162.06,95.29 1179.11,68.823 1204.16,55.347C1215.4,49.3 1228.25,45.868 1241.9,45.868Z" style="fill:rgb(136,142,149);"/>
                            </g>
                            <g transform="matrix(0.776397,0.582612,-0.586357,0.781387,377.513,-728.422)">
                                <path d="M1241.9,45.868C1270.6,45.868 1295.79,61.051 1309.86,83.817C1317.39,95.997 1321.74,110.348 1321.74,125.706C1321.74,147.974 1312.6,168.126 1297.87,182.612C1283.46,196.791 1263.69,205.544 1241.9,205.544C1197.83,205.544 1162.06,169.77 1162.06,125.706C1162.06,95.29 1179.11,68.823 1204.16,55.347C1215.4,49.3 1228.25,45.868 1241.9,45.868Z" style="fill:rgb(171,180,192);"/>
                            </g>
                            <g transform="matrix(0.751417,0.563867,-0.586357,0.781387,453.011,-752.621)">
                                <path d="M1241.9,45.868C1270.6,45.868 1295.79,61.051 1309.86,83.817C1317.39,95.997 1321.74,110.348 1321.74,125.706C1321.74,147.974 1312.6,168.126 1297.87,182.612C1283.46,196.791 1263.69,205.544 1241.9,205.544C1197.83,205.544 1162.06,169.77 1162.06,125.706C1162.06,95.29 1179.11,68.823 1204.16,55.347C1215.4,49.3 1228.25,45.868 1241.9,45.868Z" style="fill:rgb(207,211,216);"/>
                            </g>
                        </g>
                        <path d="M1241.9,45.868C1270.6,45.868 1295.79,61.051 1309.86,83.817C1317.39,95.997 1321.74,110.348 1321.74,125.706C1321.74,147.974 1312.6,168.126 1297.87,182.612C1283.46,196.791 1263.69,205.544 1241.9,205.544C1197.83,205.544 1162.06,169.77 1162.06,125.706C1162.06,95.29 1179.11,68.823 1204.16,55.347C1215.4,49.3 1228.25,45.868 1241.9,45.868Z" style="fill:none;stroke:black;stroke-width:14.69px;"/>
                    </g>
                    <g transform="matrix(0.233425,1.6615e-18,-1.6615e-18,0.233425,64.3264,735.038)">
                        <path d="M1241.9,45.868C1270.6,45.868 1295.79,61.051 1309.86,83.817C1317.39,95.997 1321.74,110.348 1321.74,125.706C1321.74,147.974 1312.6,168.126 1297.87,182.612C1283.46,196.791 1263.69,205.544 1241.9,205.544C1197.83,205.544 1162.06,169.77 1162.06,125.706C1162.06,95.29 1179.11,68.823 1204.16,55.347C1215.4,49.3 1228.25,45.868 1241.9,45.868Z" style="fill:rgb(171,180,192);"/>
                        <clipPath id="_clip14">
                            <path d="M1241.9,45.868C1270.6,45.868 1295.79,61.051 1309.86,83.817C1317.39,95.997 1321.74,110.348 1321.74,125.706C1321.74,147.974 1312.6,168.126 1297.87,182.612C1283.46,196.791 1263.69,205.544 1241.9,205.544C1197.83,205.544 1162.06,169.77 1162.06,125.706C1162.06,95.29 1179.11,68.823 1204.16,55.347C1215.4,49.3 1228.25,45.868 1241.9,45.868Z"/>
                        </clipPath>
                        <g clip-path="url(#_clip14)">
                            <g transform="matrix(1.37656,1.03298,-0.586357,0.781387,-386.035,-1247.91)">
                                <path d="M1241.9,45.868C1270.6,45.868 1295.79,61.051 1309.86,83.817C1317.39,95.997 1321.74,110.348 1321.74,125.706C1321.74,147.974 1312.6,168.126 1297.87,182.612C1283.46,196.791 1263.69,205.544 1241.9,205.544C1197.83,205.544 1162.06,169.77 1162.06,125.706C1162.06,95.29 1179.11,68.823 1204.16,55.347C1215.4,49.3 1228.25,45.868 1241.9,45.868Z" style="fill:rgb(136,149,141);"/>
                            </g>
                            <g transform="matrix(0.776397,0.582612,-0.586357,0.781387,377.513,-728.422)">
                                <path d="M1241.9,45.868C1270.6,45.868 1295.79,61.051 1309.86,83.817C1317.39,95.997 1321.74,110.348 1321.74,125.706C1321.74,147.974 1312.6,168.126 1297.87,182.612C1283.46,196.791 1263.69,205.544 1241.9,205.544C1197.83,205.544 1162.06,169.77 1162.06,125.706C1162.06,95.29 1179.11,68.823 1204.16,55.347C1215.4,49.3 1228.25,45.868 1241.9,45.868Z" style="fill:rgb(171,192,187);"/>
                            </g>
                            <g transform="matrix(0.751417,0.563867,-0.586357,0.781387,453.011,-752.621)">
                                <path d="M1241.9,45.868C1270.6,45.868 1295.79,61.051 1309.86,83.817C1317.39,95.997 1321.74,110.348 1321.74,125.706C1321.74,147.974 1312.6,168.126 1297.87,182.612C1283.46,196.791 1263.69,205.544 1241.9,205.544C1197.83,205.544 1162.06,169.77 1162.06,125.706C1162.06,95.29 1179.11,68.823 1204.16,55.347C1215.4,49.3 1228.25,45.868 1241.9,45.868Z" style="fill:rgb(208,216,207);"/>
                            </g>
                        </g>
                        <path d="M1241.9,45.868C1270.6,45.868 1295.79,61.051 1309.86,83.817C1317.39,95.997 1321.74,110.348 1321.74,125.706C1321.74,147.974 1312.6,168.126 1297.87,182.612C1283.46,196.791 1263.69,205.544 1241.9,205.544C1197.83,205.544 1162.06,169.77 1162.06,125.706C1162.06,95.29 1179.11,68.823 1204.16,55.347C1215.4,49.3 1228.25,45.868 1241.9,45.868Z" style="fill:none;stroke:black;stroke-width:14.69px;"/>
                    </g>
                    <g transform="matrix(0.233425,1.6615e-18,-1.6615e-18,0.233425,73.9625,270.23)">
                        <path d="M1241.9,45.868C1270.6,45.868 1295.79,61.051 1309.86,83.817C1317.39,95.997 1321.74,110.348 1321.74,125.706C1321.74,147.974 1312.6,168.126 1297.87,182.612C1283.46,196.791 1263.69,205.544 1241.9,205.544C1197.83,205.544 1162.06,169.77 1162.06,125.706C1162.06,95.29 1179.11,68.823 1204.16,55.347C1215.4,49.3 1228.25,45.868 1241.9,45.868Z" style="fill:rgb(171,180,192);"/>
                        <clipPath id="_clip15">
                            <path d="M1241.9,45.868C1270.6,45.868 1295.79,61.051 1309.86,83.817C1317.39,95.997 1321.74,110.348 1321.74,125.706C1321.74,147.974 1312.6,168.126 1297.87,182.612C1283.46,196.791 1263.69,205.544 1241.9,205.544C1197.83,205.544 1162.06,169.77 1162.06,125.706C1162.06,95.29 1179.11,68.823 1204.16,55.347C1215.4,49.3 1228.25,45.868 1241.9,45.868Z"/>
                        </clipPath>
                        <g clip-path="url(#_clip15)">
                            <g transform="matrix(1.37656,1.03298,-0.586357,0.781387,-386.035,-1247.91)">
                                <path d="M1241.9,45.868C1270.6,45.868 1295.79,61.051 1309.86,83.817C1317.39,95.997 1321.74,110.348 1321.74,125.706C1321.74,147.974 1312.6,168.126 1297.87,182.612C1283.46,196.791 1263.69,205.544 1241.9,205.544C1197.83,205.544 1162.06,169.77 1162.06,125.706C1162.06,95.29 1179.11,68.823 1204.16,55.347C1215.4,49.3 1228.25,45.868 1241.9,45.868Z" style="fill:rgb(136,149,141);"/>
                            </g>
                            <g transform="matrix(0.776397,0.582612,-0.586357,0.781387,377.513,-728.422)">
                                <path d="M1241.9,45.868C1270.6,45.868 1295.79,61.051 1309.86,83.817C1317.39,95.997 1321.74,110.348 1321.74,125.706C1321.74,147.974 1312.6,168.126 1297.87,182.612C1283.46,196.791 1263.69,205.544 1241.9,205.544C1197.83,205.544 1162.06,169.77 1162.06,125.706C1162.06,95.29 1179.11,68.823 1204.16,55.347C1215.4,49.3 1228.25,45.868 1241.9,45.868Z" style="fill:rgb(171,192,187);"/>
                            </g>
                            <g transform="matrix(0.751417,0.563867,-0.586357,0.781387,453.011,-752.621)">
                                <path d="M1241.9,45.868C1270.6,45.868 1295.79,61.051 1309.86,83.817C1317.39,95.997 1321.74,110.348 1321.74,125.706C1321.74,147.974 1312.6,168.126 1297.87,182.612C1283.46,196.791 1263.69,205.544 1241.9,205.544C1197.83,205.544 1162.06,169.77 1162.06,125.706C1162.06,95.29 1179.11,68.823 1204.16,55.347C1215.4,49.3 1228.25,45.868 1241.9,45.868Z" style="fill:rgb(208,216,207);"/>
                            </g>
                        </g>
                        <path d="M1241.9,45.868C1270.6,45.868 1295.79,61.051 1309.86,83.817C1317.39,95.997 1321.74,110.348 1321.74,125.706C1321.74,147.974 1312.6,168.126 1297.87,182.612C1283.46,196.791 1263.69,205.544 1241.9,205.544C1197.83,205.544 1162.06,169.77 1162.06,125.706C1162.06,95.29 1179.11,68.823 1204.16,55.347C1215.4,49.3 1228.25,45.868 1241.9,45.868Z" style="fill:none;stroke:black;stroke-width:14.69px;"/>
                    </g>
                </g>
                <g transform="matrix(1.07039,0,0,1.07039,334.297,-361.066)">
                    <path d="M1328.62,125.934C1328.13,122.939 1326.45,120.27 1323.97,118.533C1318.73,114.875 1309.53,108.447 1304.81,105.152C1302.88,103.802 1300.57,103.094 1298.21,103.129C1287.83,103.284 1258.39,103.721 1252.78,103.805C1252.16,103.814 1251.54,103.875 1250.93,103.986C1247.6,104.593 1235.94,106.718 1228.38,108.097C1224.24,108.85 1220.88,111.846 1219.65,115.862C1217.43,123.128 1213.92,134.589 1212.17,140.316C1211.47,142.591 1211.52,145.028 1212.3,147.276C1214.09,152.463 1217.5,162.314 1219.67,168.579C1220.91,172.147 1223.85,174.855 1227.51,175.788C1236.61,178.111 1253.64,182.456 1258.82,183.776C1259.83,184.034 1260.87,184.15 1261.92,184.12C1268.65,183.922 1295,183.15 1302.87,182.919C1304.34,182.876 1305.79,182.544 1307.14,181.941C1310.3,180.523 1316.43,177.771 1320.42,175.984C1322.85,174.893 1324.82,172.971 1325.96,170.562C1327.68,166.965 1330.24,161.58 1331.86,158.185C1332.84,156.121 1333.17,153.807 1332.8,151.551C1331.81,145.454 1329.74,132.803 1328.62,125.934Z" style="fill-opacity:0.35;"/>
                </g>
                <g transform="matrix(1,0,0,1,430.149,-360.44)">
                    <path d="M1328.68,126.264C1328.15,123.058 1326.36,120.201 1323.69,118.341C1318.49,114.709 1309.71,108.576 1305.02,105.298C1302.95,103.853 1300.48,103.095 1297.96,103.133C1287.4,103.29 1258.57,103.719 1252.84,103.804C1252.18,103.814 1251.52,103.879 1250.86,103.998C1247.52,104.607 1236.37,106.64 1228.85,108.011C1224.43,108.817 1220.82,112.023 1219.51,116.322C1217.31,123.498 1213.98,134.389 1212.25,140.07C1211.5,142.505 1211.55,145.113 1212.38,147.52C1214.16,152.654 1217.39,161.998 1219.53,168.177C1220.85,171.996 1224.01,174.895 1227.92,175.894C1237.05,178.223 1253.49,182.417 1258.71,183.748C1259.79,184.025 1260.91,184.149 1262.03,184.116C1268.89,183.915 1294.7,183.159 1302.71,182.924C1304.29,182.878 1305.84,182.522 1307.28,181.876C1310.41,180.473 1316.23,177.864 1320.15,176.103C1322.76,174.935 1324.86,172.878 1326.09,170.3C1327.76,166.786 1330.17,161.729 1331.75,158.408C1332.8,156.199 1333.15,153.722 1332.76,151.307C1331.77,145.221 1329.79,133.108 1328.68,126.264Z" style="fill:rgb(171,180,192);"/>
                    <clipPath id="_clip16">
                        <path d="M1328.68,126.264C1328.15,123.058 1326.36,120.201 1323.69,118.341C1318.49,114.709 1309.71,108.576 1305.02,105.298C1302.95,103.853 1300.48,103.095 1297.96,103.133C1287.4,103.29 1258.57,103.719 1252.84,103.804C1252.18,103.814 1251.52,103.879 1250.86,103.998C1247.52,104.607 1236.37,106.64 1228.85,108.011C1224.43,108.817 1220.82,112.023 1219.51,116.322C1217.31,123.498 1213.98,134.389 1212.25,140.07C1211.5,142.505 1211.55,145.113 1212.38,147.52C1214.16,152.654 1217.39,161.998 1219.53,168.177C1220.85,171.996 1224.01,174.895 1227.92,175.894C1237.05,178.223 1253.49,182.417 1258.71,183.748C1259.79,184.025 1260.91,184.149 1262.03,184.116C1268.89,183.915 1294.7,183.159 1302.71,182.924C1304.29,182.878 1305.84,182.522 1307.28,181.876C1310.41,180.473 1316.23,177.864 1320.15,176.103C1322.76,174.935 1324.86,172.878 1326.09,170.3C1327.76,166.786 1330.17,161.729 1331.75,158.408C1332.8,156.199 1333.15,153.722 1332.76,151.307C1331.77,145.221 1329.79,133.108 1328.68,126.264Z"/>
                    </clipPath>
                    <g clip-path="url(#_clip16)">
                        <g transform="matrix(1,0,0,1,-3.1413,0)">
                            <path d="M1242.25,80.336L1221.65,109.323C1222.62,119.78 1227.55,129.419 1242.25,137.042C1261.63,141.902 1277.23,143.733 1290.41,143.621C1320.95,145.387 1330.29,144.93 1331.51,143.621L1392.71,89.052L1242.25,80.336Z" style="fill:rgb(207,211,216);"/>
                        </g>
                        <path d="M1211.1,132.63C1215.82,142.883 1221.62,152.98 1241.33,161.071C1249.22,166.171 1259.54,166.979 1268.3,168.337L1298.12,171.53L1342.9,166.106L1240.87,225.75L1177.11,171.64L1211.1,132.63L1540.41,149.144" style="fill:rgb(136,142,149);"/>
                        <g transform="matrix(1,0,0,1,2.72566,-119)">
                            <path d="M1274.92,238.943C1274.92,238.943 1272.41,238.345 1269.27,237.598C1266.04,236.831 1262.63,237.39 1259.82,239.151C1257.01,240.912 1255.02,243.728 1254.3,246.969C1254.3,246.97 1254.3,246.971 1254.3,246.972C1253.34,251.249 1254.67,255.714 1257.8,258.78C1260.93,261.847 1265.42,263.08 1269.67,262.042C1271.81,261.521 1273.9,261.011 1275.82,260.542C1278.08,259.991 1279.96,258.425 1280.91,256.301C1281.86,254.176 1281.77,251.733 1280.67,249.681C1277.91,244.523 1274.92,238.943 1274.92,238.943Z" style="fill:rgb(136,142,149);"/>
                        </g>
                    </g>
                    <path d="M1328.68,126.264C1328.15,123.058 1326.36,120.201 1323.69,118.341C1318.49,114.709 1309.71,108.576 1305.02,105.298C1302.95,103.853 1300.48,103.095 1297.96,103.133C1287.4,103.29 1258.57,103.719 1252.84,103.804C1252.18,103.814 1251.52,103.879 1250.86,103.998C1247.52,104.607 1236.37,106.64 1228.85,108.011C1224.43,108.817 1220.82,112.023 1219.51,116.322C1217.31,123.498 1213.98,134.389 1212.25,140.07C1211.5,142.505 1211.55,145.113 1212.38,147.52C1214.16,152.654 1217.39,161.998 1219.53,168.177C1220.85,171.996 1224.01,174.895 1227.92,175.894C1237.05,178.223 1253.49,182.417 1258.71,183.748C1259.79,184.025 1260.91,184.149 1262.03,184.116C1268.89,183.915 1294.7,183.159 1302.71,182.924C1304.29,182.878 1305.84,182.522 1307.28,181.876C1310.41,180.473 1316.23,177.864 1320.15,176.103C1322.76,174.935 1324.86,172.878 1326.09,170.3C1327.76,166.786 1330.17,161.729 1331.75,158.408C1332.8,156.199 1333.15,153.722 1332.76,151.307C1331.77,145.221 1329.79,133.108 1328.68,126.264Z" style="fill:none;stroke:black;stroke-width:5px;"/>
                </g>
                <g transform="matrix(1.05634,-0.172837,0.172837,1.05634,-388.733,-134.613)">
                    <path d="M1328.62,125.934C1328.13,122.939 1326.45,120.27 1323.97,118.533C1318.73,114.875 1309.53,108.447 1304.81,105.152C1302.88,103.802 1300.57,103.094 1298.21,103.129C1287.83,103.284 1258.39,103.721 1252.78,103.805C1252.16,103.814 1251.54,103.875 1250.93,103.986C1247.6,104.593 1235.94,106.718 1228.38,108.097C1224.24,108.85 1220.88,111.846 1219.65,115.862C1217.43,123.128 1213.92,134.589 1212.17,140.316C1211.47,142.591 1211.52,145.028 1212.3,147.276C1214.09,152.463 1217.5,162.314 1219.67,168.579C1220.91,172.147 1223.85,174.855 1227.51,175.788C1236.61,178.111 1253.64,182.456 1258.82,183.776C1259.83,184.034 1260.87,184.15 1261.92,184.12C1268.65,183.922 1295,183.15 1302.87,182.919C1304.34,182.876 1305.79,182.544 1307.14,181.941C1310.3,180.523 1316.43,177.771 1320.42,175.984C1322.85,174.893 1324.82,172.971 1325.96,170.562C1327.68,166.965 1330.24,161.58 1331.86,158.185C1332.84,156.121 1333.17,153.807 1332.8,151.551C1331.81,145.454 1329.74,132.803 1328.62,125.934Z" style="fill-opacity:0.35;"/>
                </g>
                <g transform="matrix(0.996327,-0.0856244,0.0856244,0.996327,-295.189,-245.969)">
                    <path d="M1328.92,127.786C1328.24,123.608 1325.9,119.882 1322.43,117.458C1317.53,114.039 1310.44,109.084 1305.99,105.973C1303.29,104.089 1300.07,103.102 1296.78,103.151C1285.6,103.317 1259.29,103.708 1253.14,103.799C1252.28,103.812 1251.42,103.897 1250.57,104.052C1247.25,104.656 1238.15,106.315 1231.04,107.612C1225.27,108.663 1220.57,112.843 1218.86,118.447C1216.85,125.016 1214.22,133.622 1212.59,138.932C1211.62,142.107 1211.68,145.507 1212.77,148.644C1214.41,153.388 1216.95,160.711 1218.89,166.32C1220.61,171.298 1224.72,175.077 1229.83,176.379C1238.88,178.69 1252.9,182.267 1258.21,183.621C1259.63,183.983 1261.08,184.144 1262.54,184.101C1269.87,183.886 1293.46,183.195 1301.99,182.945C1304.04,182.885 1306.07,182.421 1307.94,181.58C1310.83,180.283 1315.38,178.245 1318.93,176.653C1322.32,175.13 1325.07,172.448 1326.67,169.087C1328.1,166.069 1329.89,162.311 1331.26,159.438C1332.63,156.558 1333.09,153.329 1332.58,150.181C1331.62,144.3 1329.99,134.347 1328.92,127.786Z" style="fill:rgb(171,180,192);"/>
                    <clipPath id="_clip17">
                        <path d="M1328.92,127.786C1328.24,123.608 1325.9,119.882 1322.43,117.458C1317.53,114.039 1310.44,109.084 1305.99,105.973C1303.29,104.089 1300.07,103.102 1296.78,103.151C1285.6,103.317 1259.29,103.708 1253.14,103.799C1252.28,103.812 1251.42,103.897 1250.57,104.052C1247.25,104.656 1238.15,106.315 1231.04,107.612C1225.27,108.663 1220.57,112.843 1218.86,118.447C1216.85,125.016 1214.22,133.622 1212.59,138.932C1211.62,142.107 1211.68,145.507 1212.77,148.644C1214.41,153.388 1216.95,160.711 1218.89,166.32C1220.61,171.298 1224.72,175.077 1229.83,176.379C1238.88,178.69 1252.9,182.267 1258.21,183.621C1259.63,183.983 1261.08,184.144 1262.54,184.101C1269.87,183.886 1293.46,183.195 1301.99,182.945C1304.04,182.885 1306.07,182.421 1307.94,181.58C1310.83,180.283 1315.38,178.245 1318.93,176.653C1322.32,175.13 1325.07,172.448 1326.67,169.087C1328.1,166.069 1329.89,162.311 1331.26,159.438C1332.63,156.558 1333.09,153.329 1332.58,150.181C1331.62,144.3 1329.99,134.347 1328.92,127.786Z"/>
                    </clipPath>
                    <g clip-path="url(#_clip17)">
                        <g transform="matrix(0.917579,0.397553,-0.397553,0.917579,138.896,-503.783)">
                            <path d="M1242.25,80.336L1221.65,109.323L1242.25,137.042C1251.42,145.897 1306,150.575 1331.51,143.621C1385.71,130.518 1386.42,107.496 1392.71,89.052L1242.25,80.336Z" style="fill:rgb(207,211,216);"/>
                        </g>
                        <g transform="matrix(0.92191,0.387404,-0.387404,0.92191,152.169,-476.355)">
                            <path d="M1211.1,132.63C1217.32,142.433 1223.01,152.228 1237.05,162.144C1243.74,166.613 1254.98,169.724 1266.1,171.64C1282.26,173.701 1295.08,170.378 1307.3,166.076L1333.36,172.344L1240.87,225.75L1177.11,171.64L1211.1,132.63L1540.41,149.144" style="fill:rgb(136,142,149);"/>
                        </g>
                        <g transform="matrix(0.996327,0.0856244,-0.0856244,0.996327,34.6759,-222.667)">
                            <path d="M1274.92,238.943C1274.92,238.943 1272.41,238.345 1269.27,237.598C1266.04,236.831 1262.63,237.39 1259.82,239.151C1257.01,240.912 1255.02,243.728 1254.3,246.969C1254.3,246.97 1254.3,246.971 1254.3,246.972C1253.34,251.249 1254.67,255.714 1257.8,258.78C1260.93,261.847 1265.42,263.08 1269.67,262.042C1271.81,261.521 1273.9,261.011 1275.82,260.542C1278.08,259.991 1279.96,258.425 1280.91,256.301C1281.86,254.176 1281.77,251.733 1280.67,249.681C1277.91,244.523 1274.92,238.943 1274.92,238.943Z" style="fill:rgb(136,142,149);"/>
                        </g>
                    </g>
                    <path d="M1328.92,127.786C1328.24,123.608 1325.9,119.882 1322.43,117.458C1317.53,114.039 1310.44,109.084 1305.99,105.973C1303.29,104.089 1300.07,103.102 1296.78,103.151C1285.6,103.317 1259.29,103.708 1253.14,103.799C1252.28,103.812 1251.42,103.897 1250.57,104.052C1247.25,104.656 1238.15,106.315 1231.04,107.612C1225.27,108.663 1220.57,112.843 1218.86,118.447C1216.85,125.016 1214.22,133.622 1212.59,138.932C1211.62,142.107 1211.68,145.507 1212.77,148.644C1214.41,153.388 1216.95,160.711 1218.89,166.32C1220.61,171.298 1224.72,175.077 1229.83,176.379C1238.88,178.69 1252.9,182.267 1258.21,183.621C1259.63,183.983 1261.08,184.144 1262.54,184.101C1269.87,183.886 1293.46,183.195 1301.99,182.945C1304.04,182.885 1306.07,182.421 1307.94,181.58C1310.83,180.283 1315.38,178.245 1318.93,176.653C1322.32,175.13 1325.07,172.448 1326.67,169.087C1328.1,166.069 1329.89,162.311 1331.26,159.438C1332.63,156.558 1333.09,153.329 1332.58,150.181C1331.62,144.3 1329.99,134.347 1328.92,127.786Z" style="fill:none;stroke:black;stroke-width:5px;"/>
                </g>
                <g transform="matrix(1,0,0,1,430.149,-479.44)">
                    <path d="M523.208,231.789L523.208,188.477C523.208,170.923 537.46,156.672 555.014,156.672C572.568,156.672 586.819,170.923 586.819,188.477L586.819,235.066C586.819,252.62 579.201,268.279 561.647,268.279C558.879,268.279 553.75,266.797 551.564,263.501C547.594,259.452 557.089,245.838 561.647,249.564C567.326,254.205 568.302,242.202 568.302,234.868L568.302,188.675C568.302,181.342 562.347,175.387 555.014,175.387C547.68,175.387 541.726,181.342 541.726,188.675L541.726,228.617L530.798,229.72L523.208,231.789Z" style="fill:rgb(171,180,192);"/>
                    <clipPath id="_clip18">
                        <path d="M523.208,231.789L523.208,188.477C523.208,170.923 537.46,156.672 555.014,156.672C572.568,156.672 586.819,170.923 586.819,188.477L586.819,235.066C586.819,252.62 579.201,268.279 561.647,268.279C558.879,268.279 553.75,266.797 551.564,263.501C547.594,259.452 557.089,245.838 561.647,249.564C567.326,254.205 568.302,242.202 568.302,234.868L568.302,188.675C568.302,181.342 562.347,175.387 555.014,175.387C547.68,175.387 541.726,181.342 541.726,188.675L541.726,228.617L530.798,229.72L523.208,231.789Z"/>
                    </clipPath>
                    <g clip-path="url(#_clip18)">
                        <g transform="matrix(0.929807,0.368046,-0.368046,0.929807,61.2514,-68.6673)">
                            <path d="M536.87,0C538.075,15.784 532.447,26.253 532.447,26.253C563.372,35.858 571.363,39.684 587.72,72.809C596.643,90.877 631.699,63.089 646.63,40.833L536.87,0Z" style="fill:rgb(207,211,216);"/>
                        </g>
                        <g transform="matrix(0.932484,-0.361213,0.361213,0.932484,-9.25715,268.2)">
                            <path d="M510.961,138.169C530.896,167.28 547.522,177.412 548.206,162.045C575.894,169.454 488.79,172.242 488.79,172.242L510.961,138.169Z" style="fill:rgb(136,142,149);"/>
                        </g>
                    </g>
                    <path d="M523.208,231.789L523.208,188.477C523.208,170.923 537.46,156.672 555.014,156.672C572.568,156.672 586.819,170.923 586.819,188.477L586.819,235.066C586.819,252.62 579.201,268.279 561.647,268.279C558.879,268.279 553.75,266.797 551.564,263.501C547.594,259.452 557.089,245.838 561.647,249.564C567.326,254.205 568.302,242.202 568.302,234.868L568.302,188.675C568.302,181.342 562.347,175.387 555.014,175.387C547.68,175.387 541.726,181.342 541.726,188.675L541.726,228.617L530.798,229.72L523.208,231.789Z" style="fill:none;stroke:black;stroke-width:5px;"/>
                </g>
                <g transform="matrix(1,0,0,1,1147.37,-486.409)">
                    <path d="M523.208,231.789L523.208,188.477C523.208,170.923 537.46,156.672 555.014,156.672C572.568,156.672 586.819,170.923 586.819,188.477L586.819,235.066C586.819,252.62 575.435,258.283 559.005,264.463C546.534,269.153 540.668,250.446 551.583,245.606C558.288,242.634 568.302,245.725 568.302,234.868L568.302,188.675C568.302,181.342 562.347,175.387 555.014,175.387C547.68,175.387 541.726,181.342 541.726,188.675L541.726,228.617L530.798,229.72L523.208,231.789Z" style="fill:rgb(171,180,192);"/>
                    <clipPath id="_clip19">
                        <path d="M523.208,231.789L523.208,188.477C523.208,170.923 537.46,156.672 555.014,156.672C572.568,156.672 586.819,170.923 586.819,188.477L586.819,235.066C586.819,252.62 575.435,258.283 559.005,264.463C546.534,269.153 540.668,250.446 551.583,245.606C558.288,242.634 568.302,245.725 568.302,234.868L568.302,188.675C568.302,181.342 562.347,175.387 555.014,175.387C547.68,175.387 541.726,181.342 541.726,188.675L541.726,228.617L530.798,229.72L523.208,231.789Z"/>
                    </clipPath>
                    <g clip-path="url(#_clip19)">
                        <g transform="matrix(0.929807,0.368046,-0.368046,0.929807,54.3986,-72.1925)">
                            <path d="M536.87,0C538.075,15.784 532.447,26.253 532.447,26.253C563.372,35.858 571.363,39.684 587.72,72.809C596.643,90.877 631.699,63.089 646.63,40.833L536.87,0Z" style="fill:rgb(207,211,216);"/>
                        </g>
                        <g transform="matrix(0.932484,-0.361213,0.361213,0.932484,-10.1601,261.857)">
                            <path d="M510.961,138.169C530.896,167.28 547.522,177.412 548.206,162.045C575.894,169.454 488.79,172.242 488.79,172.242L510.961,138.169Z" style="fill:rgb(136,142,149);"/>
                        </g>
                    </g>
                    <path d="M523.208,231.789L523.208,188.477C523.208,170.923 537.46,156.672 555.014,156.672C572.568,156.672 586.819,170.923 586.819,188.477L586.819,235.066C586.819,252.62 575.435,258.283 559.005,264.463C546.534,269.153 540.668,250.446 551.583,245.606C558.288,242.634 568.302,245.725 568.302,234.868L568.302,188.675C568.302,181.342 562.347,175.387 555.014,175.387C547.68,175.387 541.726,181.342 541.726,188.675L541.726,228.617L530.798,229.72L523.208,231.789Z" style="fill:none;stroke:black;stroke-width:5px;"/>
                </g>
                <g transform="matrix(1,0,0,1,430.149,-479.44)">
                    <path d="M568.302,196.432C564.257,198.296 559.756,199.336 555.014,199.336C537.46,199.336 523.208,185.085 523.208,167.531L523.208,120.942C523.208,103.388 537.739,86.017 555.014,89.136C571.542,92.121 584.875,94.425 585.376,110.52C588.784,128.396 593.737,156.758 591.79,171.218C591.79,174.887 589.403,186.989 588.258,190.269C586.854,186.246 585.841,178.19 582.259,172.068C578.564,165.752 572.261,161.402 568.302,159.576L568.302,121.14C568.302,113.806 562.347,107.852 555.014,107.852C547.68,107.852 541.726,113.806 541.726,121.14L541.726,167.333C541.726,174.666 547.68,180.621 555.014,180.621C557.978,180.621 560.717,179.648 562.928,178.004C566.188,180.426 568.302,184.306 568.302,188.675L568.302,196.432Z" style="fill:rgb(171,180,192);"/>
                    <clipPath id="_clip20">
                        <path d="M568.302,196.432C564.257,198.296 559.756,199.336 555.014,199.336C537.46,199.336 523.208,185.085 523.208,167.531L523.208,120.942C523.208,103.388 537.739,86.017 555.014,89.136C571.542,92.121 584.875,94.425 585.376,110.52C588.784,128.396 593.737,156.758 591.79,171.218C591.79,174.887 589.403,186.989 588.258,190.269C586.854,186.246 585.841,178.19 582.259,172.068C578.564,165.752 572.261,161.402 568.302,159.576L568.302,121.14C568.302,113.806 562.347,107.852 555.014,107.852C547.68,107.852 541.726,113.806 541.726,121.14L541.726,167.333C541.726,174.666 547.68,180.621 555.014,180.621C557.978,180.621 560.717,179.648 562.928,178.004C566.188,180.426 568.302,184.306 568.302,188.675L568.302,196.432Z"/>
                    </clipPath>
                    <g clip-path="url(#_clip20)">
                        <g transform="matrix(0.983326,0.181849,-0.181849,0.983326,16.7036,-36.1708)">
                            <path d="M536.87,0C538.075,15.784 532.447,26.253 532.447,26.253C563.372,35.858 576.317,34.231 578.794,71.169C580.143,91.275 631.699,63.089 646.63,40.833L536.87,0Z" style="fill:rgb(207,211,216);"/>
                        </g>
                        <path d="M510.961,138.169C530.896,167.28 546.867,187.232 547.55,171.866C575.239,179.275 590.855,187.759 563.758,200.049L531.817,219.026L488.79,172.242L510.961,138.169Z" style="fill:rgb(136,142,149);"/>
                    </g>
                    <path d="M568.302,196.432C564.257,198.296 559.756,199.336 555.014,199.336C537.46,199.336 523.208,185.085 523.208,167.531L523.208,120.942C523.208,103.388 537.739,86.017 555.014,89.136C571.542,92.121 584.875,94.425 585.376,110.52C588.784,128.396 593.737,156.758 591.79,171.218C591.79,174.887 589.403,186.989 588.258,190.269C586.854,186.246 585.841,178.19 582.259,172.068C578.564,165.752 572.261,161.402 568.302,159.576L568.302,121.14C568.302,113.806 562.347,107.852 555.014,107.852C547.68,107.852 541.726,113.806 541.726,121.14L541.726,167.333C541.726,174.666 547.68,180.621 555.014,180.621C557.978,180.621 560.717,179.648 562.928,178.004C566.188,180.426 568.302,184.306 568.302,188.675L568.302,196.432Z" style="fill:none;stroke:black;stroke-width:5px;"/>
                </g>
                <g transform="matrix(1,0,0,1,430.149,-547.009)">
                    <path d="M568.302,196.432C564.257,198.296 559.756,199.336 555.014,199.336C537.46,199.336 523.208,185.085 523.208,167.531L523.208,120.942C523.208,103.388 537.46,89.136 555.014,89.136C572.568,89.136 586.819,103.388 586.819,120.942L586.819,167.531C586.819,171.199 586.197,174.724 585.052,178.004C582.198,169.829 576.099,163.171 568.302,159.576L568.302,121.14C568.302,113.806 562.347,107.852 555.014,107.852C547.68,107.852 541.726,113.806 541.726,121.14L541.726,167.333C541.726,174.666 547.68,180.621 555.014,180.621C557.978,180.621 560.717,179.648 562.928,178.004C566.188,180.426 568.302,184.306 568.302,188.675L568.302,196.432Z" style="fill:rgb(171,180,192);"/>
                    <clipPath id="_clip21">
                        <path d="M568.302,196.432C564.257,198.296 559.756,199.336 555.014,199.336C537.46,199.336 523.208,185.085 523.208,167.531L523.208,120.942C523.208,103.388 537.46,89.136 555.014,89.136C572.568,89.136 586.819,103.388 586.819,120.942L586.819,167.531C586.819,171.199 586.197,174.724 585.052,178.004C582.198,169.829 576.099,163.171 568.302,159.576L568.302,121.14C568.302,113.806 562.347,107.852 555.014,107.852C547.68,107.852 541.726,113.806 541.726,121.14L541.726,167.333C541.726,174.666 547.68,180.621 555.014,180.621C557.978,180.621 560.717,179.648 562.928,178.004C566.188,180.426 568.302,184.306 568.302,188.675L568.302,196.432Z"/>
                    </clipPath>
                    <g clip-path="url(#_clip21)">
                        <g transform="matrix(1,0,0,1,0,67)">
                            <path d="M536.87,0C538.075,15.784 538.584,23.895 538.584,23.895C569.509,33.5 576.4,52.865 578.794,71.169C581.407,91.15 614.098,81.869 645.127,77.236L536.87,0Z" style="fill:rgb(207,211,216);"/>
                        </g>
                        <g transform="matrix(1,0,0,1,0,67.569)">
                            <path d="M523.208,64.243C530.058,98.958 553.746,123.976 586.819,131.767L496.56,144.977C496.56,144.977 524.021,62.775 523.208,64.243" style="fill:rgb(136,142,149);"/>
                        </g>
                    </g>
                    <path d="M568.302,196.432C564.257,198.296 559.756,199.336 555.014,199.336C537.46,199.336 523.208,185.085 523.208,167.531L523.208,120.942C523.208,103.388 537.46,89.136 555.014,89.136C572.568,89.136 586.819,103.388 586.819,120.942L586.819,167.531C586.819,171.199 586.197,174.724 585.052,178.004C582.198,169.829 576.099,163.171 568.302,159.576L568.302,121.14C568.302,113.806 562.347,107.852 555.014,107.852C547.68,107.852 541.726,113.806 541.726,121.14L541.726,167.333C541.726,174.666 547.68,180.621 555.014,180.621C557.978,180.621 560.717,179.648 562.928,178.004C566.188,180.426 568.302,184.306 568.302,188.675L568.302,196.432Z" style="fill:none;stroke:black;stroke-width:5px;"/>
                </g>
                <g transform="matrix(1,0,0,1,1147.81,-485.938)">
                    <path d="M568.302,196.432C564.257,198.296 559.756,199.336 555.014,199.336C537.46,199.336 521.364,194.785 518.157,182.442C514.607,168.776 520.732,146.631 523.208,120.942C523.208,103.388 537.46,89.136 555.014,89.136C572.568,89.136 586.819,103.388 586.819,120.942L586.819,167.531C586.819,171.199 586.197,174.724 585.052,178.004C582.198,169.829 576.099,163.171 568.302,159.576L568.302,121.14C568.302,113.806 562.347,107.852 555.014,107.852C547.68,107.852 541.726,113.806 541.726,121.14L538.118,171.742C538.118,179.076 547.68,180.621 555.014,180.621C557.978,180.621 560.717,179.648 562.928,178.004C566.188,180.426 568.302,184.306 568.302,188.675L568.302,196.432Z" style="fill:rgb(171,180,192);"/>
                    <clipPath id="_clip22">
                        <path d="M568.302,196.432C564.257,198.296 559.756,199.336 555.014,199.336C537.46,199.336 521.364,194.785 518.157,182.442C514.607,168.776 520.732,146.631 523.208,120.942C523.208,103.388 537.46,89.136 555.014,89.136C572.568,89.136 586.819,103.388 586.819,120.942L586.819,167.531C586.819,171.199 586.197,174.724 585.052,178.004C582.198,169.829 576.099,163.171 568.302,159.576L568.302,121.14C568.302,113.806 562.347,107.852 555.014,107.852C547.68,107.852 541.726,113.806 541.726,121.14L538.118,171.742C538.118,179.076 547.68,180.621 555.014,180.621C557.978,180.621 560.717,179.648 562.928,178.004C566.188,180.426 568.302,184.306 568.302,188.675L568.302,196.432Z"/>
                    </clipPath>
                    <g clip-path="url(#_clip22)">
                        <g transform="matrix(0.983326,0.181849,-0.181849,0.983326,16.7036,-36.1708)">
                            <path d="M536.87,0C538.075,15.784 532.447,26.253 532.447,26.253C563.372,35.858 576.317,34.231 578.794,71.169C580.143,91.275 631.699,63.089 646.63,40.833L536.87,0Z" style="fill:rgb(207,211,216);"/>
                        </g>
                        <path d="M510.961,138.169C530.896,167.28 546.867,187.232 547.55,171.866C575.239,179.275 590.855,187.759 563.758,200.049L531.817,219.026L488.79,172.242L510.961,138.169Z" style="fill:rgb(136,142,149);"/>
                    </g>
                    <path d="M568.302,196.432C564.257,198.296 559.756,199.336 555.014,199.336C537.46,199.336 521.364,194.785 518.157,182.442C514.607,168.776 520.732,146.631 523.208,120.942C523.208,103.388 537.46,89.136 555.014,89.136C572.568,89.136 586.819,103.388 586.819,120.942L586.819,167.531C586.819,171.199 586.197,174.724 585.052,178.004C582.198,169.829 576.099,163.171 568.302,159.576L568.302,121.14C568.302,113.806 562.347,107.852 555.014,107.852C547.68,107.852 541.726,113.806 541.726,121.14L538.118,171.742C538.118,179.076 547.68,180.621 555.014,180.621C557.978,180.621 560.717,179.648 562.928,178.004C566.188,180.426 568.302,184.306 568.302,188.675L568.302,196.432Z" style="fill:none;stroke:black;stroke-width:5px;"/>
                </g>
                <g transform="matrix(1,0,0,1,1147.81,-553.507)">
                    <path d="M568.302,196.432C564.257,198.296 559.756,199.336 555.014,199.336C537.46,199.336 523.208,185.085 523.208,167.531L523.208,120.942C523.208,103.388 537.46,89.136 555.014,89.136C572.568,89.136 586.819,103.388 586.819,120.942L586.819,167.531C586.819,171.199 586.197,174.724 585.052,178.004C582.198,169.829 576.099,163.171 568.302,159.576L568.302,121.14C568.302,113.806 562.347,107.852 555.014,107.852C547.68,107.852 541.726,113.806 541.726,121.14L541.726,167.333C541.726,174.666 547.68,180.621 555.014,180.621C557.978,180.621 560.717,179.648 562.928,178.004C566.188,180.426 568.302,184.306 568.302,188.675L568.302,196.432Z" style="fill:rgb(171,180,192);"/>
                    <clipPath id="_clip23">
                        <path d="M568.302,196.432C564.257,198.296 559.756,199.336 555.014,199.336C537.46,199.336 523.208,185.085 523.208,167.531L523.208,120.942C523.208,103.388 537.46,89.136 555.014,89.136C572.568,89.136 586.819,103.388 586.819,120.942L586.819,167.531C586.819,171.199 586.197,174.724 585.052,178.004C582.198,169.829 576.099,163.171 568.302,159.576L568.302,121.14C568.302,113.806 562.347,107.852 555.014,107.852C547.68,107.852 541.726,113.806 541.726,121.14L541.726,167.333C541.726,174.666 547.68,180.621 555.014,180.621C557.978,180.621 560.717,179.648 562.928,178.004C566.188,180.426 568.302,184.306 568.302,188.675L568.302,196.432Z"/>
                    </clipPath>
                    <g clip-path="url(#_clip23)">
                        <g transform="matrix(1,0,0,1,0,67)">
                            <path d="M536.87,0C538.075,15.784 538.584,23.895 538.584,23.895C569.509,33.5 576.4,52.865 578.794,71.169C581.407,91.15 614.098,81.869 645.127,77.236L536.87,0Z" style="fill:rgb(207,211,216);"/>
                        </g>
                        <g transform="matrix(1,0,0,1,0,67.569)">
                            <path d="M523.208,64.243C530.058,98.958 553.746,123.976 586.819,131.767L496.56,144.977C496.56,144.977 524.021,62.775 523.208,64.243" style="fill:rgb(136,142,149);"/>
                        </g>
                    </g>
                    <path d="M568.302,196.432C564.257,198.296 559.756,199.336 555.014,199.336C537.46,199.336 523.208,185.085 523.208,167.531L523.208,120.942C523.208,103.388 537.46,89.136 555.014,89.136C572.568,89.136 586.819,103.388 586.819,120.942L586.819,167.531C586.819,171.199 586.197,174.724 585.052,178.004C582.198,169.829 576.099,163.171 568.302,159.576L568.302,121.14C568.302,113.806 562.347,107.852 555.014,107.852C547.68,107.852 541.726,113.806 541.726,121.14L541.726,167.333C541.726,174.666 547.68,180.621 555.014,180.621C557.978,180.621 560.717,179.648 562.928,178.004C566.188,180.426 568.302,184.306 568.302,188.675L568.302,196.432Z" style="fill:none;stroke:black;stroke-width:5px;"/>
                </g>
            </g>
        </g>
    </g>
    <defs>
        <linearGradient id="_Linear1" x1="0" y1="0" x2="1" y2="0" gradientUnits="userSpaceOnUse" gradientTransform="matrix(4.50023e-14,734.944,-734.944,4.50023e-14,926.075,160.203)"><stop offset="0" style="stop-color:rgb(233,197,140);stop-opacity:1"/><stop offset="0.53" style="stop-color:rgb(179,144,96);stop-opacity:1"/><stop offset="1" style="stop-color:rgb(148,118,79);stop-opacity:1"/></linearGradient>
        <radialGradient id="_Radial3" cx="0" cy="0" r="1" gradientUnits="userSpaceOnUse" gradientTransform="matrix(421.036,2.40783e-12,-1.4149e-12,310.239,920.303,521.367)"><stop offset="0" style="stop-color:rgb(255,238,191);stop-opacity:1"/><stop offset="0.52" style="stop-color:rgb(255,236,186);stop-opacity:1"/><stop offset="1" style="stop-color:rgb(255,222,167);stop-opacity:1"/></radialGradient>
        <linearGradient id="_Linear5" x1="0" y1="0" x2="1" y2="0" gradientUnits="userSpaceOnUse" gradientTransform="matrix(5.61255e-15,267.012,-91.66,1.63498e-14,630.427,92.9661)"><stop offset="0" style="stop-color:rgb(233,197,140);stop-opacity:0.03"/><stop offset="0.53" style="stop-color:rgb(179,144,96);stop-opacity:0.03"/><stop offset="1" style="stop-color:rgb(148,118,79);stop-opacity:0.03"/></linearGradient>
        <linearGradient id="_Linear6" x1="0" y1="0" x2="1" y2="0" gradientUnits="userSpaceOnUse" gradientTransform="matrix(5.61255e-15,267.012,-91.66,1.63498e-14,630.427,92.9661)"><stop offset="0" style="stop-color:rgb(233,197,140);stop-opacity:0.03"/><stop offset="0.53" style="stop-color:rgb(179,144,96);stop-opacity:0.03"/><stop offset="1" style="stop-color:rgb(148,118,79);stop-opacity:0.03"/></linearGradient>
        <linearGradient id="_Linear7" x1="0" y1="0" x2="1" y2="0" gradientUnits="userSpaceOnUse" gradientTransform="matrix(5.61255e-15,267.012,-91.66,1.63498e-14,630.427,92.9661)"><stop offset="0" style="stop-color:rgb(233,197,140);stop-opacity:0.03"/><stop offset="0.53" style="stop-color:rgb(179,144,96);stop-opacity:0.03"/><stop offset="1" style="stop-color:rgb(148,118,79);stop-opacity:0.03"/></linearGradient>
        <linearGradient id="_Linear8" x1="0" y1="0" x2="1" y2="0" gradientUnits="userSpaceOnUse" gradientTransform="matrix(5.61255e-15,267.012,-91.66,1.63498e-14,630.427,92.9661)"><stop offset="0" style="stop-color:rgb(233,197,140);stop-opacity:0.03"/><stop offset="0.53" style="stop-color:rgb(179,144,96);stop-opacity:0.03"/><stop offset="1" style="stop-color:rgb(148,118,79);stop-opacity:0.03"/></linearGradient>
        <linearGradient id="_Linear9" x1="0" y1="0" x2="1" y2="0" gradientUnits="userSpaceOnUse" gradientTransform="matrix(5.61255e-15,267.012,-91.66,1.63498e-14,630.427,92.9661)"><stop offset="0" style="stop-color:rgb(233,197,140);stop-opacity:0.03"/><stop offset="0.53" style="stop-color:rgb(179,144,96);stop-opacity:0.03"/><stop offset="1" style="stop-color:rgb(148,118,79);stop-opacity:0.03"/></linearGradient>
        <linearGradient id="_Linear10" x1="0" y1="0" x2="1" y2="0" gradientUnits="userSpaceOnUse" gradientTransform="matrix(5.61255e-15,267.012,-91.66,1.63498e-14,630.427,92.9661)"><stop offset="0" style="stop-color:rgb(233,197,140);stop-opacity:0.03"/><stop offset="0.53" style="stop-color:rgb(179,144,96);stop-opacity:0.03"/><stop offset="1" style="stop-color:rgb(148,118,79);stop-opacity:0.03"/></linearGradient>
    </defs>
</svg>
