<?xml version="1.0" encoding="UTF-8" standalone="no"?>
<!DOCTYPE svg PUBLIC "-//W3C//DTD SVG 1.1//EN" "http://www.w3.org/Graphics/SVG/1.1/DTD/svg11.dtd">
<svg width="100%" height="100%" viewBox="0 0 95 95" version="1.1" xmlns="http://www.w3.org/2000/svg" xmlns:xlink="http://www.w3.org/1999/xlink" xml:space="preserve" xmlns:serif="http://www.serif.com/" style="fill-rule:evenodd;clip-rule:evenodd;stroke-linecap:round;stroke-linejoin:round;stroke-miterlimit:1.5;">
    <g transform="matrix(1,0,0,1,-5292,-971)">
        <g transform="matrix(2.00001,0,0,2.00001,-6320.44,-4924.36)">
            <g transform="matrix(0.278609,-6.62563e-17,6.62563e-17,0.278609,5483.91,2936.47)">
                <g id="nail2">
                    <path d="M1241.9,45.868C1270.6,45.868 1295.79,61.051 1309.86,83.817C1317.39,95.997 1321.74,110.348 1321.74,125.706C1321.74,147.974 1312.6,168.126 1297.87,182.612C1283.46,196.791 1263.69,205.544 1241.9,205.544C1197.83,205.544 1162.06,169.77 1162.06,125.706C1162.06,95.29 1179.11,68.823 1204.16,55.347C1215.4,49.3 1228.25,45.868 1241.9,45.868Z" style="fill:rgb(171,180,192);"/>
                    <clipPath id="_clip1">
                        <path d="M1241.9,45.868C1270.6,45.868 1295.79,61.051 1309.86,83.817C1317.39,95.997 1321.74,110.348 1321.74,125.706C1321.74,147.974 1312.6,168.126 1297.87,182.612C1283.46,196.791 1263.69,205.544 1241.9,205.544C1197.83,205.544 1162.06,169.77 1162.06,125.706C1162.06,95.29 1179.11,68.823 1204.16,55.347C1215.4,49.3 1228.25,45.868 1241.9,45.868Z"/>
                    </clipPath>
                    <g clip-path="url(#_clip1)">
                        <g transform="matrix(1.37656,1.03298,-0.586357,0.781387,-386.035,-1247.91)">
                            <path d="M1241.9,45.868C1270.6,45.868 1295.79,61.051 1309.86,83.817C1317.39,95.997 1321.74,110.348 1321.74,125.706C1321.74,147.974 1312.6,168.126 1297.87,182.612C1283.46,196.791 1263.69,205.544 1241.9,205.544C1197.83,205.544 1162.06,169.77 1162.06,125.706C1162.06,95.29 1179.11,68.823 1204.16,55.347C1215.4,49.3 1228.25,45.868 1241.9,45.868Z" style="fill:rgb(136,142,149);"/>
                        </g>
                        <g transform="matrix(0.776397,0.582612,-0.586357,0.781387,377.513,-728.422)">
                            <path d="M1241.9,45.868C1270.6,45.868 1295.79,61.051 1309.86,83.817C1317.39,95.997 1321.74,110.348 1321.74,125.706C1321.74,147.974 1312.6,168.126 1297.87,182.612C1283.46,196.791 1263.69,205.544 1241.9,205.544C1197.83,205.544 1162.06,169.77 1162.06,125.706C1162.06,95.29 1179.11,68.823 1204.16,55.347C1215.4,49.3 1228.25,45.868 1241.9,45.868Z" style="fill:rgb(171,180,192);"/>
                        </g>
                        <g transform="matrix(0.751417,0.563867,-0.586357,0.781387,453.011,-752.621)">
                            <path d="M1241.9,45.868C1270.6,45.868 1295.79,61.051 1309.86,83.817C1317.39,95.997 1321.74,110.348 1321.74,125.706C1321.74,147.974 1312.6,168.126 1297.87,182.612C1283.46,196.791 1263.69,205.544 1241.9,205.544C1197.83,205.544 1162.06,169.77 1162.06,125.706C1162.06,95.29 1179.11,68.823 1204.16,55.347C1215.4,49.3 1228.25,45.868 1241.9,45.868Z" style="fill:rgb(207,211,216);"/>
                        </g>
                    </g>
                    <path d="M1241.9,45.868C1270.6,45.868 1295.79,61.051 1309.86,83.817C1317.39,95.997 1321.74,110.348 1321.74,125.706C1321.74,147.974 1312.6,168.126 1297.87,182.612C1283.46,196.791 1263.69,205.544 1241.9,205.544C1197.83,205.544 1162.06,169.77 1162.06,125.706C1162.06,95.29 1179.11,68.823 1204.16,55.347C1215.4,49.3 1228.25,45.868 1241.9,45.868Z" style="fill:none;stroke:black;stroke-width:8.97px;"/>
                </g>
            </g>
        </g>
    </g>
</svg>
