<?xml version="1.0" encoding="UTF-8" standalone="no"?>
<!DOCTYPE svg PUBLIC "-//W3C//DTD SVG 1.1//EN" "http://www.w3.org/Graphics/SVG/1.1/DTD/svg11.dtd">
<svg width="100%" height="100%" viewBox="0 0 1094 290" version="1.1" xmlns="http://www.w3.org/2000/svg" xmlns:xlink="http://www.w3.org/1999/xlink" xml:space="preserve" xmlns:serif="http://www.serif.com/" style="fill-rule:evenodd;clip-rule:evenodd;stroke-linecap:round;stroke-linejoin:round;stroke-miterlimit:1.5;">
    <g transform="matrix(1,0,0,1,-5710,-2127)">
        <g transform="matrix(2.00001,0,0,2.00001,-6320.44,-4924.36)">
            <g id="wood_plank1" transform="matrix(0.499998,0,0,0.499998,5844.84,3467.29)">
                <path d="M392.658,143.544L374.011,182.151L382.761,240.115L413.438,232.505L392.658,143.544Z" style="fill:rgb(94,70,54);stroke:black;stroke-width:5px;"/>
                <path d="M382.761,240.115L344.088,280.581L364.613,290.697L413.438,232.505L382.761,240.115" style="fill:rgb(94,70,54);stroke:black;stroke-width:5px;"/>
                <path d="M344.088,280.581L344.088,351.976L360.942,339.584L364.613,290.697L344.088,280.581" style="fill:rgb(94,70,54);stroke:black;stroke-width:5px;"/>
                <path d="M344.088,351.976L360.942,339.584L391.495,371.503L360.942,391.873L344.088,351.976Z" style="fill:rgb(94,70,54);stroke:black;stroke-width:5px;"/>
                <path d="M391.495,371.503L478.8,391.873L449.11,395.042L360.942,391.873L391.495,371.503Z" style="fill:rgb(94,70,54);stroke:black;stroke-width:5px;"/>
                <path d="M1416.61,143.544L1176.83,119.484L941.759,159.429L820.18,143.544L554.426,121.671L392.658,143.544L413.438,232.505L364.613,290.697L360.942,339.584L391.495,371.503L478.8,391.873L599.007,382.534L767.818,391.873L906.781,391.873L987.853,402.568L1148.76,383.157L1285.13,396.903L1386.3,403.44L1429.92,380.136L1403.51,291.51L1431.92,232.511L1416.61,143.544Z" style="fill:url(#_Linear1);"/>
                <clipPath id="_clip2">
                    <path d="M1416.61,143.544L1176.83,119.484L941.759,159.429L820.18,143.544L554.426,121.671L392.658,143.544L413.438,232.505L364.613,290.697L360.942,339.584L391.495,371.503L478.8,391.873L599.007,382.534L767.818,391.873L906.781,391.873L987.853,402.568L1148.76,383.157L1285.13,396.903L1386.3,403.44L1429.92,380.136L1403.51,291.51L1431.92,232.511L1416.61,143.544Z"/>
                </clipPath>
                <g clip-path="url(#_clip2)">
                    <path d="M335.689,156.856C485.168,139.252 635.541,121.417 933.959,65.261C1098.81,53.579 1267.29,47.052 1468.49,87.134C1591.31,169.975 1681.44,251.783 1499.93,325.007C1393.27,300.373 1310.22,273.676 960,270.324C825.308,272.442 680.48,264.648 504.693,226.577C417.686,211.609 329.535,194.869 283.225,242.982C175.181,212.46 184.586,183.635 335.689,156.856Z" style="fill:rgb(139,82,45);fill-opacity:0.35;"/>
                    <g transform="matrix(-0.994819,-0.101667,0.101667,-0.994819,1724.2,662.575)">
                        <path d="M335.689,156.856C485.168,139.252 635.541,121.417 933.959,65.261C1098.81,53.579 1267.29,47.052 1468.49,87.134C1591.31,169.975 1681.44,251.783 1499.93,325.007C1393.27,300.373 1310.22,273.676 960,270.324C825.308,272.442 680.48,264.648 504.693,226.577C417.686,211.609 329.535,194.869 283.225,242.982C175.181,212.46 184.586,183.635 335.689,156.856Z" style="fill:rgb(139,82,45);fill-opacity:0.35;"/>
                    </g>
                    <g transform="matrix(1.03645,0,0,1,-32.7655,0)">
                        <path d="M411.101,348.208C513.974,359.665 604.36,364.116 677.957,359.145C766.627,347.111 844.232,341.987 886.159,359.145C968.53,378.886 1046.57,374.385 1123.08,361.332C1260.81,350.505 1354.12,352.259 1398.41,367.894" style="fill:rgb(94,70,54);stroke:rgb(71,50,38);stroke-width:5px;"/>
                    </g>
                    <g transform="matrix(1.03645,0,0,1,-32.7655,0)">
                        <path d="M442.802,418.203C501.8,428.553 562.494,437.274 641.866,428.046C696.078,412.321 766.593,407.441 850.756,411.641C943.775,425.556 998.629,424.154 1042.15,418.203C1131.85,405.703 1206.73,417.512 1278.38,434.608C1327.65,444.709 1369.51,451.393 1407.43,449.92" style="fill:rgb(94,70,54);stroke:rgb(71,50,38);stroke-width:5px;"/>
                    </g>
                    <g transform="matrix(1.03645,0,0,1,-32.7655,0)">
                        <path d="M442.802,232.279C620.165,218.546 648.844,224.566 681.238,230.092C773.382,255.355 848.598,254.408 908.721,230.092C966.689,210.877 1041.2,201.853 1142.77,226.811C1180.73,236.141 1303.54,215.12 1321.03,231.186C1328.24,243.001 1381.74,252.495 1398.41,236.654" style="fill:rgb(94,70,54);stroke:rgb(71,50,38);stroke-width:5px;"/>
                    </g>
                    <g transform="matrix(1.03645,0,0,1,-32.7655,0)">
                        <path d="M411.101,290.244C454.393,282.703 502.135,281.271 559.84,293.525C559.119,298.934 613.202,305.11 804.822,313.211C977.097,299.193 1042.14,289.476 1036.68,282.588C1092.83,270.363 1105.82,301.181 1189.79,295.712C1266.73,290.112 1330.23,292.043 1369.16,307.743" style="fill:rgb(94,70,54);stroke:rgb(71,50,38);stroke-width:5px;"/>
                    </g>
                    <g transform="matrix(1.03645,0,0,1,-32.7655,0)">
                        <path d="M442.818,166.933C442.818,166.933 438.716,176.502 563.121,180.603C687.526,184.705 576.792,127.287 941.804,172.401C1054.71,186.356 1059.37,190.173 1190.61,187.439C1328.66,184.563 1331.42,153.262 1398.41,172.401" style="fill:rgb(94,70,54);stroke:rgb(71,50,38);stroke-width:5px;"/>
                    </g>
                </g>
                <path d="M1416.61,143.544L1176.83,119.484L941.759,159.429L820.18,143.544L554.426,121.671L392.658,143.544L413.438,232.505L364.613,290.697L360.942,339.584L391.495,371.503L478.8,391.873L599.007,382.534L767.818,391.873L906.781,391.873L987.853,402.568L1148.76,383.157L1285.13,396.903L1386.3,403.44L1429.92,380.136L1403.51,291.51L1431.92,232.511L1416.61,143.544Z" style="fill:none;stroke:black;stroke-width:5px;"/>
            </g>
        </g>
    </g>
    <defs>
        <linearGradient id="_Linear1" x1="0" y1="0" x2="1" y2="0" gradientUnits="userSpaceOnUse" gradientTransform="matrix(4.50023e-14,734.944,-734.944,4.50023e-14,926.075,160.203)"><stop offset="0" style="stop-color:rgb(233,197,140);stop-opacity:1"/><stop offset="0.53" style="stop-color:rgb(179,144,96);stop-opacity:1"/><stop offset="1" style="stop-color:rgb(148,118,79);stop-opacity:1"/></linearGradient>
    </defs>
</svg>
