<?xml version="1.0" encoding="iso-8859-1"?>
<!-- Generator: Adobe Illustrator 16.0.0, SVG Export Plug-In . SVG Version: 6.00 Build 0)  -->
<!DOCTYPE svg PUBLIC "-//W3C//DTD SVG 1.1//EN" "http://www.w3.org/Graphics/SVG/1.1/DTD/svg11.dtd">
<svg version="1.1" id="Capa_1" xmlns="http://www.w3.org/2000/svg" xmlns:xlink="http://www.w3.org/1999/xlink" x="0px" y="0px"
	 width="233.486px" height="233.486px" viewBox="0 0 233.486 233.486" style="enable-background:new 0 0 233.486 233.486;"
	 xml:space="preserve">
<g>
	<g>
		<path d="M164.162,111.2c9.404-10.027-1.942-22.521-13.491-19.779v22.155C155.476,114.484,160.418,115.194,164.162,111.2z"/>
		<path d="M70.258,91.224v22.155c0.734,0.009,1.467,0.021,2.199,0.04C93.322,113.42,91.199,87.207,70.258,91.224z"/>
		<path d="M217.414,203.661h-8.696V91.973c0-21.121-7.125-40.575-19.097-56.102l-11.907,3.744l5.088,14.317l0.422,1.181
			l-0.801,0.813l-11.968,12.163c-0.547,0.557-1.442,0.563-2,0.017c-0.532-0.527-0.56-1.379-0.071-1.938l10.407-11.899l-6.481-15.328
			l-0.855-2.021l2.205-1.118l11.172-5.662C168.005,11.624,143.731,0,116.743,0C91.993,0,69.53,9.778,52.999,25.678l13.02,6.601
			l1.314,0.666l0.164,1.164l4.152,29.249c0.111,0.773-0.428,1.488-1.201,1.599c-0.738,0.104-1.424-0.387-1.58-1.105l-5.854-27.43
			l-15.586-4.9c-14.109,16.166-22.66,37.31-22.66,60.452v111.688h-8.697c-5.523,0-10,4.477-10,10v9.824c0,5.521,4.477,10,10,10
			h201.344c5.523,0,10-4.479,10-10v-9.824C227.414,208.139,222.937,203.661,217.414,203.661z M142.632,88.181
			c2.903-0.146,5.907-0.297,8.946-0.297c7.238,0,16.158,0.752,20.929,6.612c0.002,0.002,0.004,0.004,0.006,0.006l0.004,0.008
			c0.002,0.003,0.006,0.006,0.008,0.009c0.004,0.004,0.008,0.008,0.01,0.013c0.002,0.003,0.004,0.006,0.008,0.01
			c3.508,4.343,4.441,8.315,2.773,11.806c-2.795,5.856-12.252,9.017-19.727,9.017c-1.703,0-4.722-0.464-4.722-0.464
			s-2.362,19.296,1.162,23.085c0.793,0.85,1.75,1.464,2.862,1.839h-17.125c5.631-2.34,8.179-14.006,8.179-25.578
			c0-11.74-2.55-23.575-8.187-25.852C139.298,88.347,140.933,88.265,142.632,88.181z M111.773,88.431h18.113
			c-1.951,0.81-4.106,2.958-5.76,7.951c-1.51,4.558-1.613,10.73-1.613,17.383c0,11.422,1.799,23.625,7.293,26.059h-18.117
			c1.943-0.809,4.096-2.956,5.74-7.951c1.501-4.554,1.625-10.727,1.625-17.376C119.056,103.071,117.244,90.866,111.773,88.431z
			 M57.385,88.404c1.904-0.04,3.873-0.123,5.926-0.209c2.979-0.124,6.055-0.253,9.086-0.253c6.043,0,10.6,0.535,14.34,1.685
			c5.75,1.768,8.932,5.687,8.73,10.754c-0.248,6.235-5.465,12.055-12.133,13.538c-0.309,0.068-0.563,0.286-0.674,0.581
			c-0.111,0.294-0.07,0.626,0.115,0.882l10.996,15.279c3.27,4.562,6.615,7.905,11.801,9.162H94.345l-17.752-24.519
			c-0.182-0.253-0.479-0.396-0.795-0.387c-0.902,0.035-1.971,0.071-3.061,0.071c-0.873,0-1.666-0.022-2.422-0.07
			c-0.254-0.015-0.512,0.075-0.701,0.252c-0.188,0.178-0.295,0.425-0.295,0.684c0,1.298-0.119,2.928-0.24,4.654
			c-0.439,6.103-0.986,13.695,2.537,17.479c0.791,0.849,1.746,1.462,2.857,1.836H57.365c5.654-2.34,8.211-14.007,8.211-25.58
			C65.576,102.522,63.025,90.707,57.385,88.404z"/>
	</g>
</g>
<g>
</g>
<g>
</g>
<g>
</g>
<g>
</g>
<g>
</g>
<g>
</g>
<g>
</g>
<g>
</g>
<g>
</g>
<g>
</g>
<g>
</g>
<g>
</g>
<g>
</g>
<g>
</g>
<g>
</g>
</svg>
