<?xml version="1.0" encoding="UTF-8" standalone="no"?>
<!DOCTYPE svg PUBLIC "-//W3C//DTD SVG 1.1//EN" "http://www.w3.org/Graphics/SVG/1.1/DTD/svg11.dtd">
<svg width="100%" height="100%" viewBox="0 0 249 253" version="1.1" xmlns="http://www.w3.org/2000/svg" xmlns:xlink="http://www.w3.org/1999/xlink" xml:space="preserve" xmlns:serif="http://www.serif.com/" style="fill-rule:evenodd;clip-rule:evenodd;stroke-linecap:round;stroke-linejoin:round;stroke-miterlimit:1.5;">
    <g transform="matrix(1,0,0,1,-6958,-989)">
        <g transform="matrix(1,0,0,1,6911.26,928.76)">
            <g id="btn_n_menu2">
                <g transform="matrix(1.04899,0,0,1.04899,-1623.64,-466.933)">
                    <g id="btn_normal">
                        <g id="btn_empty">
                            <g transform="matrix(1.09697,-5.40848e-32,5.40848e-32,1.09697,533.929,-330.381)">
                                <path d="M1067.34,766.82C1123.12,766.82 1175.5,819.843 1177.34,875.587C1179.41,938.254 1123.65,985.999 1065.49,978.076C1010.23,970.547 964.98,929.528 964.98,873.755C964.98,817.981 1011.57,766.82 1067.34,766.82Z" style="fill-opacity:0.35;"/>
                            </g>
                            <g transform="matrix(1,-4.93038e-32,4.93038e-32,1,647.228,-261.882)">
                                <path d="M1067.34,778.581C1097.84,778.581 1125.2,792.12 1143.74,813.511C1159.1,831.239 1168.4,854.359 1168.4,879.635C1168.4,935.409 1123.12,980.69 1067.34,980.69C1011.57,980.69 966.287,935.409 966.287,879.635C966.287,823.862 1011.57,778.581 1067.34,778.581Z" style="fill:rgb(171,180,192);"/>
                                <clipPath id="_clip1">
                                    <path d="M1067.34,778.581C1097.84,778.581 1125.2,792.12 1143.74,813.511C1159.1,831.239 1168.4,854.359 1168.4,879.635C1168.4,935.409 1123.12,980.69 1067.34,980.69C1011.57,980.69 966.287,935.409 966.287,879.635C966.287,823.862 1011.57,778.581 1067.34,778.581Z"/>
                                </clipPath>
                                <g clip-path="url(#_clip1)">
                                    <g transform="matrix(0.641505,3.16287e-32,-4.41302e-32,0.895066,653.207,367.022)">
                                        <path d="M1416.61,143.544L1176.83,119.484L941.759,159.429L820.18,143.544L554.426,121.671L392.658,143.544L413.438,232.505L364.613,290.697L360.942,339.584L391.495,371.503L391.782,506.948L366.76,599.934L385.744,766.032L368.411,826.411L365.279,887.325L451.716,920.051L657.282,934.268L960,898.177L1230.28,929.894L1416.61,920.051L1429.94,876.878L1404.65,808.667L1429.54,733.404L1436.63,661.226L1400.94,552.9L1435.08,446.863L1429.92,380.136L1403.51,291.51L1431.92,232.511L1416.61,143.544Z" style="fill:url(#_Linear2);"/>
                                        <clipPath id="_clip3">
                                            <path d="M1416.61,143.544L1176.83,119.484L941.759,159.429L820.18,143.544L554.426,121.671L392.658,143.544L413.438,232.505L364.613,290.697L360.942,339.584L391.495,371.503L391.782,506.948L366.76,599.934L385.744,766.032L368.411,826.411L365.279,887.325L451.716,920.051L657.282,934.268L960,898.177L1230.28,929.894L1416.61,920.051L1429.94,876.878L1404.65,808.667L1429.54,733.404L1436.63,661.226L1400.94,552.9L1435.08,446.863L1429.92,380.136L1403.51,291.51L1431.92,232.511L1416.61,143.544Z"/>
                                        </clipPath>
                                        <g clip-path="url(#_clip3)">
                                            <g transform="matrix(-0.994819,-0.101667,0.101667,-0.994819,1724.2,662.575)">
                                                <path d="M335.689,156.856C485.168,139.252 635.541,121.417 933.959,65.261C1098.81,53.579 1267.29,47.052 1468.49,87.134C1591.31,169.975 1681.44,251.783 1499.93,325.007C1393.27,300.373 1310.22,273.676 960,270.324C825.308,272.442 680.48,264.648 504.693,226.577C417.686,211.609 329.535,194.869 283.225,242.982C175.181,212.46 184.586,183.635 335.689,156.856Z" style="fill:rgb(139,82,45);fill-opacity:0.35;"/>
                                            </g>
                                            <g transform="matrix(0.998453,-0.0556107,0.0279945,0.502623,-170.078,551.486)">
                                                <path d="M335.689,156.856C485.168,139.252 635.541,121.417 933.959,65.261C1098.81,53.579 1267.29,47.052 1468.49,87.134C1591.31,169.975 1681.44,251.783 1499.93,325.007C1393.27,300.373 1310.22,273.676 960,270.324C825.308,272.442 680.48,264.648 504.693,226.577C417.686,211.609 329.535,194.869 283.225,242.982C175.181,212.46 184.586,183.635 335.689,156.856Z" style="fill:rgb(139,82,45);fill-opacity:0.35;"/>
                                            </g>
                                            <g transform="matrix(-0.999983,-0.00575595,0.00372369,-0.646918,1865.96,860.774)">
                                                <path d="M335.689,156.856C485.168,139.252 635.541,121.417 933.959,65.261C1098.81,53.579 1267.29,47.052 1468.49,87.134C1591.31,169.975 1681.44,251.783 1499.93,325.007C1393.27,300.373 1310.22,273.676 960,270.324C825.308,272.442 680.48,264.648 504.693,226.577C417.686,211.609 329.535,194.869 283.225,242.982C175.181,212.46 184.586,183.635 335.689,156.856Z" style="fill:rgb(139,82,45);fill-opacity:0.35;"/>
                                            </g>
                                            <g transform="matrix(1.03645,0,0,1,-32.7655,0)">
                                                <path d="M442.802,418.203C501.8,428.553 562.494,437.274 641.866,428.046C696.078,412.321 766.593,407.441 850.756,411.641C943.775,425.556 998.629,424.154 1042.15,418.203C1131.85,405.703 1206.73,417.512 1278.38,434.608C1327.65,444.709 1369.51,451.393 1407.43,449.92" style="fill:rgb(94,70,54);stroke:rgb(71,50,38);stroke-width:5px;"/>
                                            </g>
                                            <g transform="matrix(1.03645,0,0,1,-32.7655,0)">
                                                <path d="M427.506,491.479C577.412,513.507 663.85,512.27 711.86,496.947C779.883,484.663 835.02,504.343 920.607,507.884C998.089,524.76 1050.53,535.175 1095.74,526.876C1182.14,518.346 1216.8,527.027 1263.07,506.79C1307.26,497.711 1338.7,511.406 1369.16,526.876" style="fill:rgb(94,70,54);stroke:rgb(71,50,38);stroke-width:5px;"/>
                                            </g>
                                            <g transform="matrix(1.03645,0,0,1,-32.7655,0)">
                                                <path d="M411.101,540C422.999,547.586 466.328,551.807 659.364,540C785.455,542.229 867.916,549.029 938.25,557.099C1028.24,571.074 1106.28,577.426 1161.36,569.13C1222.44,559.093 1282.76,555.78 1340.72,573.504" style="fill:rgb(94,70,54);stroke:rgb(71,50,38);stroke-width:5px;"/>
                                            </g>
                                            <g transform="matrix(1.03645,0,0,1,-32.7655,0)">
                                                <path d="M390.322,594.284C456.619,595.772 516.831,603.991 557.653,633.656C604.435,651.164 567.595,618.109 656.083,613.97C794.559,591.47 914.478,606.094 1026.84,635.843C1139.49,661.186 1208.26,654.456 1265.26,639.124C1281.45,622.835 1339.21,632.624 1407.43,648.967" style="fill:rgb(94,70,54);stroke:rgb(71,50,38);stroke-width:5px;"/>
                                            </g>
                                            <g transform="matrix(1.03645,0,0,1,-32.7655,0)">
                                                <path d="M411.101,720.056C461.783,732.884 524.626,733.476 601.4,720.056C644.479,706.832 708.192,700.651 821.227,711.307C916.093,730.271 1016.48,755.262 1048.71,705.838C1077.75,683.982 1140.35,686.863 1224.79,705.838C1292.53,730.635 1295.99,695.053 1369.16,720.056" style="fill:rgb(94,70,54);stroke:rgb(71,50,38);stroke-width:5px;"/>
                                            </g>
                                        </g>
                                        <path d="M1416.61,143.544L1176.83,119.484L941.759,159.429L820.18,143.544L554.426,121.671L392.658,143.544L413.438,232.505L364.613,290.697L360.942,339.584L391.495,371.503L391.782,506.948L366.76,599.934L385.744,766.032L368.411,826.411L365.279,887.325L451.716,920.051L657.282,934.268L960,898.177L1230.28,929.894L1416.61,920.051L1429.94,876.878L1404.65,808.667L1429.54,733.404L1436.63,661.226L1400.94,552.9L1435.08,446.863L1429.92,380.136L1403.51,291.51L1431.92,232.511L1416.61,143.544Z" style="fill:none;stroke:black;stroke-width:5px;"/>
                                    </g>
                                    <g transform="matrix(0.893724,4.4064e-32,-6.21331e-32,1.26021,-457.525,49.9918)">
                                        <path d="M1803.15,688.381C1816.81,704.769 1803.07,748.597 1797.71,759.682C1785.47,785.012 1641.95,801.804 1574.34,769.135C1506.73,736.467 1512.89,678.006 1552.7,641.301C1563.45,631.388 1605.45,593.146 1629.04,594.501C1614.12,654.637 1620.95,679.221 1658.63,697.426C1694.99,714.994 1754.18,724.198 1803.15,688.381Z" style="fill-opacity:0.15;"/>
                                    </g>
                                    <g transform="matrix(-0.885511,0.120885,-0.170455,-1.24863,2692.9,1498.04)">
                                        <path d="M1803.15,688.381C1816.81,704.769 1803.07,748.597 1797.71,759.682C1785.47,785.012 1641.95,801.804 1574.34,769.135C1506.73,736.467 1512.89,678.006 1552.7,641.301C1563.45,631.388 1605.45,593.146 1629.04,594.501C1614.12,654.637 1620.95,679.221 1658.63,697.426C1694.99,714.994 1754.18,724.198 1803.15,688.381Z" style="fill:rgb(255,222,116);fill-opacity:0.15;"/>
                                    </g>
                                </g>
                                <path d="M1067.34,778.581C1097.84,778.581 1125.2,792.12 1143.74,813.511C1159.1,831.239 1168.4,854.359 1168.4,879.635C1168.4,935.409 1123.12,980.69 1067.34,980.69C1011.57,980.69 966.287,935.409 966.287,879.635C966.287,823.862 1011.57,778.581 1067.34,778.581Z" style="fill:none;stroke:black;stroke-width:5px;"/>
                            </g>
                            <path d="M1714.57,505.906C1732.72,505.906 1749.86,510.237 1765.02,517.921C1801.43,536.375 1826.42,574.17 1826.42,617.754C1826.42,679.484 1776.3,729.601 1714.57,729.601C1652.84,729.601 1602.72,679.484 1602.72,617.754C1602.72,556.023 1652.84,505.906 1714.57,505.906ZM1714.57,534.769C1767.07,534.769 1797.55,565.252 1797.55,617.754C1797.55,670.256 1767.07,700.738 1714.57,700.738C1662.07,700.738 1631.59,670.256 1631.59,617.754C1631.59,565.252 1662.07,534.769 1714.57,534.769Z" style="fill:rgb(171,180,192);"/>
                            <clipPath id="_clip4">
                                <path d="M1714.57,505.906C1732.72,505.906 1749.86,510.237 1765.02,517.921C1801.43,536.375 1826.42,574.17 1826.42,617.754C1826.42,679.484 1776.3,729.601 1714.57,729.601C1652.84,729.601 1602.72,679.484 1602.72,617.754C1602.72,556.023 1652.84,505.906 1714.57,505.906ZM1714.57,534.769C1767.07,534.769 1797.55,565.252 1797.55,617.754C1797.55,670.256 1767.07,700.738 1714.57,700.738C1662.07,700.738 1631.59,670.256 1631.59,617.754C1631.59,565.252 1662.07,534.769 1714.57,534.769Z"/>
                            </clipPath>
                            <g clip-path="url(#_clip4)">
                                <g transform="matrix(1.0032,0,0,1,-13.7716,8.95416)">
                                    <path d="M1714.88,518.737C1776.61,518.737 1814.2,550.453 1814.2,612.184C1814.2,642.943 1839.21,668.304 1822.13,689.92C1804.94,711.685 1745.54,729.601 1714.57,729.601C1673.8,729.601 1596.71,645.223 1601.15,621.509C1602.09,616.461 1666.88,684.674 1647.78,649.2C1608.69,576.653 1653.15,518.737 1714.88,518.737ZM1714.92,552.216C1767.42,552.216 1796.49,563.239 1796.37,615.741C1796.37,616.364 1789.82,649.816 1778.72,666.82C1773.67,674.57 1752.24,687.99 1761.65,689.763C1764.31,690.263 1813.55,671.696 1813.55,671.696C1804.99,698.072 1731.65,720.383 1706.04,713.953C1652.92,700.617 1610.98,649.967 1612.44,618.186C1612.65,613.791 1649.26,674.122 1659.05,678.569C1660.96,679.436 1655.53,645.773 1655.53,644.558C1655.53,592.056 1662.41,552.216 1714.92,552.216Z" style="fill:rgb(136,142,149);"/>
                                </g>
                                <g transform="matrix(1.0032,0,0,1,-5.1353,-3.69861)">
                                    <path d="M1714.57,505.906C1776.3,505.906 1824.73,556.046 1826.42,617.754C1827.16,644.876 1828.19,661.888 1808.6,680.978C1790.99,698.132 1752.68,715.173 1725.74,719.12C1675.64,726.461 1602.72,679.484 1602.72,617.754C1602.72,556.023 1652.84,505.906 1714.57,505.906ZM1714.57,522.627C1767.07,522.627 1809.81,565.252 1809.7,617.754C1809.64,641.379 1804.25,656.56 1792.86,674.025C1775.52,700.61 1721.64,703.412 1690.14,693.386C1640.11,677.464 1622.13,667.31 1619.44,617.754C1618.38,598.264 1625.29,566.22 1644.19,548.829C1661.14,533.241 1689.75,522.627 1714.57,522.627Z" style="fill:rgb(207,211,216);"/>
                                </g>
                            </g>
                            <path d="M1714.57,505.906C1732.72,505.906 1749.86,510.237 1765.02,517.921C1801.43,536.375 1826.42,574.17 1826.42,617.754C1826.42,679.484 1776.3,729.601 1714.57,729.601C1652.84,729.601 1602.72,679.484 1602.72,617.754C1602.72,556.023 1652.84,505.906 1714.57,505.906ZM1714.57,534.769C1767.07,534.769 1797.55,565.252 1797.55,617.754C1797.55,670.256 1767.07,700.738 1714.57,700.738C1662.07,700.738 1631.59,670.256 1631.59,617.754C1631.59,565.252 1662.07,534.769 1714.57,534.769Z" style="fill:none;stroke:black;stroke-width:5px;"/>
                        </g>
                    </g>
                </g>
                <g transform="matrix(1,0,0,1,-7,7)">
                    <g opacity="0.3">
                        <g transform="matrix(0.831978,0,0,0.831978,-41.4941,-3355.75)">
                            <path d="M232.305,4194.12C232.305,4188.64 227.855,4184.19 222.373,4184.19L202.507,4184.19C197.025,4184.19 192.575,4188.64 192.575,4194.12L192.575,4213.98C192.575,4219.47 197.025,4223.91 202.507,4223.91L222.373,4223.91C227.855,4223.91 232.305,4219.47 232.305,4213.98L232.305,4194.12Z" style="stroke:black;stroke-width:6.01px;"/>
                        </g>
                        <g transform="matrix(0.831978,0,0,0.831978,-1.45176,-3355.75)">
                            <path d="M232.305,4194.12C232.305,4188.64 227.855,4184.19 222.373,4184.19L202.507,4184.19C197.025,4184.19 192.575,4188.64 192.575,4194.12L192.575,4213.98C192.575,4219.47 197.025,4223.91 202.507,4223.91L222.373,4223.91C227.855,4223.91 232.305,4219.47 232.305,4213.98L232.305,4194.12Z" style="stroke:black;stroke-width:6.01px;"/>
                        </g>
                        <g transform="matrix(0.831978,0,0,0.831978,38.5905,-3355.75)">
                            <path d="M232.305,4194.12C232.305,4188.64 227.855,4184.19 222.373,4184.19L202.507,4184.19C197.025,4184.19 192.575,4188.64 192.575,4194.12L192.575,4213.98C192.575,4219.47 197.025,4223.91 202.507,4223.91L222.373,4223.91C227.855,4223.91 232.305,4219.47 232.305,4213.98L232.305,4194.12Z" style="stroke:black;stroke-width:6.01px;"/>
                        </g>
                        <g transform="matrix(0.831978,0,0,0.831978,-41.4941,-3316.66)">
                            <path d="M232.305,4194.12C232.305,4188.64 227.855,4184.19 222.373,4184.19L202.507,4184.19C197.025,4184.19 192.575,4188.64 192.575,4194.12L192.575,4213.98C192.575,4219.47 197.025,4223.91 202.507,4223.91L222.373,4223.91C227.855,4223.91 232.305,4219.47 232.305,4213.98L232.305,4194.12Z" style="stroke:black;stroke-width:6.01px;"/>
                        </g>
                        <g transform="matrix(0.831978,0,0,0.831978,-1.45176,-3316.66)">
                            <path d="M232.305,4194.12C232.305,4188.64 227.855,4184.19 222.373,4184.19L202.507,4184.19C197.025,4184.19 192.575,4188.64 192.575,4194.12L192.575,4213.98C192.575,4219.47 197.025,4223.91 202.507,4223.91L222.373,4223.91C227.855,4223.91 232.305,4219.47 232.305,4213.98L232.305,4194.12Z" style="stroke:black;stroke-width:6.01px;"/>
                        </g>
                        <g transform="matrix(0.831978,0,0,0.831978,38.5905,-3316.66)">
                            <path d="M232.305,4194.12C232.305,4188.64 227.855,4184.19 222.373,4184.19L202.507,4184.19C197.025,4184.19 192.575,4188.64 192.575,4194.12L192.575,4213.98C192.575,4219.47 197.025,4223.91 202.507,4223.91L222.373,4223.91C227.855,4223.91 232.305,4219.47 232.305,4213.98L232.305,4194.12Z" style="stroke:black;stroke-width:6.01px;"/>
                        </g>
                        <g transform="matrix(0.831978,0,0,0.831978,-41.4941,-3277.56)">
                            <path d="M232.305,4194.12C232.305,4188.64 227.855,4184.19 222.373,4184.19L202.507,4184.19C197.025,4184.19 192.575,4188.64 192.575,4194.12L192.575,4213.98C192.575,4219.47 197.025,4223.91 202.507,4223.91L222.373,4223.91C227.855,4223.91 232.305,4219.47 232.305,4213.98L232.305,4194.12Z" style="stroke:black;stroke-width:6.01px;"/>
                        </g>
                        <g transform="matrix(0.831978,0,0,0.831978,-1.45176,-3277.56)">
                            <path d="M232.305,4194.12C232.305,4188.64 227.855,4184.19 222.373,4184.19L202.507,4184.19C197.025,4184.19 192.575,4188.64 192.575,4194.12L192.575,4213.98C192.575,4219.47 197.025,4223.91 202.507,4223.91L222.373,4223.91C227.855,4223.91 232.305,4219.47 232.305,4213.98L232.305,4194.12Z" style="stroke:black;stroke-width:6.01px;"/>
                        </g>
                        <g transform="matrix(0.831978,0,0,0.831978,38.5905,-3277.56)">
                            <path d="M232.305,4194.12C232.305,4188.64 227.855,4184.19 222.373,4184.19L202.507,4184.19C197.025,4184.19 192.575,4188.64 192.575,4194.12L192.575,4213.98C192.575,4219.47 197.025,4223.91 202.507,4223.91L222.373,4223.91C227.855,4223.91 232.305,4219.47 232.305,4213.98L232.305,4194.12Z" style="stroke:black;stroke-width:6.01px;"/>
                        </g>
                    </g>
                </g>
                <g>
                    <g transform="matrix(0.831978,0,0,0.831978,-41.4941,-3355.75)">
                        <path d="M232.305,4194.12C232.305,4188.64 227.855,4184.19 222.373,4184.19L202.507,4184.19C197.025,4184.19 192.575,4188.64 192.575,4194.12L192.575,4213.98C192.575,4219.47 197.025,4223.91 202.507,4223.91L222.373,4223.91C227.855,4223.91 232.305,4219.47 232.305,4213.98L232.305,4194.12Z" style="fill:rgb(171,180,192);"/>
                        <clipPath id="_clip5">
                            <path d="M232.305,4194.12C232.305,4188.64 227.855,4184.19 222.373,4184.19L202.507,4184.19C197.025,4184.19 192.575,4188.64 192.575,4194.12L192.575,4213.98C192.575,4219.47 197.025,4223.91 202.507,4223.91L222.373,4223.91C227.855,4223.91 232.305,4219.47 232.305,4213.98L232.305,4194.12Z"/>
                        </clipPath>
                        <g clip-path="url(#_clip5)">
                            <g transform="matrix(1.37511,0,0,1.37511,1.57802,-1278.53)">
                                <path d="M146.895,3973.55L146.895,3986.22C146.895,3990.21 150.132,3993.45 154.118,3993.45L166.788,3993.45L166.788,3995.22C166.788,3999.21 163.551,4002.45 159.565,4002.45L145.118,4002.45C141.132,4002.45 137.895,3999.21 137.895,3995.22L137.895,3980.78C137.895,3976.79 141.132,3973.55 145.118,3973.55L146.895,3973.55Z" style="fill:rgb(136,142,149);"/>
                            </g>
                            <g transform="matrix(1.37511,0,0,1.37511,4.32825,-1281.28)">
                                <path d="M159.565,3973.55C163.551,3973.55 166.788,3976.79 166.788,3980.78L166.788,3995.22C166.788,3999.21 163.551,4002.45 159.565,4002.45L157.788,4002.45L157.788,3989.78C157.788,3985.79 154.551,3982.55 150.565,3982.55L137.895,3982.55L137.895,3980.78C137.895,3976.79 141.132,3973.55 145.118,3973.55L159.565,3973.55Z" style="fill:rgb(207,211,216);"/>
                            </g>
                            <g transform="matrix(-0.669425,0.669425,-1.45381,-1.45381,964.267,4516.89)">
                                <path d="M216.856,315.319C276.168,315.319 324.492,337.374 324.322,364.538C324.211,382.411 302.47,397.943 270.409,406.573C254.613,410.825 236.311,413.402 216.856,413.758C157.554,414.843 109.39,391.703 109.39,364.538C109.39,337.373 157.544,315.319 216.856,315.319Z" style="fill:rgb(244,243,241);fill-opacity:0.2;"/>
                            </g>
                        </g>
                        <path d="M232.305,4194.12C232.305,4188.64 227.855,4184.19 222.373,4184.19L202.507,4184.19C197.025,4184.19 192.575,4188.64 192.575,4194.12L192.575,4213.98C192.575,4219.47 197.025,4223.91 202.507,4223.91L222.373,4223.91C227.855,4223.91 232.305,4219.47 232.305,4213.98L232.305,4194.12Z" style="fill:none;stroke:black;stroke-width:6.01px;"/>
                    </g>
                    <g transform="matrix(0.831978,0,0,0.831978,-1.45176,-3355.75)">
                        <path d="M232.305,4194.12C232.305,4188.64 227.855,4184.19 222.373,4184.19L202.507,4184.19C197.025,4184.19 192.575,4188.64 192.575,4194.12L192.575,4213.98C192.575,4219.47 197.025,4223.91 202.507,4223.91L222.373,4223.91C227.855,4223.91 232.305,4219.47 232.305,4213.98L232.305,4194.12Z" style="fill:rgb(171,180,192);"/>
                        <clipPath id="_clip6">
                            <path d="M232.305,4194.12C232.305,4188.64 227.855,4184.19 222.373,4184.19L202.507,4184.19C197.025,4184.19 192.575,4188.64 192.575,4194.12L192.575,4213.98C192.575,4219.47 197.025,4223.91 202.507,4223.91L222.373,4223.91C227.855,4223.91 232.305,4219.47 232.305,4213.98L232.305,4194.12Z"/>
                        </clipPath>
                        <g clip-path="url(#_clip6)">
                            <g transform="matrix(1.37511,0,0,1.37511,1.57802,-1278.53)">
                                <path d="M146.895,3973.55L146.895,3986.22C146.895,3990.21 150.132,3993.45 154.118,3993.45L166.788,3993.45L166.788,3995.22C166.788,3999.21 163.551,4002.45 159.565,4002.45L145.118,4002.45C141.132,4002.45 137.895,3999.21 137.895,3995.22L137.895,3980.78C137.895,3976.79 141.132,3973.55 145.118,3973.55L146.895,3973.55Z" style="fill:rgb(136,142,149);"/>
                            </g>
                            <g transform="matrix(1.37511,0,0,1.37511,4.32825,-1281.28)">
                                <path d="M159.565,3973.55C163.551,3973.55 166.788,3976.79 166.788,3980.78L166.788,3995.22C166.788,3999.21 163.551,4002.45 159.565,4002.45L157.788,4002.45L157.788,3989.78C157.788,3985.79 154.551,3982.55 150.565,3982.55L137.895,3982.55L137.895,3980.78C137.895,3976.79 141.132,3973.55 145.118,3973.55L159.565,3973.55Z" style="fill:rgb(207,211,216);"/>
                            </g>
                            <g transform="matrix(-0.669425,0.669425,-1.45381,-1.45381,964.267,4516.89)">
                                <path d="M216.856,315.319C276.168,315.319 324.492,337.374 324.322,364.538C324.211,382.411 302.47,397.943 270.409,406.573C254.613,410.825 236.311,413.402 216.856,413.758C157.554,414.843 109.39,391.703 109.39,364.538C109.39,337.373 157.544,315.319 216.856,315.319Z" style="fill:rgb(244,243,241);fill-opacity:0.2;"/>
                            </g>
                        </g>
                        <path d="M232.305,4194.12C232.305,4188.64 227.855,4184.19 222.373,4184.19L202.507,4184.19C197.025,4184.19 192.575,4188.64 192.575,4194.12L192.575,4213.98C192.575,4219.47 197.025,4223.91 202.507,4223.91L222.373,4223.91C227.855,4223.91 232.305,4219.47 232.305,4213.98L232.305,4194.12Z" style="fill:none;stroke:black;stroke-width:6.01px;"/>
                    </g>
                    <g transform="matrix(0.831978,0,0,0.831978,38.5905,-3355.75)">
                        <path d="M232.305,4194.12C232.305,4188.64 227.855,4184.19 222.373,4184.19L202.507,4184.19C197.025,4184.19 192.575,4188.64 192.575,4194.12L192.575,4213.98C192.575,4219.47 197.025,4223.91 202.507,4223.91L222.373,4223.91C227.855,4223.91 232.305,4219.47 232.305,4213.98L232.305,4194.12Z" style="fill:rgb(171,180,192);"/>
                        <clipPath id="_clip7">
                            <path d="M232.305,4194.12C232.305,4188.64 227.855,4184.19 222.373,4184.19L202.507,4184.19C197.025,4184.19 192.575,4188.64 192.575,4194.12L192.575,4213.98C192.575,4219.47 197.025,4223.91 202.507,4223.91L222.373,4223.91C227.855,4223.91 232.305,4219.47 232.305,4213.98L232.305,4194.12Z"/>
                        </clipPath>
                        <g clip-path="url(#_clip7)">
                            <g transform="matrix(1.37511,0,0,1.37511,1.57802,-1278.53)">
                                <path d="M146.895,3973.55L146.895,3986.22C146.895,3990.21 150.132,3993.45 154.118,3993.45L166.788,3993.45L166.788,3995.22C166.788,3999.21 163.551,4002.45 159.565,4002.45L145.118,4002.45C141.132,4002.45 137.895,3999.21 137.895,3995.22L137.895,3980.78C137.895,3976.79 141.132,3973.55 145.118,3973.55L146.895,3973.55Z" style="fill:rgb(136,142,149);"/>
                            </g>
                            <g transform="matrix(1.37511,0,0,1.37511,4.32825,-1281.28)">
                                <path d="M159.565,3973.55C163.551,3973.55 166.788,3976.79 166.788,3980.78L166.788,3995.22C166.788,3999.21 163.551,4002.45 159.565,4002.45L157.788,4002.45L157.788,3989.78C157.788,3985.79 154.551,3982.55 150.565,3982.55L137.895,3982.55L137.895,3980.78C137.895,3976.79 141.132,3973.55 145.118,3973.55L159.565,3973.55Z" style="fill:rgb(207,211,216);"/>
                            </g>
                            <g transform="matrix(-0.669425,0.669425,-1.45381,-1.45381,964.267,4516.89)">
                                <path d="M216.856,315.319C276.168,315.319 324.492,337.374 324.322,364.538C324.211,382.411 302.47,397.943 270.409,406.573C254.613,410.825 236.311,413.402 216.856,413.758C157.554,414.843 109.39,391.703 109.39,364.538C109.39,337.373 157.544,315.319 216.856,315.319Z" style="fill:rgb(244,243,241);fill-opacity:0.2;"/>
                            </g>
                        </g>
                        <path d="M232.305,4194.12C232.305,4188.64 227.855,4184.19 222.373,4184.19L202.507,4184.19C197.025,4184.19 192.575,4188.64 192.575,4194.12L192.575,4213.98C192.575,4219.47 197.025,4223.91 202.507,4223.91L222.373,4223.91C227.855,4223.91 232.305,4219.47 232.305,4213.98L232.305,4194.12Z" style="fill:none;stroke:black;stroke-width:6.01px;"/>
                    </g>
                    <g transform="matrix(0.831978,0,0,0.831978,-41.4941,-3316.66)">
                        <path d="M232.305,4194.12C232.305,4188.64 227.855,4184.19 222.373,4184.19L202.507,4184.19C197.025,4184.19 192.575,4188.64 192.575,4194.12L192.575,4213.98C192.575,4219.47 197.025,4223.91 202.507,4223.91L222.373,4223.91C227.855,4223.91 232.305,4219.47 232.305,4213.98L232.305,4194.12Z" style="fill:rgb(171,180,192);"/>
                        <clipPath id="_clip8">
                            <path d="M232.305,4194.12C232.305,4188.64 227.855,4184.19 222.373,4184.19L202.507,4184.19C197.025,4184.19 192.575,4188.64 192.575,4194.12L192.575,4213.98C192.575,4219.47 197.025,4223.91 202.507,4223.91L222.373,4223.91C227.855,4223.91 232.305,4219.47 232.305,4213.98L232.305,4194.12Z"/>
                        </clipPath>
                        <g clip-path="url(#_clip8)">
                            <g transform="matrix(1.37511,0,0,1.37511,1.57802,-1278.53)">
                                <path d="M146.895,3973.55L146.895,3986.22C146.895,3990.21 150.132,3993.45 154.118,3993.45L166.788,3993.45L166.788,3995.22C166.788,3999.21 163.551,4002.45 159.565,4002.45L145.118,4002.45C141.132,4002.45 137.895,3999.21 137.895,3995.22L137.895,3980.78C137.895,3976.79 141.132,3973.55 145.118,3973.55L146.895,3973.55Z" style="fill:rgb(136,142,149);"/>
                            </g>
                            <g transform="matrix(1.37511,0,0,1.37511,4.32825,-1281.28)">
                                <path d="M159.565,3973.55C163.551,3973.55 166.788,3976.79 166.788,3980.78L166.788,3995.22C166.788,3999.21 163.551,4002.45 159.565,4002.45L157.788,4002.45L157.788,3989.78C157.788,3985.79 154.551,3982.55 150.565,3982.55L137.895,3982.55L137.895,3980.78C137.895,3976.79 141.132,3973.55 145.118,3973.55L159.565,3973.55Z" style="fill:rgb(207,211,216);"/>
                            </g>
                            <g transform="matrix(-0.669425,0.669425,-1.45381,-1.45381,964.267,4516.89)">
                                <path d="M216.856,315.319C276.168,315.319 324.492,337.374 324.322,364.538C324.211,382.411 302.47,397.943 270.409,406.573C254.613,410.825 236.311,413.402 216.856,413.758C157.554,414.843 109.39,391.703 109.39,364.538C109.39,337.373 157.544,315.319 216.856,315.319Z" style="fill:rgb(244,243,241);fill-opacity:0.2;"/>
                            </g>
                        </g>
                        <path d="M232.305,4194.12C232.305,4188.64 227.855,4184.19 222.373,4184.19L202.507,4184.19C197.025,4184.19 192.575,4188.64 192.575,4194.12L192.575,4213.98C192.575,4219.47 197.025,4223.91 202.507,4223.91L222.373,4223.91C227.855,4223.91 232.305,4219.47 232.305,4213.98L232.305,4194.12Z" style="fill:none;stroke:black;stroke-width:6.01px;"/>
                    </g>
                    <g transform="matrix(0.831978,0,0,0.831978,-1.45176,-3316.66)">
                        <path d="M232.305,4194.12C232.305,4188.64 227.855,4184.19 222.373,4184.19L202.507,4184.19C197.025,4184.19 192.575,4188.64 192.575,4194.12L192.575,4213.98C192.575,4219.47 197.025,4223.91 202.507,4223.91L222.373,4223.91C227.855,4223.91 232.305,4219.47 232.305,4213.98L232.305,4194.12Z" style="fill:rgb(171,180,192);"/>
                        <clipPath id="_clip9">
                            <path d="M232.305,4194.12C232.305,4188.64 227.855,4184.19 222.373,4184.19L202.507,4184.19C197.025,4184.19 192.575,4188.64 192.575,4194.12L192.575,4213.98C192.575,4219.47 197.025,4223.91 202.507,4223.91L222.373,4223.91C227.855,4223.91 232.305,4219.47 232.305,4213.98L232.305,4194.12Z"/>
                        </clipPath>
                        <g clip-path="url(#_clip9)">
                            <g transform="matrix(1.37511,0,0,1.37511,1.57802,-1278.53)">
                                <path d="M146.895,3973.55L146.895,3986.22C146.895,3990.21 150.132,3993.45 154.118,3993.45L166.788,3993.45L166.788,3995.22C166.788,3999.21 163.551,4002.45 159.565,4002.45L145.118,4002.45C141.132,4002.45 137.895,3999.21 137.895,3995.22L137.895,3980.78C137.895,3976.79 141.132,3973.55 145.118,3973.55L146.895,3973.55Z" style="fill:rgb(136,142,149);"/>
                            </g>
                            <g transform="matrix(1.37511,0,0,1.37511,4.32825,-1281.28)">
                                <path d="M159.565,3973.55C163.551,3973.55 166.788,3976.79 166.788,3980.78L166.788,3995.22C166.788,3999.21 163.551,4002.45 159.565,4002.45L157.788,4002.45L157.788,3989.78C157.788,3985.79 154.551,3982.55 150.565,3982.55L137.895,3982.55L137.895,3980.78C137.895,3976.79 141.132,3973.55 145.118,3973.55L159.565,3973.55Z" style="fill:rgb(207,211,216);"/>
                            </g>
                            <g transform="matrix(-0.669425,0.669425,-1.45381,-1.45381,964.267,4516.89)">
                                <path d="M216.856,315.319C276.168,315.319 324.492,337.374 324.322,364.538C324.211,382.411 302.47,397.943 270.409,406.573C254.613,410.825 236.311,413.402 216.856,413.758C157.554,414.843 109.39,391.703 109.39,364.538C109.39,337.373 157.544,315.319 216.856,315.319Z" style="fill:rgb(244,243,241);fill-opacity:0.2;"/>
                            </g>
                        </g>
                        <path d="M232.305,4194.12C232.305,4188.64 227.855,4184.19 222.373,4184.19L202.507,4184.19C197.025,4184.19 192.575,4188.64 192.575,4194.12L192.575,4213.98C192.575,4219.47 197.025,4223.91 202.507,4223.91L222.373,4223.91C227.855,4223.91 232.305,4219.47 232.305,4213.98L232.305,4194.12Z" style="fill:none;stroke:black;stroke-width:6.01px;"/>
                    </g>
                    <g transform="matrix(0.831978,0,0,0.831978,38.5905,-3316.66)">
                        <path d="M232.305,4194.12C232.305,4188.64 227.855,4184.19 222.373,4184.19L202.507,4184.19C197.025,4184.19 192.575,4188.64 192.575,4194.12L192.575,4213.98C192.575,4219.47 197.025,4223.91 202.507,4223.91L222.373,4223.91C227.855,4223.91 232.305,4219.47 232.305,4213.98L232.305,4194.12Z" style="fill:rgb(171,180,192);"/>
                        <clipPath id="_clip10">
                            <path d="M232.305,4194.12C232.305,4188.64 227.855,4184.19 222.373,4184.19L202.507,4184.19C197.025,4184.19 192.575,4188.64 192.575,4194.12L192.575,4213.98C192.575,4219.47 197.025,4223.91 202.507,4223.91L222.373,4223.91C227.855,4223.91 232.305,4219.47 232.305,4213.98L232.305,4194.12Z"/>
                        </clipPath>
                        <g clip-path="url(#_clip10)">
                            <g transform="matrix(1.37511,0,0,1.37511,1.57802,-1278.53)">
                                <path d="M146.895,3973.55L146.895,3986.22C146.895,3990.21 150.132,3993.45 154.118,3993.45L166.788,3993.45L166.788,3995.22C166.788,3999.21 163.551,4002.45 159.565,4002.45L145.118,4002.45C141.132,4002.45 137.895,3999.21 137.895,3995.22L137.895,3980.78C137.895,3976.79 141.132,3973.55 145.118,3973.55L146.895,3973.55Z" style="fill:rgb(136,142,149);"/>
                            </g>
                            <g transform="matrix(1.37511,0,0,1.37511,4.32825,-1281.28)">
                                <path d="M159.565,3973.55C163.551,3973.55 166.788,3976.79 166.788,3980.78L166.788,3995.22C166.788,3999.21 163.551,4002.45 159.565,4002.45L157.788,4002.45L157.788,3989.78C157.788,3985.79 154.551,3982.55 150.565,3982.55L137.895,3982.55L137.895,3980.78C137.895,3976.79 141.132,3973.55 145.118,3973.55L159.565,3973.55Z" style="fill:rgb(207,211,216);"/>
                            </g>
                            <g transform="matrix(-0.669425,0.669425,-1.45381,-1.45381,964.267,4516.89)">
                                <path d="M216.856,315.319C276.168,315.319 324.492,337.374 324.322,364.538C324.211,382.411 302.47,397.943 270.409,406.573C254.613,410.825 236.311,413.402 216.856,413.758C157.554,414.843 109.39,391.703 109.39,364.538C109.39,337.373 157.544,315.319 216.856,315.319Z" style="fill:rgb(244,243,241);fill-opacity:0.2;"/>
                            </g>
                        </g>
                        <path d="M232.305,4194.12C232.305,4188.64 227.855,4184.19 222.373,4184.19L202.507,4184.19C197.025,4184.19 192.575,4188.64 192.575,4194.12L192.575,4213.98C192.575,4219.47 197.025,4223.91 202.507,4223.91L222.373,4223.91C227.855,4223.91 232.305,4219.47 232.305,4213.98L232.305,4194.12Z" style="fill:none;stroke:black;stroke-width:6.01px;"/>
                    </g>
                    <g transform="matrix(0.831978,0,0,0.831978,-41.4941,-3277.56)">
                        <path d="M232.305,4194.12C232.305,4188.64 227.855,4184.19 222.373,4184.19L202.507,4184.19C197.025,4184.19 192.575,4188.64 192.575,4194.12L192.575,4213.98C192.575,4219.47 197.025,4223.91 202.507,4223.91L222.373,4223.91C227.855,4223.91 232.305,4219.47 232.305,4213.98L232.305,4194.12Z" style="fill:rgb(171,180,192);"/>
                        <clipPath id="_clip11">
                            <path d="M232.305,4194.12C232.305,4188.64 227.855,4184.19 222.373,4184.19L202.507,4184.19C197.025,4184.19 192.575,4188.64 192.575,4194.12L192.575,4213.98C192.575,4219.47 197.025,4223.91 202.507,4223.91L222.373,4223.91C227.855,4223.91 232.305,4219.47 232.305,4213.98L232.305,4194.12Z"/>
                        </clipPath>
                        <g clip-path="url(#_clip11)">
                            <g transform="matrix(1.37511,0,0,1.37511,1.57802,-1278.53)">
                                <path d="M146.895,3973.55L146.895,3986.22C146.895,3990.21 150.132,3993.45 154.118,3993.45L166.788,3993.45L166.788,3995.22C166.788,3999.21 163.551,4002.45 159.565,4002.45L145.118,4002.45C141.132,4002.45 137.895,3999.21 137.895,3995.22L137.895,3980.78C137.895,3976.79 141.132,3973.55 145.118,3973.55L146.895,3973.55Z" style="fill:rgb(136,142,149);"/>
                            </g>
                            <g transform="matrix(1.37511,0,0,1.37511,4.32825,-1281.28)">
                                <path d="M159.565,3973.55C163.551,3973.55 166.788,3976.79 166.788,3980.78L166.788,3995.22C166.788,3999.21 163.551,4002.45 159.565,4002.45L157.788,4002.45L157.788,3989.78C157.788,3985.79 154.551,3982.55 150.565,3982.55L137.895,3982.55L137.895,3980.78C137.895,3976.79 141.132,3973.55 145.118,3973.55L159.565,3973.55Z" style="fill:rgb(207,211,216);"/>
                            </g>
                            <g transform="matrix(-0.669425,0.669425,-1.45381,-1.45381,964.267,4516.89)">
                                <path d="M216.856,315.319C276.168,315.319 324.492,337.374 324.322,364.538C324.211,382.411 302.47,397.943 270.409,406.573C254.613,410.825 236.311,413.402 216.856,413.758C157.554,414.843 109.39,391.703 109.39,364.538C109.39,337.373 157.544,315.319 216.856,315.319Z" style="fill:rgb(244,243,241);fill-opacity:0.2;"/>
                            </g>
                        </g>
                        <path d="M232.305,4194.12C232.305,4188.64 227.855,4184.19 222.373,4184.19L202.507,4184.19C197.025,4184.19 192.575,4188.64 192.575,4194.12L192.575,4213.98C192.575,4219.47 197.025,4223.91 202.507,4223.91L222.373,4223.91C227.855,4223.91 232.305,4219.47 232.305,4213.98L232.305,4194.12Z" style="fill:none;stroke:black;stroke-width:6.01px;"/>
                    </g>
                    <g transform="matrix(0.831978,0,0,0.831978,-1.45176,-3277.56)">
                        <path d="M232.305,4194.12C232.305,4188.64 227.855,4184.19 222.373,4184.19L202.507,4184.19C197.025,4184.19 192.575,4188.64 192.575,4194.12L192.575,4213.98C192.575,4219.47 197.025,4223.91 202.507,4223.91L222.373,4223.91C227.855,4223.91 232.305,4219.47 232.305,4213.98L232.305,4194.12Z" style="fill:rgb(171,180,192);"/>
                        <clipPath id="_clip12">
                            <path d="M232.305,4194.12C232.305,4188.64 227.855,4184.19 222.373,4184.19L202.507,4184.19C197.025,4184.19 192.575,4188.64 192.575,4194.12L192.575,4213.98C192.575,4219.47 197.025,4223.91 202.507,4223.91L222.373,4223.91C227.855,4223.91 232.305,4219.47 232.305,4213.98L232.305,4194.12Z"/>
                        </clipPath>
                        <g clip-path="url(#_clip12)">
                            <g transform="matrix(1.37511,0,0,1.37511,1.57802,-1278.53)">
                                <path d="M146.895,3973.55L146.895,3986.22C146.895,3990.21 150.132,3993.45 154.118,3993.45L166.788,3993.45L166.788,3995.22C166.788,3999.21 163.551,4002.45 159.565,4002.45L145.118,4002.45C141.132,4002.45 137.895,3999.21 137.895,3995.22L137.895,3980.78C137.895,3976.79 141.132,3973.55 145.118,3973.55L146.895,3973.55Z" style="fill:rgb(136,142,149);"/>
                            </g>
                            <g transform="matrix(1.37511,0,0,1.37511,4.32825,-1281.28)">
                                <path d="M159.565,3973.55C163.551,3973.55 166.788,3976.79 166.788,3980.78L166.788,3995.22C166.788,3999.21 163.551,4002.45 159.565,4002.45L157.788,4002.45L157.788,3989.78C157.788,3985.79 154.551,3982.55 150.565,3982.55L137.895,3982.55L137.895,3980.78C137.895,3976.79 141.132,3973.55 145.118,3973.55L159.565,3973.55Z" style="fill:rgb(207,211,216);"/>
                            </g>
                            <g transform="matrix(-0.669425,0.669425,-1.45381,-1.45381,964.267,4516.89)">
                                <path d="M216.856,315.319C276.168,315.319 324.492,337.374 324.322,364.538C324.211,382.411 302.47,397.943 270.409,406.573C254.613,410.825 236.311,413.402 216.856,413.758C157.554,414.843 109.39,391.703 109.39,364.538C109.39,337.373 157.544,315.319 216.856,315.319Z" style="fill:rgb(244,243,241);fill-opacity:0.2;"/>
                            </g>
                        </g>
                        <path d="M232.305,4194.12C232.305,4188.64 227.855,4184.19 222.373,4184.19L202.507,4184.19C197.025,4184.19 192.575,4188.64 192.575,4194.12L192.575,4213.98C192.575,4219.47 197.025,4223.91 202.507,4223.91L222.373,4223.91C227.855,4223.91 232.305,4219.47 232.305,4213.98L232.305,4194.12Z" style="fill:none;stroke:black;stroke-width:6.01px;"/>
                    </g>
                    <g transform="matrix(0.831978,0,0,0.831978,38.5905,-3277.56)">
                        <path d="M232.305,4194.12C232.305,4188.64 227.855,4184.19 222.373,4184.19L202.507,4184.19C197.025,4184.19 192.575,4188.64 192.575,4194.12L192.575,4213.98C192.575,4219.47 197.025,4223.91 202.507,4223.91L222.373,4223.91C227.855,4223.91 232.305,4219.47 232.305,4213.98L232.305,4194.12Z" style="fill:rgb(171,180,192);"/>
                        <clipPath id="_clip13">
                            <path d="M232.305,4194.12C232.305,4188.64 227.855,4184.19 222.373,4184.19L202.507,4184.19C197.025,4184.19 192.575,4188.64 192.575,4194.12L192.575,4213.98C192.575,4219.47 197.025,4223.91 202.507,4223.91L222.373,4223.91C227.855,4223.91 232.305,4219.47 232.305,4213.98L232.305,4194.12Z"/>
                        </clipPath>
                        <g clip-path="url(#_clip13)">
                            <g transform="matrix(1.37511,0,0,1.37511,1.57802,-1278.53)">
                                <path d="M146.895,3973.55L146.895,3986.22C146.895,3990.21 150.132,3993.45 154.118,3993.45L166.788,3993.45L166.788,3995.22C166.788,3999.21 163.551,4002.45 159.565,4002.45L145.118,4002.45C141.132,4002.45 137.895,3999.21 137.895,3995.22L137.895,3980.78C137.895,3976.79 141.132,3973.55 145.118,3973.55L146.895,3973.55Z" style="fill:rgb(136,142,149);"/>
                            </g>
                            <g transform="matrix(1.37511,0,0,1.37511,4.32825,-1281.28)">
                                <path d="M159.565,3973.55C163.551,3973.55 166.788,3976.79 166.788,3980.78L166.788,3995.22C166.788,3999.21 163.551,4002.45 159.565,4002.45L157.788,4002.45L157.788,3989.78C157.788,3985.79 154.551,3982.55 150.565,3982.55L137.895,3982.55L137.895,3980.78C137.895,3976.79 141.132,3973.55 145.118,3973.55L159.565,3973.55Z" style="fill:rgb(207,211,216);"/>
                            </g>
                            <g transform="matrix(-0.669425,0.669425,-1.45381,-1.45381,964.267,4516.89)">
                                <path d="M216.856,315.319C276.168,315.319 324.492,337.374 324.322,364.538C324.211,382.411 302.47,397.943 270.409,406.573C254.613,410.825 236.311,413.402 216.856,413.758C157.554,414.843 109.39,391.703 109.39,364.538C109.39,337.373 157.544,315.319 216.856,315.319Z" style="fill:rgb(244,243,241);fill-opacity:0.2;"/>
                            </g>
                        </g>
                        <path d="M232.305,4194.12C232.305,4188.64 227.855,4184.19 222.373,4184.19L202.507,4184.19C197.025,4184.19 192.575,4188.64 192.575,4194.12L192.575,4213.98C192.575,4219.47 197.025,4223.91 202.507,4223.91L222.373,4223.91C227.855,4223.91 232.305,4219.47 232.305,4213.98L232.305,4194.12Z" style="fill:none;stroke:black;stroke-width:6.01px;"/>
                    </g>
                </g>
            </g>
        </g>
    </g>
    <defs>
        <linearGradient id="_Linear2" x1="0" y1="0" x2="1" y2="0" gradientUnits="userSpaceOnUse" gradientTransform="matrix(4.50023e-14,734.944,-734.944,4.50023e-14,926.075,160.203)"><stop offset="0" style="stop-color:rgb(233,197,140);stop-opacity:1"/><stop offset="0.53" style="stop-color:rgb(179,144,96);stop-opacity:1"/><stop offset="1" style="stop-color:rgb(148,118,79);stop-opacity:1"/></linearGradient>
    </defs>
</svg>
